<svg viewBox="0 0 71 71" fill="none" xmlns="http://www.w3.org/2000/svg">
    <g filter="url(#filter0_d_1889_761)">
        <circle cx="35.437" cy="22.6671" r="16.7999" fill="#2C2240" />
    </g>
    <path d="M35.437 5.86719C26.1585 5.86719 18.637 13.3887 18.637 22.6672C18.637 31.9457 26.1585 39.4672 35.437 39.4672C44.7155 39.4672 52.237 31.9457 52.237 22.6672C52.237 13.3887 44.7155 5.86719 35.437 5.86719ZM42.2707 19.6292C42.2777 19.7727 42.2795 19.9162 42.2795 20.0562C42.2795 24.4312 38.9527 29.4729 32.8662 29.4729C31.0677 29.4759 29.3067 28.9594 27.7947 27.9854C28.052 28.0169 28.3162 28.0292 28.584 28.0292C30.1345 28.0292 31.5607 27.5024 32.693 26.6134C32.003 26.5999 31.3344 26.3714 30.7804 25.9598C30.2264 25.5483 29.8147 24.9741 29.6025 24.3174C30.098 24.4117 30.6085 24.3919 31.0952 24.2597C30.3463 24.1082 29.6728 23.7024 29.189 23.1111C28.7051 22.5198 28.4407 21.7793 28.4405 21.0152V20.9749C28.8867 21.2217 29.3977 21.3722 29.9402 21.3897C29.2381 20.9223 28.7411 20.2044 28.5508 19.3827C28.3605 18.561 28.4913 17.6976 28.9165 16.9692C29.7476 17.9912 30.7842 18.8272 31.959 19.4232C33.1337 20.0192 34.4206 20.3618 35.7362 20.4289C35.569 19.719 35.6409 18.9736 35.941 18.3088C36.241 17.644 36.7523 17.0969 37.3953 16.7527C38.0384 16.4084 38.7771 16.2862 39.4968 16.4051C40.2164 16.524 40.8766 16.8774 41.3747 17.4102C42.1153 17.2637 42.8254 16.992 43.4747 16.6069C43.2279 17.3737 42.7111 18.0247 42.0205 18.4392C42.6764 18.3602 43.317 18.1838 43.921 17.9159C43.4773 18.5808 42.9185 19.161 42.2707 19.6292Z" fill="white" />
    <defs>
        <filter id="filter0_d_1889_761" x="0.637085" y="0.867188" width="69.5999" height="69.6016" filterUnits="userSpaceOnUse" color-interpolation-filters="sRGB">
            <feFlood flood-opacity="0" result="BackgroundImageFix" />
            <feColorMatrix in="SourceAlpha" type="matrix" values="0 0 0 0 0 0 0 0 0 0 0 0 0 0 0 0 0 0 127 0" result="hardAlpha" />
            <feOffset dy="13" />
            <feGaussianBlur stdDeviation="9" />
            <feColorMatrix type="matrix" values="0 0 0 0 0.0658854 0 0 0 0 0.0730469 0 0 0 0 0.1375 0 0 0 0.08 0" />
            <feBlend mode="normal" in2="BackgroundImageFix" result="effect1_dropShadow_1889_761" />
            <feBlend mode="normal" in="SourceGraphic" in2="effect1_dropShadow_1889_761" result="shape" />
        </filter>
    </defs>
</svg>