<svg viewBox="0 0 70 71" fill="none" xmlns="http://www.w3.org/2000/svg">
    <g filter="url(#filter0_d_1889_760)">
        <circle cx="34.8369" cy="22.6671" r="16.7999" fill="#2C2240" />
    </g>
    <path d="M34.8369 5.86719C25.5584 5.86719 18.0369 13.3887 18.0369 22.6672C18.0369 31.9457 25.5584 39.4672 34.8369 39.4672C44.1154 39.4672 51.6369 31.9457 51.6369 22.6672C51.6369 13.3887 44.1154 5.86719 34.8369 5.86719ZM38.8164 17.4767H36.2911C35.9919 17.4767 35.6594 17.8704 35.6594 18.3937V20.2172H38.8181L38.3404 22.8177H35.6594V30.6244H32.6791V22.8177H29.9754V20.2172H32.6791V18.6877C32.6791 16.4932 34.2016 14.7099 36.2911 14.7099H38.8164V17.4767Z" fill="white" />
    <defs>
        <filter id="filter0_d_1889_760" x="0.0369873" y="0.867188" width="69.5999" height="69.6016" filterUnits="userSpaceOnUse" color-interpolation-filters="sRGB">
            <feFlood flood-opacity="0" result="BackgroundImageFix" />
            <feColorMatrix in="SourceAlpha" type="matrix" values="0 0 0 0 0 0 0 0 0 0 0 0 0 0 0 0 0 0 127 0" result="hardAlpha" />
            <feOffset dy="13" />
            <feGaussianBlur stdDeviation="9" />
            <feColorMatrix type="matrix" values="0 0 0 0 0.0658854 0 0 0 0 0.0730469 0 0 0 0 0.1375 0 0 0 0.08 0" />
            <feBlend mode="normal" in2="BackgroundImageFix" result="effect1_dropShadow_1889_760" />
            <feBlend mode="normal" in="SourceGraphic" in2="effect1_dropShadow_1889_760" result="shape" />
        </filter>
    </defs>
</svg>