<svg viewBox="0 0 70 71" fill="none" xmlns="http://www.w3.org/2000/svg">
    <g filter="url(#filter0_d_1889_762)">
        <circle cx="35.0371" cy="22.6671" r="16.7999" fill="#2C2240" />
    </g>
    <path d="M40.2871 22.6672C40.2871 24.0596 39.7339 25.3949 38.7494 26.3795C37.7648 27.3641 36.4295 27.9172 35.0371 27.9172C33.6447 27.9172 32.3093 27.3641 31.3248 26.3795C30.3402 25.3949 29.7871 24.0596 29.7871 22.6672C29.7871 22.3679 29.8186 22.0757 29.8728 21.7922H28.0371V28.7869C28.0371 29.2734 28.4308 29.6672 28.9173 29.6672H41.1586C41.3917 29.6667 41.6152 29.5738 41.7799 29.4088C41.9446 29.2437 42.0371 29.0201 42.0371 28.7869V21.7922H40.2013C40.2556 22.0757 40.2871 22.3679 40.2871 22.6672ZM35.0371 26.1672C35.4968 26.1671 35.952 26.0764 36.3767 25.9004C36.8014 25.7243 37.1873 25.4664 37.5123 25.1412C37.8373 24.816 38.0951 24.43 38.2709 24.0052C38.4467 23.5804 38.5372 23.1252 38.5371 22.6654C38.5369 22.2057 38.4463 21.7505 38.2702 21.3258C38.0942 20.9011 37.8362 20.5152 37.5111 20.1902C37.1859 19.8652 36.7999 19.6074 36.3751 19.4316C35.9503 19.2558 35.4951 19.1653 35.0353 19.1654C34.1068 19.1657 33.2165 19.5347 32.5601 20.1914C31.9037 20.8481 31.5351 21.7387 31.5353 22.6672C31.5355 23.5957 31.9046 24.486 32.5613 25.1424C33.218 25.7988 34.1086 26.1674 35.0371 26.1672ZM39.2371 18.9922H41.3353C41.4747 18.9922 41.6084 18.9369 41.7072 18.8385C41.8059 18.7401 41.8616 18.6066 41.8621 18.4672V16.3689C41.8621 16.2292 41.8066 16.0953 41.7078 15.9965C41.609 15.8977 41.475 15.8422 41.3353 15.8422H39.2371C39.0974 15.8422 38.9634 15.8977 38.8646 15.9965C38.7658 16.0953 38.7103 16.2292 38.7103 16.3689V18.4672C38.7121 18.7559 38.9483 18.9922 39.2371 18.9922ZM35.0371 5.86719C30.5814 5.86719 26.3083 7.63718 23.1577 10.7878C20.0071 13.9384 18.2371 18.2116 18.2371 22.6672C18.2371 27.1228 20.0071 31.396 23.1577 34.5466C26.3083 37.6972 30.5814 39.4672 35.0371 39.4672C37.2433 39.4672 39.4279 39.0326 41.4661 38.1884C43.5044 37.3441 45.3564 36.1066 46.9165 34.5466C48.4765 32.9866 49.714 31.1345 50.5582 29.0963C51.4025 27.058 51.8371 24.8734 51.8371 22.6672C51.8371 20.461 51.4025 18.2764 50.5582 16.2381C49.714 14.1998 48.4765 12.3478 46.9165 10.7878C45.3564 9.22777 43.5044 7.99029 41.4661 7.14601C39.4279 6.30173 37.2433 5.86719 35.0371 5.86719ZM43.7871 29.4729C43.7871 30.5422 42.9121 31.4172 41.8428 31.4172H28.2313C27.1621 31.4172 26.2871 30.5422 26.2871 29.4729V15.8614C26.2871 14.7922 27.1621 13.9172 28.2313 13.9172H41.8428C42.9121 13.9172 43.7871 14.7922 43.7871 15.8614V29.4729Z" fill="white" />
    <defs>
        <filter id="filter0_d_1889_762" x="0.237183" y="0.867188" width="69.5999" height="69.6016" filterUnits="userSpaceOnUse" color-interpolation-filters="sRGB">
            <feFlood flood-opacity="0" result="BackgroundImageFix" />
            <feColorMatrix in="SourceAlpha" type="matrix" values="0 0 0 0 0 0 0 0 0 0 0 0 0 0 0 0 0 0 127 0" result="hardAlpha" />
            <feOffset dy="13" />
            <feGaussianBlur stdDeviation="9" />
            <feColorMatrix type="matrix" values="0 0 0 0 0.0658854 0 0 0 0 0.0730469 0 0 0 0 0.1375 0 0 0 0.08 0" />
            <feBlend mode="normal" in2="BackgroundImageFix" result="effect1_dropShadow_1889_762" />
            <feBlend mode="normal" in="SourceGraphic" in2="effect1_dropShadow_1889_762" result="shape" />
        </filter>
    </defs>
</svg>