<svg xmlns="http://www.w3.org/2000/svg"  viewBox="0 0 165 48" fill="none">
    <g clip-path="url(#clip0_910_973)">
        <path d="M41.5417 0.158203L39.177 11.8344C39.177 11.8344 39.0206 12.6493 39.0068 12.7C37.0746 22.5851 33.5643 33.0182 25.6191 39.7909C19.9143 44.9522 10.3267 46.7617 4.45173 40.8775C1.77878 38.2071 0.568824 34.6803 0.499815 31.0568C0.469485 27.7079 1.31144 24.4089 2.94273 21.4847C3.07155 21.2637 3.20037 21.0243 3.33378 20.8217C3.4672 20.6192 3.66963 20.2877 3.84445 20.0344C4.01927 19.7812 4.2033 19.5234 4.38732 19.2793C4.94597 18.549 5.56129 17.864 6.22756 17.2305C6.62781 16.8714 7.03726 16.5306 7.46052 16.213L7.89297 15.9045C8.26102 15.642 8.63367 15.3888 9.02012 15.1586C9.20875 15.0435 9.40657 14.9284 9.6044 14.8271C9.80222 14.7258 9.99545 14.6153 10.1979 14.514C10.0691 14.689 9.93564 14.8639 9.81142 15.0389C9.39737 15.596 9.00632 16.1577 8.65207 16.7286C8.29783 17.2995 7.92978 17.8889 7.59854 18.492C7.60027 18.5058 7.60027 18.5197 7.59854 18.5335C7.48812 18.7314 7.38231 18.9294 7.2857 19.1274C7.18908 19.3254 7.07407 19.5372 6.97286 19.7444C6.87164 19.9515 6.77043 20.1633 6.67382 20.3751C4.02387 25.4397 3.12216 33.2668 7.86077 37.1113C7.93898 37.1712 8.03099 37.231 8.13681 37.3001C9.89884 38.4603 12.1761 38.6537 14.3246 38.092C16.5102 37.4416 18.4601 36.17 19.9373 34.4317L20.0294 34.335C22.7253 31.3054 24.5011 27.0926 25.5501 23.5382C26.3667 20.5517 26.9542 17.5072 27.3075 14.4311L22.0858 14.3851L41.5417 0.158203Z" fill="white" />
        <path d="M39.4072 48.0004V16.3099H46.1793V19.3118C46.8602 17.309 49.5423 15.9001 52.9928 15.9001C54.5101 15.8602 56.0181 16.1485 57.414 16.7453C58.8098 17.342 60.0605 18.2331 61.0806 19.3579C62.1551 20.4735 62.9975 21.7915 63.5591 23.2355C64.1206 24.6795 64.39 26.2207 64.3517 27.7697C64.4205 30.9107 63.2445 33.9513 61.0806 36.2276C60.0489 37.338 58.7929 38.216 57.3961 38.8034C55.9993 39.3909 54.4936 39.6742 52.979 39.6346C49.5285 39.6346 46.8464 38.2258 46.1655 36.2276V48.0004H39.4072ZM55.9004 31.8858C56.4478 31.352 56.8795 30.711 57.1684 30.0028C57.4574 29.2946 57.5973 28.5344 57.5796 27.7697C57.5981 27.0147 57.4577 26.2642 57.1677 25.567C56.8776 24.8698 56.4442 24.2414 55.8958 23.7226C55.3585 23.1721 54.7134 22.7387 54.0009 22.4495C53.2884 22.1604 52.5238 22.0216 51.7552 22.0421C50.9675 22.0223 50.1838 22.1609 49.4504 22.4495C48.7171 22.7382 48.0491 23.1711 47.4859 23.7226C46.9317 24.2391 46.4919 24.8661 46.1948 25.5632C45.8976 26.2603 45.7497 27.0119 45.7607 27.7697C45.7545 28.5336 45.9043 29.2907 46.201 29.9945C46.4977 30.6983 46.9349 31.3341 47.4859 31.8628C48.6405 32.9531 50.1773 33.5452 51.7644 33.5111C52.5289 33.5268 53.2887 33.389 53.9991 33.1059C54.7095 32.8228 55.356 32.4001 55.9004 31.8628V31.8858Z" fill="white" />
        <path d="M82.9795 19.3107V7.5332H89.7516V39.2237H82.9795V36.2264C82.2986 38.2246 79.6165 39.6335 76.166 39.6335C74.6475 39.6668 73.1389 39.3808 71.7378 38.7939C70.3366 38.207 69.0742 37.3323 68.0322 36.2264C65.9016 33.9328 64.7466 30.8995 64.8117 27.7686C64.7385 24.65 65.8955 21.628 68.0322 19.3567C69.0643 18.2346 70.3237 17.3458 71.7263 16.7496C73.1289 16.1533 74.6425 15.8633 76.166 15.899C79.6165 15.899 82.2986 17.3079 82.9795 19.3107ZM81.5993 31.8617C82.1649 31.3419 82.6148 30.7088 82.92 30.0037C83.2251 29.2985 83.3786 28.537 83.3706 27.7686C83.3833 27.0062 83.2317 26.2501 82.9261 25.5517C82.6204 24.8533 82.1679 24.229 81.5993 23.7215C81.047 23.1668 80.3868 22.7314 79.6595 22.4424C78.9323 22.1533 78.1535 22.0167 77.3714 22.041C76.6028 22.0205 75.8382 22.1592 75.1257 22.4484C74.4132 22.7376 73.7681 23.171 73.2308 23.7215C72.6824 24.2402 72.249 24.8686 71.959 25.5658C71.6689 26.2631 71.5285 27.0135 71.547 27.7686C71.5331 28.5298 71.6753 29.2858 71.9649 29.9898C72.2545 30.6938 72.6854 31.3309 73.2308 31.8617C73.7769 32.397 74.4247 32.8175 75.1358 33.0982C75.847 33.379 76.6071 33.5143 77.3714 33.4961C78.1523 33.5204 78.9301 33.3884 79.6593 33.1077C80.3885 32.827 81.0544 32.4034 81.6177 31.8617H81.5993Z" fill="white" />
        <path d="M112.147 19.1728C113.35 20.2529 114.305 21.5801 114.948 23.0636C115.592 24.5471 115.907 26.152 115.874 27.7688C115.903 29.391 115.586 31.0007 114.943 32.4903C114.3 33.9799 113.347 35.315 112.147 36.4062C109.722 38.7057 106.494 39.9634 103.153 39.91C99.7974 39.973 96.551 38.7148 94.113 36.4062C92.9274 35.3062 91.9868 33.9684 91.3526 32.4801C90.7185 30.9919 90.4049 29.3865 90.4325 27.7688C90.4003 26.1565 90.7119 24.5558 91.3465 23.0736C91.9812 21.5913 92.9243 20.2615 94.113 19.1728C95.3126 18.0156 96.7287 17.1068 98.28 16.4984C99.8313 15.8901 101.487 15.5941 103.153 15.6275C106.502 15.5698 109.737 16.8449 112.147 19.1728ZM98.9252 32.0645C99.4749 32.6257 100.134 33.0684 100.861 33.3653C101.588 33.6623 102.368 33.8071 103.153 33.791C103.938 33.8065 104.717 33.6613 105.443 33.3644C106.169 33.0675 106.827 32.6251 107.377 32.0645C107.938 31.5009 108.38 30.8302 108.677 30.0923C108.974 29.3544 109.12 28.5642 109.106 27.7688C109.122 26.983 108.978 26.2023 108.681 25.4746C108.384 24.7469 107.942 24.0877 107.381 23.5375C106.84 22.9627 106.185 22.5079 105.457 22.2025C104.73 21.8972 103.946 21.7481 103.158 21.7649C102.368 21.7477 101.584 21.8966 100.856 22.202C100.127 22.5073 99.4713 22.9623 98.9298 23.5375C98.369 24.0877 97.9266 24.7469 97.6299 25.4746C97.3332 26.2023 97.1885 26.983 97.2046 27.7688C97.1882 28.5603 97.3321 29.347 97.6279 30.0814C97.9236 30.8157 98.3649 31.4825 98.9252 32.0414V32.0645Z" fill="white" />
        <path d="M116.872 39.2247V16.3098H123.644V19.1735C124.596 17.1753 127.187 15.8125 130.32 15.8125C135.909 15.8125 139.088 19.3577 139.088 25.3155V39.2247H132.321V26.1443C132.321 23.4646 130.821 21.8256 128.139 21.8256C127.539 21.8053 126.941 21.9094 126.383 22.1315C125.825 22.3536 125.319 22.6888 124.897 23.1161C124.475 23.5433 124.146 24.0534 123.93 24.6141C123.715 25.1749 123.617 25.7742 123.644 26.3745V39.2385L116.872 39.2247Z" fill="white" />
        <path d="M139.93 27.7238C139.93 24.1325 141.113 21.2227 143.431 19.0403C145.75 16.8579 148.745 15.7207 152.333 15.7207C155.834 15.7207 158.65 16.8579 160.831 19.0864C161.908 20.174 162.754 21.4695 163.316 22.8941C163.879 24.3187 164.146 25.8428 164.102 27.3739C164.102 28.1474 164.056 28.8748 164.01 29.5562H146.679C146.813 32.2819 149.177 34.0591 152.766 34.0591C154.851 34.0869 156.861 33.2854 158.356 31.8307L162.308 35.6015C161.046 36.9473 159.517 38.0147 157.819 38.7354C156.122 39.4561 154.292 39.8142 152.448 39.7867C148.676 39.7867 145.676 38.6955 143.362 36.5638C141.048 34.4321 139.93 31.4992 139.93 27.9033V27.7238ZM157.288 25.1316C157.288 22.9953 155.062 21.3148 152.333 21.3148C149.38 21.3148 146.974 22.9953 146.79 25.1316H157.288Z" fill="white" />
        <path d="M20.0296 34.3348C17.0944 38.7502 12.7836 40.8773 8.35324 39.7953C3.3938 38.6029 1.1165 35.3983 0.532224 31.0474C0.501894 27.6985 1.34385 24.3995 2.97514 21.4753C3.10396 21.2543 3.23278 21.0149 3.36619 20.8123C3.49961 20.6097 3.70204 20.2782 3.87686 20.025C4.05168 19.7718 4.23571 19.5139 4.41973 19.2699C4.97838 18.5396 5.5937 17.8546 6.25997 17.2211C6.66022 16.8619 7.06967 16.5212 7.49293 16.2035L7.92539 15.8951C8.29343 15.6326 8.67528 15.3794 9.05713 15.1446C9.24576 15.0295 9.44358 14.9144 9.64141 14.8131C9.83923 14.7118 10.0325 14.6013 10.2349 14.5C10.1061 14.675 9.97265 14.8499 9.84844 15.0249L9.45278 15.5544C9.18135 15.9365 8.91912 16.3233 8.66608 16.7192C8.29803 17.2947 7.94839 17.8795 7.61255 18.4826C7.61428 18.4964 7.61428 18.5103 7.61255 18.524C7.50673 18.722 7.39632 18.92 7.2997 19.118C7.20309 19.316 7.08808 19.5278 6.98686 19.7349C6.88565 19.9421 6.78444 20.1539 6.68782 20.3657C4.03788 25.4303 3.13616 33.2574 7.87478 37.1019C7.95299 37.1617 8.045 37.2216 8.15082 37.2907C9.91284 38.4509 12.1901 38.6443 14.3386 38.0826C16.5181 37.4323 18.4628 36.1642 19.9375 34.4315L20.0296 34.3348Z" fill="white" />
    </g>
    <defs>
        <clipPath id="clip0_910_973">
            <rect width="163.579" height="47.842" fill="white" transform="translate(0.5 0.158203)" />
        </clipPath>
    </defs>
</svg>
