<svg viewBox="0 0 12 12" fill="none" xmlns="http://www.w3.org/2000/svg">
    <path d="M6 2.4375C5.59208 2.4375 5.19331 2.55846 4.85414 2.78509C4.51496 3.01172 4.25061 3.33384 4.0945 3.71072C3.93839 4.08759 3.89755 4.50229 3.97713 4.90237C4.05671 5.30246 4.25315 5.66996 4.54159 5.95841C4.83004 6.24685 5.19754 6.44329 5.59763 6.52287C5.99771 6.60245 6.41241 6.56161 6.78929 6.4055C7.16616 6.2494 7.48828 5.98504 7.71491 5.64586C7.94154 5.30669 8.0625 4.90792 8.0625 4.5C8.06188 3.95318 7.84438 3.42894 7.45772 3.04228C7.07106 2.65562 6.54682 2.43812 6 2.4375ZM6 6.1875C5.66624 6.1875 5.33998 6.08853 5.06248 5.90311C4.78497 5.71768 4.56868 5.45413 4.44095 5.14578C4.31323 4.83743 4.27981 4.49813 4.34493 4.17078C4.41004 3.84344 4.57076 3.54276 4.80676 3.30676C5.04276 3.07076 5.34344 2.91004 5.67079 2.84492C5.99813 2.77981 6.33743 2.81323 6.64578 2.94095C6.95413 3.06868 7.21768 3.28497 7.40311 3.56248C7.58853 3.83998 7.6875 4.16624 7.6875 4.5C7.687 4.9474 7.50906 5.37633 7.1927 5.69269C6.87634 6.00905 6.4474 6.187 6 6.1875Z" fill="#1D1D1D"/>
    <path d="M6 0C4.80694 0.0013647 3.66314 0.475909 2.81953 1.31953C1.97591 2.16314 1.50136 3.30694 1.5 4.5C1.5 7.73044 5.69201 11.7773 5.87036 11.948C5.90527 11.9814 5.95171 12 6 12C6.04829 12 6.09473 11.9814 6.12964 11.948C6.30799 11.7773 10.5 7.73044 10.5 4.5C10.4986 3.30694 10.0241 2.16314 9.18047 1.31953C8.33686 0.475909 7.19306 0.0013647 6 0ZM6 11.5489C5.28643 10.833 1.875 7.26452 1.875 4.5C1.875 3.40598 2.3096 2.35677 3.08318 1.58318C3.85677 0.809597 4.90598 0.375 6 0.375C7.09402 0.375 8.14323 0.809597 8.91682 1.58318C9.6904 2.35677 10.125 3.40598 10.125 4.5C10.125 7.26315 6.71357 10.8327 6 11.5489Z" fill="#1D1D1D"/>
</svg>