<svg viewBox="0 0 16 16" fill="none" xmlns="http://www.w3.org/2000/svg">
    <g clip-path="url(#clip0_1068_16431)">
        <path d="M16 15.5281L11.6164 11.1443C12.6889 9.95962 13.349 8.39446 13.349 6.67445C13.3484 2.99416 10.3543 0 6.67418 0C2.99404 0 0 2.99416 0 6.67445C0 10.3547 2.99404 13.3489 6.67418 13.3489C8.39411 13.3489 9.9592 12.6895 11.1439 11.6162L15.5275 16L16 15.5281ZM0.667418 6.67445C0.667418 3.36192 3.36178 0.667445 6.67418 0.667445C9.98657 0.667445 12.6809 3.36259 12.6809 6.67445C12.6809 9.98632 9.98657 12.6815 6.67418 12.6815C3.36178 12.6815 0.667418 9.98632 0.667418 6.67445Z" fill="#595959" />
        <path d="M7 4.625C6.72805 4.625 6.46221 4.70564 6.23609 4.85673C6.00997 5.00782 5.83374 5.22256 5.72967 5.47381C5.6256 5.72506 5.59837 6.00153 5.65142 6.26825C5.70448 6.53497 5.83543 6.77997 6.02773 6.97227C6.22003 7.16457 6.46503 7.29553 6.73175 7.34858C6.99847 7.40163 7.27494 7.3744 7.52619 7.27033C7.77744 7.16626 7.99218 6.99003 8.14327 6.76391C8.29436 6.53779 8.375 6.27195 8.375 6C8.37459 5.63545 8.22959 5.28596 7.97182 5.02818C7.71404 4.77041 7.36455 4.62541 7 4.625ZM7 7.125C6.7775 7.125 6.55999 7.05902 6.37498 6.9354C6.18998 6.81179 6.04578 6.63609 5.96064 6.43052C5.87549 6.22495 5.85321 5.99875 5.89662 5.78052C5.94003 5.56229 6.04717 5.36184 6.20451 5.2045C6.36184 5.04717 6.5623 4.94002 6.78052 4.89662C6.99875 4.85321 7.22495 4.87549 7.43052 4.96064C7.63609 5.04578 7.81179 5.18998 7.9354 5.37498C8.05902 5.55999 8.125 5.7775 8.125 6C8.12467 6.29827 8.00604 6.58422 7.79513 6.79513C7.58422 7.00604 7.29827 7.12467 7 7.125Z" fill="#1D1D1D" />
        <path d="M7 3C6.20463 3.00091 5.4421 3.31727 4.87968 3.87968C4.31727 4.4421 4.00091 5.20463 4 6C4 8.15363 6.79467 10.8516 6.91357 10.9653C6.93685 10.9876 6.9678 11 7 11C7.0322 11 7.06315 10.9876 7.08642 10.9653C7.20532 10.8516 10 8.15363 10 6C9.99909 5.20463 9.68273 4.4421 9.12032 3.87968C8.5579 3.31727 7.79537 3.00091 7 3ZM7 10.6993C6.52429 10.222 4.25 7.84301 4.25 6C4.25 5.27065 4.53973 4.57118 5.05546 4.05546C5.57118 3.53973 6.27065 3.25 7 3.25C7.72935 3.25 8.42882 3.53973 8.94454 4.05546C9.46027 4.57118 9.75 5.27065 9.75 6C9.75 7.8421 7.47571 10.2218 7 10.6993Z" fill="#1D1D1D" />
    </g>
    <defs>
        <clipPath id="clip0_1068_16431">
            <rect width="16" height="16" fill="white" />
        </clipPath>
    </defs>
</svg>