<svg  viewBox="0 0 149 22" fill="none" xmlns="http://www.w3.org/2000/svg">
    <path d="M11.4625 1.76758L14.1937 7.30075L20.3014 8.19349L15.8819 12.4981L16.9249 18.5792L11.4625 15.7066L6.00001 18.5792L7.043 12.4981L2.62354 8.19349L8.73124 7.30075L11.4625 1.76758Z" stroke="#2C2240" stroke-width="0.94282" stroke-linecap="round" stroke-linejoin="round" />
    <path d="M42.9703 1.76758L45.7015 7.30075L51.8092 8.19349L47.3898 12.4981L48.4328 18.5792L42.9703 15.7066L37.5078 18.5792L38.5508 12.4981L34.1313 8.19349L40.2391 7.30075L42.9703 1.76758Z" stroke="#2C2240" stroke-width="0.94282" stroke-linecap="round" stroke-linejoin="round" />
    <path d="M74.4786 1.76758L77.2098 7.30075L83.3175 8.19349L78.8981 12.4981L79.9411 18.5792L74.4786 15.7066L69.0161 18.5792L70.0591 12.4981L65.6396 8.19349L71.7474 7.30075L74.4786 1.76758Z" stroke="#2C2240" stroke-width="0.94282" stroke-linecap="round" stroke-linejoin="round" />
    <path d="M105.986 1.76758L108.718 7.30075L114.825 8.19349L110.406 12.4981L111.449 18.5792L105.986 15.7066L100.524 18.5792L101.567 12.4981L97.1475 8.19349L103.255 7.30075L105.986 1.76758Z" stroke="#2C2240" stroke-width="0.94282" stroke-linecap="round" stroke-linejoin="round" />
    <path d="M137.495 1.76758L140.226 7.30075L146.334 8.19349L141.914 12.4981L142.957 18.5792L137.495 15.7066L132.032 18.5792L133.075 12.4981L128.656 8.19349L134.763 7.30075L137.495 1.76758Z" stroke="#2C2240" stroke-width="0.94282" stroke-linecap="round" stroke-linejoin="round" />
</svg>