<svg width="842" height="459" viewBox="0 0 542 159" fill="none" xmlns="http://www.w3.org/2000/svg">
    <g clip-path="url(#clip0_1_853)">
        <path d="M135.987 0L128.152 38.6877C128.152 38.6877 127.634 41.3879 127.588 41.5557C121.186 74.3091 109.555 108.878 83.2295 131.319C64.3275 148.42 32.5599 154.415 13.0939 134.919C4.2374 126.071 0.228346 114.385 -0.000307494 102.379C-0.100803 91.2829 2.68892 80.3519 8.09402 70.6631C8.52084 69.9308 8.94766 69.1375 9.38972 68.4663C9.83179 67.795 10.5025 66.6967 11.0818 65.8576C11.661 65.0186 12.2708 64.1643 12.8805 63.3557C14.7315 60.936 16.7703 58.666 18.9779 56.5671C20.3041 55.3771 21.6608 54.2482 23.0632 53.1956L24.4961 52.1735C25.7156 51.3039 26.9503 50.4649 28.2308 49.7021C28.8557 49.3207 29.5112 48.9394 30.1667 48.6037C30.8222 48.2681 31.4624 47.902 32.1331 47.5664C31.7063 48.1461 31.2642 48.7258 30.8527 49.3055C29.4807 51.1514 28.185 53.0126 27.0113 54.9042C25.8375 56.7959 24.618 58.7486 23.5205 60.747C23.5262 60.7926 23.5262 60.8388 23.5205 60.8843C23.1547 61.5403 22.8041 62.1963 22.4839 62.8523C22.1638 63.5083 21.7827 64.21 21.4474 64.8965C21.112 65.583 20.7767 66.2848 20.4565 66.9865C11.6763 83.7675 8.68852 109.702 24.3894 122.44C24.6485 122.638 24.9534 122.837 25.304 123.065C31.1423 126.91 38.6878 127.55 45.8066 125.689C53.0484 123.534 59.5091 119.321 64.4037 113.561L64.7086 113.241C73.6413 103.203 79.5253 89.2441 83.0009 77.467C85.7067 67.5716 87.6534 57.4839 88.8239 47.2918L71.5225 47.1392L135.987 0Z" fill="#350ABC"/>
        <path d="M128.915 158.519V53.5158H151.353V63.4623C153.609 56.8262 162.496 52.1581 173.929 52.1581C178.956 52.0259 183.953 52.9811 188.578 54.9583C193.203 56.9355 197.347 59.8882 200.727 63.6149C204.287 67.3113 207.078 71.6785 208.939 76.463C210.799 81.2475 211.692 86.354 211.565 91.4865C211.793 101.894 207.897 111.969 200.727 119.511C197.308 123.19 193.147 126.099 188.519 128.046C183.89 129.992 178.902 130.931 173.883 130.8C162.45 130.8 153.563 126.132 151.307 119.511V158.519H128.915ZM183.563 105.125C185.377 103.356 186.807 101.232 187.764 98.8857C188.722 96.5392 189.185 94.0204 189.127 91.4865C189.188 88.9848 188.723 86.4982 187.762 84.1881C186.801 81.8779 185.365 79.7959 183.547 78.077C181.767 76.2531 179.63 74.817 177.269 73.8588C174.908 72.9006 172.375 72.441 169.828 72.5088C167.218 72.4433 164.621 72.9024 162.192 73.8588C159.762 74.8152 157.548 76.2495 155.682 78.077C153.846 79.7884 152.389 81.8659 151.404 84.1756C150.42 86.4852 149.93 88.9757 149.966 91.4865C149.945 94.0175 150.442 96.526 151.425 98.8582C152.408 101.19 153.857 103.297 155.682 105.049C159.508 108.661 164.6 110.623 169.859 110.51C172.392 110.562 174.909 110.105 177.263 109.167C179.617 108.229 181.759 106.829 183.563 105.049V105.125Z" fill="#350ABC"/>
        <path d="M273.286 63.4623V24.439H295.725V129.442H273.286V119.511C271.03 126.132 262.143 130.8 250.711 130.8C245.679 130.91 240.68 129.962 236.038 128.018C231.396 126.073 227.213 123.175 223.76 119.511C216.701 111.911 212.874 101.86 213.089 91.4865C212.847 81.1534 216.68 71.1404 223.76 63.6149C227.18 59.897 231.353 56.9519 236 54.9763C240.648 53.0006 245.663 52.0399 250.711 52.158C262.143 52.158 271.03 56.8262 273.286 63.4623ZM268.713 105.049C270.587 103.326 272.078 101.229 273.089 98.8923C274.1 96.5558 274.609 94.0325 274.582 91.4865C274.624 88.9605 274.122 86.4551 273.109 84.1411C272.096 81.827 270.597 79.7586 268.713 78.077C266.883 76.239 264.695 74.7965 262.286 73.8388C259.876 72.881 257.296 72.4283 254.704 72.5088C252.158 72.441 249.624 72.9006 247.264 73.8588C244.903 74.817 242.765 76.2531 240.985 78.077C239.168 79.7958 237.732 81.8779 236.771 84.1881C235.81 86.4982 235.345 88.9848 235.406 91.4865C235.36 94.0087 235.831 96.5137 236.791 98.8464C237.75 101.179 239.178 103.29 240.985 105.049C242.795 106.822 244.941 108.216 247.297 109.146C249.653 110.076 252.172 110.524 254.704 110.464C257.292 110.545 259.869 110.107 262.285 109.177C264.701 108.247 266.908 106.843 268.774 105.049H268.713Z" fill="#8C52FF"/>
        <path d="M369.931 63.0046C373.915 66.5836 377.081 70.9809 379.212 75.8963C381.343 80.8118 382.389 86.1295 382.278 91.4865C382.374 96.8616 381.323 102.195 379.193 107.131C377.064 112.066 373.906 116.49 369.931 120.106C361.895 127.725 351.198 131.892 340.13 131.715C329.011 131.924 318.254 127.755 310.176 120.106C306.248 116.461 303.131 112.028 301.03 107.097C298.929 102.166 297.89 96.8466 297.981 91.4865C297.874 86.1443 298.907 80.8408 301.01 75.9295C303.112 71.0182 306.237 66.6119 310.176 63.0046C314.151 59.1705 318.843 56.1592 323.983 54.1435C329.123 52.1277 334.61 51.1472 340.13 51.258C351.226 51.0665 361.945 55.2915 369.931 63.0046ZM326.121 105.72C327.942 107.579 330.125 109.046 332.534 110.03C334.943 111.014 337.528 111.494 340.13 111.441C342.729 111.492 345.311 111.011 347.717 110.027C350.123 109.043 352.303 107.577 354.123 105.72C355.982 103.852 357.448 101.63 358.432 99.1853C359.417 96.7402 359.901 94.1222 359.855 91.4865C359.908 88.8829 359.428 86.296 358.445 83.885C357.462 81.4739 355.997 79.2897 354.138 77.4667C352.347 75.5621 350.175 74.0552 347.765 73.0434C345.354 72.0317 342.758 71.5377 340.145 71.5934C337.529 71.5365 334.931 72.0299 332.517 73.0416C330.104 74.0534 327.93 75.5609 326.136 77.4667C324.278 79.2897 322.812 81.4739 321.829 83.885C320.846 86.296 320.366 88.8829 320.42 91.4865C320.365 94.1092 320.842 96.7159 321.822 99.149C322.802 101.582 324.264 103.791 326.121 105.643V105.72Z" fill="#8C52FF"/>
        <path d="M385.586 129.442V53.5158H408.024V63.0046C411.18 56.3838 419.762 51.8682 430.143 51.8682C448.664 51.8682 459.197 63.6148 459.197 83.3553V129.442H436.774V86.1013C436.774 77.2227 431.804 71.7917 422.917 71.7917C420.929 71.7245 418.949 72.0696 417.1 72.8055C415.252 73.5414 413.575 74.6521 412.177 76.0677C410.778 77.4833 409.687 79.1733 408.972 81.0313C408.258 82.8893 407.935 84.8752 408.024 86.8641V129.488L385.586 129.442Z" fill="#8C52FF"/>
        <path d="M461.986 91.3338C461.986 79.4346 465.904 69.7932 473.587 62.5621C481.269 55.3311 491.193 51.563 503.083 51.563C514.683 51.563 524.012 55.3311 531.238 62.7147C534.809 66.3185 537.61 70.6108 539.474 75.3311C541.337 80.0514 542.222 85.1013 542.076 90.1744C542.076 92.7373 541.924 95.1477 541.771 97.4055H484.349C484.791 106.437 492.626 112.325 504.516 112.325C511.423 112.417 518.085 109.762 523.037 104.942L536.131 117.436C531.95 121.895 526.885 125.432 521.26 127.82C515.635 130.207 509.574 131.394 503.464 131.303C490.964 131.303 481.026 127.687 473.358 120.624C465.69 113.561 461.986 103.843 461.986 91.9288V91.3338ZM519.5 82.7451C519.5 75.6665 512.122 70.0983 503.083 70.0983C493.297 70.0983 485.324 75.6665 484.714 82.7451H519.5Z" fill="#8C52FF"/>
        <path d="M64.7088 113.241C54.9834 127.871 40.7002 134.919 26.0207 131.334C9.58812 127.383 2.04256 116.765 0.106626 102.348C0.00613049 91.2523 2.79585 80.3213 8.20096 70.6325C8.62778 69.9002 9.0546 69.1069 9.49666 68.4357C9.93872 67.7644 10.6094 66.666 11.1887 65.827C11.768 64.988 12.3777 64.1337 12.9874 63.3251C14.8385 60.9054 16.8772 58.6354 19.0849 56.5365C20.4111 55.3465 21.7677 54.2176 23.1701 53.165L24.603 52.1429C25.8225 51.2733 27.0877 50.4343 28.3529 49.6563C28.9779 49.2749 29.6334 48.8935 30.2889 48.5579C30.9443 48.2223 31.5846 47.8561 32.2553 47.5205C31.8285 48.1002 31.3864 48.6799 30.9748 49.2596L29.6639 51.014C28.7645 52.2802 27.8956 53.5616 27.0572 54.8736C25.8378 56.7805 24.6792 58.718 23.5665 60.7164C23.5722 60.762 23.5722 60.8081 23.5665 60.8537C23.2159 61.5097 22.85 62.1657 22.5299 62.8217C22.2098 63.4777 21.8287 64.1794 21.4933 64.8659C21.158 65.5524 20.8226 66.2541 20.5025 66.9559C11.7222 83.7369 8.73448 109.671 24.4353 122.409C24.6945 122.608 24.9994 122.806 25.35 123.035C31.1882 126.879 38.7338 127.52 45.8526 125.659C53.0742 123.504 59.5176 119.302 64.404 113.561L64.7088 113.241Z" fill="#8C52FF"/>
    </g>
    <defs>
        <clipPath id="clip0_1_853">
            <rect width="542" height="158.519" fill="white"/>
        </clipPath>
    </defs>
</svg>