<svg viewBox="0 0 75 75" fill="none" xmlns="http://www.w3.org/2000/svg">
    <g filter="url(#filter0_d_530_1703)">
        <rect x="17" y="17" width="34" height="34" rx="17" fill="white"/>
        <path opacity="0.4" d="M37.1553 38.698C37.3099 38.698 37.4326 38.7434 37.5233 38.834C37.6139 38.9247 37.6593 39.042 37.6593 39.186V40.05H30.0113V39.562C30.0113 39.4607 30.0326 39.3567 30.0753 39.25C30.1179 39.1434 30.1846 39.0447 30.2753 38.954L33.9473 35.266C34.2513 34.9567 34.5286 34.6607 34.7793 34.378C35.0299 34.09 35.2433 33.802 35.4193 33.514C35.5953 33.226 35.7313 32.9354 35.8273 32.642C35.9233 32.3434 35.9713 32.026 35.9713 31.69C35.9713 31.354 35.9179 31.0607 35.8113 30.81C35.7046 30.554 35.5579 30.3434 35.3713 30.178C35.1899 30.0127 34.9739 29.89 34.7233 29.81C34.4726 29.7247 34.2033 29.682 33.9153 29.682C33.6219 29.682 33.3526 29.7247 33.1073 29.81C32.8619 29.8954 32.6433 30.0154 32.4513 30.17C32.2646 30.3194 32.1073 30.498 31.9793 30.706C31.8513 30.914 31.7606 31.1434 31.7073 31.394C31.6433 31.5807 31.5553 31.706 31.4433 31.77C31.3366 31.8287 31.1846 31.8447 30.9873 31.818L30.2433 31.69C30.3179 31.1674 30.4619 30.706 30.6753 30.306C30.8939 29.9007 31.1659 29.562 31.4913 29.29C31.8219 29.018 32.1979 28.8127 32.6193 28.674C33.0406 28.53 33.4966 28.458 33.9873 28.458C34.4726 28.458 34.9259 28.53 35.3473 28.674C35.7686 28.818 36.1339 29.0287 36.4433 29.306C36.7526 29.578 36.9953 29.9114 37.1713 30.306C37.3473 30.7007 37.4353 31.1487 37.4353 31.65C37.4353 32.0767 37.3713 32.474 37.2433 32.842C37.1153 33.2047 36.9419 33.5514 36.7233 33.882C36.5046 34.2127 36.2513 34.5354 35.9633 34.85C35.6806 35.1647 35.3793 35.482 35.0593 35.802L32.0353 38.89C32.2486 38.8314 32.4646 38.786 32.6833 38.754C32.9019 38.7167 33.1126 38.698 33.3153 38.698H37.1553Z" fill="#2C2240"/>
    </g>
    <defs>
        <filter id="filter0_d_530_1703" x="4.76837e-07" y="4.76837e-07" width="74.8" height="74.8" filterUnits="userSpaceOnUse" color-interpolation-filters="sRGB">
            <feFlood flood-opacity="0" result="BackgroundImageFix"/>
            <feColorMatrix in="SourceAlpha" type="matrix" values="0 0 0 0 0 0 0 0 0 0 0 0 0 0 0 0 0 0 127 0" result="hardAlpha"/>
            <feOffset dx="3.4" dy="3.4"/>
            <feGaussianBlur stdDeviation="10.2"/>
            <feComposite in2="hardAlpha" operator="out"/>
            <feColorMatrix type="matrix" values="0 0 0 0 0 0 0 0 0 0 0 0 0 0 0 0 0 0 0.08 0"/>
            <feBlend mode="normal" in2="BackgroundImageFix" result="effect1_dropShadow_530_1703"/>
            <feBlend mode="normal" in="SourceGraphic" in2="effect1_dropShadow_530_1703" result="shape"/>
        </filter>
    </defs>
</svg>