<svg  viewBox="0 0 75 75" fill="none" xmlns="http://www.w3.org/2000/svg">
<g filter="url(#filter0_d_530_1710)">
<rect x="17" y="17" width="34" height="34" rx="17" fill="white"/>
<path opacity="0.4" d="M30.2993 31.69C30.3739 31.1674 30.5179 30.706 30.7313 30.306C30.9446 29.9007 31.2139 29.562 31.5393 29.29C31.8699 29.018 32.2459 28.8127 32.6673 28.674C33.0939 28.53 33.5526 28.458 34.0433 28.458C34.5286 28.458 34.9766 28.5274 35.3873 28.666C35.7979 28.8047 36.1499 29.002 36.4433 29.258C36.7419 29.514 36.9739 29.8234 37.1393 30.186C37.3046 30.5487 37.3873 30.9514 37.3873 31.394C37.3873 31.7567 37.3393 32.082 37.2433 32.37C37.1526 32.6527 37.0193 32.9007 36.8433 33.114C36.6726 33.3274 36.4646 33.5087 36.2193 33.658C35.9739 33.8074 35.6993 33.93 35.3953 34.026C36.1419 34.218 36.7019 34.5487 37.0753 35.018C37.4539 35.482 37.6433 36.0634 37.6433 36.762C37.6433 37.29 37.5419 37.7647 37.3393 38.186C37.1419 38.6074 36.8699 38.9674 36.5233 39.266C36.1766 39.5594 35.7713 39.786 35.3073 39.946C34.8486 40.1007 34.3553 40.178 33.8273 40.178C33.2193 40.178 32.6993 40.1034 32.2673 39.954C31.8353 39.7994 31.4699 39.5887 31.1713 39.322C30.8726 39.0554 30.6273 38.7407 30.4353 38.378C30.2433 38.01 30.0806 37.6127 29.9473 37.186L30.5633 36.93C30.7233 36.8607 30.8779 36.842 31.0273 36.874C31.1819 36.906 31.2939 36.994 31.3633 37.138C31.4326 37.2874 31.5179 37.466 31.6193 37.674C31.7259 37.882 31.8699 38.082 32.0513 38.274C32.2326 38.466 32.4619 38.6287 32.7393 38.762C33.0219 38.8954 33.3793 38.962 33.8113 38.962C34.2113 38.962 34.5606 38.898 34.8593 38.77C35.1633 38.6367 35.4139 38.466 35.6113 38.258C35.8139 38.05 35.9659 37.818 36.0673 37.562C36.1686 37.306 36.2193 37.0527 36.2193 36.802C36.2193 36.4927 36.1793 36.21 36.0993 35.954C36.0193 35.698 35.8699 35.4767 35.6513 35.29C35.4326 35.1034 35.1313 34.9567 34.7473 34.85C34.3686 34.7434 33.8806 34.69 33.2833 34.69V33.658C33.7739 33.6527 34.1899 33.5994 34.5313 33.498C34.8779 33.3967 35.1579 33.258 35.3713 33.082C35.5899 32.906 35.7473 32.6954 35.8433 32.45C35.9446 32.2047 35.9953 31.9327 35.9953 31.634C35.9953 31.3034 35.9419 31.0154 35.8353 30.77C35.7339 30.5247 35.5926 30.322 35.4113 30.162C35.2299 30.002 35.0139 29.882 34.7633 29.802C34.5179 29.722 34.2513 29.682 33.9633 29.682C33.6753 29.682 33.4059 29.7247 33.1553 29.81C32.9099 29.8954 32.6913 30.0154 32.4993 30.17C32.3126 30.3194 32.1553 30.498 32.0273 30.706C31.8993 30.914 31.8086 31.1434 31.7553 31.394C31.6859 31.5807 31.5979 31.706 31.4913 31.77C31.3899 31.8287 31.2406 31.8447 31.0433 31.818L30.2993 31.69Z" fill="#2C2240"/>
</g>
<defs>
<filter id="filter0_d_530_1710" x="4.76837e-07" y="4.76837e-07" width="74.8" height="74.8" filterUnits="userSpaceOnUse" color-interpolation-filters="sRGB">
<feFlood flood-opacity="0" result="BackgroundImageFix"/>
<feColorMatrix in="SourceAlpha" type="matrix" values="0 0 0 0 0 0 0 0 0 0 0 0 0 0 0 0 0 0 127 0" result="hardAlpha"/>
<feOffset dx="3.4" dy="3.4"/>
<feGaussianBlur stdDeviation="10.2"/>
<feComposite in2="hardAlpha" operator="out"/>
<feColorMatrix type="matrix" values="0 0 0 0 0 0 0 0 0 0 0 0 0 0 0 0 0 0 0.08 0"/>
<feBlend mode="normal" in2="BackgroundImageFix" result="effect1_dropShadow_530_1710"/>
<feBlend mode="normal" in="SourceGraphic" in2="effect1_dropShadow_530_1710" result="shape"/>
</filter>
</defs>
</svg>
