<svg width="1143" height="151" viewBox="0 0 1143 151" fill="none" xmlns="http://www.w3.org/2000/svg">
    <g opacity="0.04">
        <path d="M56.8742 147L12.0742 6.99999H60.6742L96.8742 125.2H72.4742L110.874 6.99999H154.274L190.074 125.2H166.674L204.474 6.99999H249.274L204.474 147H153.874L124.674 50.2H138.274L107.474 147H56.8742ZM331.202 150.2C319.869 150.2 309.336 148.4 299.602 144.8C290.002 141.2 281.669 136.133 274.602 129.6C267.536 122.933 262.002 115.133 258.002 106.2C254.136 97.2667 252.202 87.5333 252.202 77C252.202 66.3333 254.136 56.6 258.002 47.8C262.002 38.8667 267.536 31.1333 274.602 24.6C281.669 17.9333 290.002 12.8 299.602 9.2C309.336 5.6 319.869 3.8 331.202 3.8C342.669 3.8 353.202 5.6 362.802 9.2C372.402 12.8 380.736 17.9333 387.802 24.6C394.869 31.1333 400.336 38.8667 404.202 47.8C408.202 56.6 410.202 66.3333 410.202 77C410.202 87.5333 408.202 97.2667 404.202 106.2C400.336 115.133 394.869 122.933 387.802 129.6C380.736 136.133 372.402 141.2 362.802 144.8C353.202 148.4 342.669 150.2 331.202 150.2ZM331.202 112C335.602 112 339.669 111.2 343.402 109.6C347.269 108 350.602 105.733 353.402 102.8C356.336 99.7333 358.602 96.0667 360.202 91.8C361.802 87.4 362.602 82.4667 362.602 77C362.602 71.5333 361.802 66.6667 360.202 62.4C358.602 58 356.336 54.3333 353.402 51.4C350.602 48.3333 347.269 46 343.402 44.4C339.669 42.8 335.602 42 331.202 42C326.802 42 322.669 42.8 318.802 44.4C315.069 46 311.736 48.3333 308.802 51.4C306.002 54.3333 303.802 58 302.202 62.4C300.602 66.6667 299.802 71.5333 299.802 77C299.802 82.4667 300.602 87.4 302.202 91.8C303.802 96.0667 306.002 99.7333 308.802 102.8C311.736 105.733 315.069 108 318.802 109.6C322.669 111.2 326.802 112 331.202 112ZM427.334 147V6.99999H494.734C507.8 6.99999 519.067 9.13332 528.534 13.4C538.134 17.6667 545.534 23.8 550.734 31.8C555.934 39.6667 558.534 49 558.534 59.8C558.534 70.6 555.934 79.9333 550.734 87.8C545.534 95.5333 538.134 101.467 528.534 105.6C519.067 109.733 507.8 111.8 494.734 111.8H453.534L474.534 92.4V147H427.334ZM511.134 147L476.734 96H526.734L561.534 147H511.134ZM474.534 97.6L453.534 76.2H491.734C498.267 76.2 503.067 74.7333 506.134 71.8C509.334 68.8667 510.934 64.8667 510.934 59.8C510.934 54.7333 509.334 50.7333 506.134 47.8C503.067 44.8667 498.267 43.4 491.734 43.4H453.534L474.534 22V97.6ZM618.557 117L615.957 65.2L668.757 6.99999H720.157L660.957 72.2L634.757 99L618.557 117ZM576.357 147V6.99999H622.757V147H576.357ZM668.357 147L627.157 92.6L657.757 60.2L722.957 147H668.357ZM772.487 59H834.887V93H772.487V59ZM775.687 111.4H845.687V147H729.287V6.99999H843.087V42.6H775.687V111.4ZM863.857 147V6.99999H931.257C944.324 6.99999 955.59 9.13332 965.057 13.4C974.657 17.6667 982.057 23.8 987.257 31.8C992.457 39.6667 995.057 49 995.057 59.8C995.057 70.6 992.457 79.9333 987.257 87.8C982.057 95.5333 974.657 101.467 965.057 105.6C955.59 109.733 944.324 111.8 931.257 111.8H890.057L911.057 92.4V147H863.857ZM947.657 147L913.257 96H963.257L998.057 147H947.657ZM911.057 97.6L890.057 76.2H928.257C934.79 76.2 939.59 74.7333 942.657 71.8C945.857 68.8667 947.457 64.8667 947.457 59.8C947.457 54.7333 945.857 50.7333 942.657 47.8C939.59 44.8667 934.79 43.4 928.257 43.4H890.057L911.057 22V97.6ZM1065.08 150.2C1053.35 150.2 1042.01 148.867 1031.08 146.2C1020.15 143.533 1011.15 140.067 1004.08 135.8L1019.28 101.4C1025.95 105.267 1033.35 108.4 1041.48 110.8C1049.75 113.067 1057.75 114.2 1065.48 114.2C1070.01 114.2 1073.55 113.933 1076.08 113.4C1078.75 112.733 1080.68 111.867 1081.88 110.8C1083.08 109.6 1083.68 108.2 1083.68 106.6C1083.68 104.067 1082.28 102.067 1079.48 100.6C1076.68 99.1333 1072.95 97.9333 1068.28 97C1063.75 95.9333 1058.75 94.8667 1053.28 93.8C1047.81 92.6 1042.28 91.0667 1036.68 89.2C1031.21 87.3333 1026.15 84.8667 1021.48 81.8C1016.95 78.7333 1013.28 74.7333 1010.48 69.8C1007.68 64.7333 1006.28 58.4667 1006.28 51C1006.28 42.3333 1008.68 34.4667 1013.48 27.4C1018.41 20.2 1025.68 14.4667 1035.28 10.2C1045.01 5.93333 1057.08 3.8 1071.48 3.8C1080.95 3.8 1090.28 4.79999 1099.48 6.79999C1108.68 8.79999 1116.95 11.8667 1124.28 16L1110.08 50.2C1103.15 46.7333 1096.41 44.1333 1089.88 42.4C1083.48 40.6667 1077.21 39.8 1071.08 39.8C1066.55 39.8 1062.95 40.2 1060.28 41C1057.61 41.8 1055.68 42.8667 1054.48 44.2C1053.41 45.5333 1052.88 47 1052.88 48.6C1052.88 51 1054.28 52.9333 1057.08 54.4C1059.88 55.7333 1063.55 56.8667 1068.08 57.8C1072.75 58.7333 1077.81 59.7333 1083.28 60.8C1088.88 61.8667 1094.41 63.3333 1099.88 65.2C1105.35 67.0667 1110.35 69.5333 1114.88 72.6C1119.55 75.6667 1123.28 79.6667 1126.08 84.6C1128.88 89.5333 1130.28 95.6667 1130.28 103C1130.28 111.533 1127.81 119.4 1122.88 126.6C1118.08 133.667 1110.88 139.4 1101.28 143.8C1091.68 148.067 1079.61 150.2 1065.08 150.2Z" fill="#0B0B0B"/>
    </g>
</svg>