<svg viewBox="0 0 77 12" fill="none" xmlns="http://www.w3.org/2000/svg">
    <path d="M3.11 11.36C2.47 10.7333 1.97 9.93667 1.61 8.97C1.25667 8.00333 1.08 6.96 1.08 5.84C1.08 4.69333 1.26667 3.62333 1.64 2.63C2.02 1.63 2.56 0.806667 3.26 0.16H4.21V0.249999C3.46333 0.949999 2.9 1.79333 2.52 2.78C2.14667 3.76 1.96 4.78 1.96 5.84C1.96 6.87333 2.13667 7.86 2.49 8.8C2.85 9.74 3.37333 10.5633 4.06 11.27V11.36H3.11Z" fill="#BC0A0A"/>
    <path d="M12.25 3.25L6.75 8.75" stroke="#BC0A0A" stroke-width="0.8" stroke-linecap="round" stroke-linejoin="round"/>
    <path d="M6.75 3.25L12.25 8.75" stroke="#BC0A0A" stroke-width="0.916667" stroke-linecap="round" stroke-linejoin="round"/>
    <path d="M23.25 9.5H22.34L18.68 3.95V9.5H17.77V2.52H18.68L22.34 8.06V2.52H23.25V9.5ZM26.9913 9.59C26.4779 9.59 26.0113 9.47333 25.5913 9.24C25.1779 9.00667 24.8513 8.67667 24.6113 8.25C24.3779 7.81667 24.2613 7.31667 24.2613 6.75C24.2613 6.19 24.3813 5.69667 24.6213 5.27C24.8679 4.83667 25.2013 4.50667 25.6213 4.28C26.0413 4.04667 26.5113 3.93 27.0313 3.93C27.5513 3.93 28.0213 4.04667 28.4413 4.28C28.8613 4.50667 29.1913 4.83333 29.4313 5.26C29.6779 5.68667 29.8013 6.18333 29.8013 6.75C29.8013 7.31667 29.6746 7.81667 29.4213 8.25C29.1746 8.67667 28.8379 9.00667 28.4113 9.24C27.9846 9.47333 27.5113 9.59 26.9913 9.59ZM26.9913 8.79C27.3179 8.79 27.6246 8.71333 27.9113 8.56C28.1979 8.40667 28.4279 8.17667 28.6013 7.87C28.7813 7.56333 28.8713 7.19 28.8713 6.75C28.8713 6.31 28.7846 5.93667 28.6113 5.63C28.4379 5.32333 28.2113 5.09667 27.9313 4.95C27.6513 4.79667 27.3479 4.72 27.0213 4.72C26.6879 4.72 26.3813 4.79667 26.1013 4.95C25.8279 5.09667 25.6079 5.32333 25.4413 5.63C25.2746 5.93667 25.1913 6.31 25.1913 6.75C25.1913 7.19667 25.2713 7.57333 25.4313 7.88C25.5979 8.18667 25.8179 8.41667 26.0913 8.57C26.3646 8.71667 26.6646 8.79 26.9913 8.79ZM31.9077 4.77V8C31.9077 8.26667 31.9644 8.45667 32.0777 8.57C32.1911 8.67667 32.3877 8.73 32.6677 8.73H33.3377V9.5H32.5177C32.0111 9.5 31.6311 9.38333 31.3777 9.15C31.1244 8.91667 30.9977 8.53333 30.9977 8V4.77H30.2877V4.02H30.9977V2.64H31.9077V4.02H33.3377V4.77H31.9077ZM42.4663 2.53L39.8363 9.5H38.7863L36.1563 2.53H37.1263L39.3163 8.54L41.5063 2.53H42.4663ZM48.2641 6.55C48.2641 6.72333 48.2541 6.90667 48.2341 7.1H43.8541C43.8875 7.64 44.0708 8.06333 44.4041 8.37C44.7441 8.67 45.1541 8.82 45.6341 8.82C46.0275 8.82 46.3541 8.73 46.6141 8.55C46.8808 8.36333 47.0675 8.11667 47.1741 7.81H48.1541C48.0075 8.33667 47.7141 8.76667 47.2741 9.1C46.8341 9.42667 46.2875 9.59 45.6341 9.59C45.1141 9.59 44.6475 9.47333 44.2341 9.24C43.8275 9.00667 43.5075 8.67667 43.2741 8.25C43.0408 7.81667 42.9241 7.31667 42.9241 6.75C42.9241 6.18333 43.0375 5.68667 43.2641 5.26C43.4908 4.83333 43.8075 4.50667 44.2141 4.28C44.6275 4.04667 45.1008 3.93 45.6341 3.93C46.1541 3.93 46.6141 4.04333 47.0141 4.27C47.4141 4.49667 47.7208 4.81 47.9341 5.21C48.1541 5.60333 48.2641 6.05 48.2641 6.55ZM47.3241 6.36C47.3241 6.01333 47.2475 5.71667 47.0941 5.47C46.9408 5.21667 46.7308 5.02667 46.4641 4.9C46.2041 4.76667 45.9141 4.7 45.5941 4.7C45.1341 4.7 44.7408 4.84667 44.4141 5.14C44.0941 5.43333 43.9108 5.84 43.8641 6.36H47.3241ZM50.1753 4.91C50.3353 4.59667 50.562 4.35333 50.8553 4.18C51.1553 4.00667 51.5186 3.92 51.9453 3.92V4.86H51.7053C50.6853 4.86 50.1753 5.41333 50.1753 6.52V9.5H49.2653V4.02H50.1753V4.91ZM53.2658 3.13C53.0924 3.13 52.9458 3.07 52.8258 2.95C52.7058 2.83 52.6458 2.68333 52.6458 2.51C52.6458 2.33667 52.7058 2.19 52.8258 2.07C52.9458 1.95 53.0924 1.89 53.2658 1.89C53.4324 1.89 53.5724 1.95 53.6858 2.07C53.8058 2.19 53.8658 2.33667 53.8658 2.51C53.8658 2.68333 53.8058 2.83 53.6858 2.95C53.5724 3.07 53.4324 3.13 53.2658 3.13ZM53.7058 4.02V9.5H52.7958V4.02H53.7058ZM57.2867 4.77H56.1367V9.5H55.2267V4.77H54.5167V4.02H55.2267V3.63C55.2267 3.01667 55.3834 2.57 55.6967 2.29C56.0167 2.00333 56.5267 1.86 57.2267 1.86V2.62C56.8267 2.62 56.5434 2.7 56.3767 2.86C56.2167 3.01333 56.1367 3.27 56.1367 3.63V4.02H57.2867V4.77ZM58.6177 3.13C58.4444 3.13 58.2977 3.07 58.1777 2.95C58.0577 2.83 57.9977 2.68333 57.9977 2.51C57.9977 2.33667 58.0577 2.19 58.1777 2.07C58.2977 1.95 58.4444 1.89 58.6177 1.89C58.7844 1.89 58.9244 1.95 59.0377 2.07C59.1577 2.19 59.2177 2.33667 59.2177 2.51C59.2177 2.68333 59.1577 2.83 59.0377 2.95C58.9244 3.07 58.7844 3.13 58.6177 3.13ZM59.0577 4.02V9.5H58.1477V4.02H59.0577ZM65.4087 6.55C65.4087 6.72333 65.3987 6.90667 65.3787 7.1H60.9987C61.032 7.64 61.2153 8.06333 61.5487 8.37C61.8887 8.67 62.2987 8.82 62.7787 8.82C63.172 8.82 63.4987 8.73 63.7587 8.55C64.0253 8.36333 64.212 8.11667 64.3187 7.81H65.2987C65.152 8.33667 64.8587 8.76667 64.4187 9.1C63.9787 9.42667 63.432 9.59 62.7787 9.59C62.2587 9.59 61.792 9.47333 61.3787 9.24C60.972 9.00667 60.652 8.67667 60.4187 8.25C60.1853 7.81667 60.0687 7.31667 60.0687 6.75C60.0687 6.18333 60.182 5.68667 60.4087 5.26C60.6353 4.83333 60.952 4.50667 61.3587 4.28C61.772 4.04667 62.2453 3.93 62.7787 3.93C63.2987 3.93 63.7587 4.04333 64.1587 4.27C64.5587 4.49667 64.8653 4.81 65.0787 5.21C65.2987 5.60333 65.4087 6.05 65.4087 6.55ZM64.4687 6.36C64.4687 6.01333 64.392 5.71667 64.2387 5.47C64.0853 5.21667 63.8753 5.02667 63.6087 4.9C63.3487 4.76667 63.0587 4.7 62.7387 4.7C62.2787 4.7 61.8853 4.84667 61.5587 5.14C61.2387 5.43333 61.0553 5.84 61.0087 6.36H64.4687ZM66.0698 6.74C66.0698 6.18 66.1832 5.69 66.4098 5.27C66.6365 4.84333 66.9465 4.51333 67.3398 4.28C67.7398 4.04667 68.1865 3.93 68.6798 3.93C69.1065 3.93 69.5032 4.03 69.8698 4.23C70.2365 4.42333 70.5165 4.68 70.7098 5V2.1H71.6298V9.5H70.7098V8.47C70.5298 8.79667 70.2632 9.06667 69.9098 9.28C69.5565 9.48667 69.1432 9.59 68.6698 9.59C68.1832 9.59 67.7398 9.47 67.3398 9.23C66.9465 8.99 66.6365 8.65333 66.4098 8.22C66.1832 7.78667 66.0698 7.29333 66.0698 6.74ZM70.7098 6.75C70.7098 6.33667 70.6265 5.97667 70.4598 5.67C70.2932 5.36333 70.0665 5.13 69.7798 4.97C69.4998 4.80333 69.1898 4.72 68.8498 4.72C68.5098 4.72 68.1998 4.8 67.9198 4.96C67.6398 5.12 67.4165 5.35333 67.2498 5.66C67.0832 5.96667 66.9998 6.32667 66.9998 6.74C66.9998 7.16 67.0832 7.52667 67.2498 7.84C67.4165 8.14667 67.6398 8.38333 67.9198 8.55C68.1998 8.71 68.5098 8.79 68.8498 8.79C69.1898 8.79 69.4998 8.71 69.7798 8.55C70.0665 8.38333 70.2932 8.14667 70.4598 7.84C70.6265 7.52667 70.7098 7.16333 70.7098 6.75Z" fill="#BC0A0A"/>
    <path d="M73.89 11.36C74.53 10.7333 75.03 9.93667 75.39 8.97C75.7433 8.00333 75.92 6.96 75.92 5.84C75.92 4.69333 75.7333 3.62333 75.36 2.63C74.98 1.63 74.44 0.806667 73.74 0.16H72.79V0.249999C73.5367 0.949999 74.1 1.79333 74.48 2.78C74.8533 3.76 75.04 4.78 75.04 5.84C75.04 6.87333 74.8633 7.86 74.51 8.8C74.15 9.74 73.6267 10.5633 72.94 11.27V11.36H73.89Z" fill="#BC0A0A"/>
</svg>