<svg viewBox="0 0 14 14" fill="none" xmlns="http://www.w3.org/2000/svg">
    <path d="M13.6665 10.28V12.28C13.6672 12.4657 13.6292 12.6494 13.5548 12.8195C13.4804 12.9897 13.3713 13.1424 13.2345 13.2679C13.0977 13.3934 12.9362 13.489 12.7603 13.5485C12.5844 13.6079 12.398 13.63 12.2131 13.6133C10.1617 13.3904 8.19112 12.6894 6.45979 11.5666C4.84901 10.5431 3.48335 9.17743 2.45979 7.56665C1.33311 5.82745 0.631955 3.84731 0.413126 1.78665C0.396466 1.60229 0.418376 1.41649 0.47746 1.24107C0.536543 1.06564 0.631507 0.904443 0.756303 0.767731C0.8811 0.631019 1.033 0.521789 1.20232 0.446998C1.37164 0.372206 1.55469 0.333491 1.73979 0.333317H3.73979C4.06333 0.330132 4.37699 0.444702 4.6223 0.655672C4.86761 0.866641 5.02784 1.15961 5.07313 1.47998C5.15754 2.12003 5.31409 2.74847 5.53979 3.35332C5.62949 3.59193 5.6489 3.85126 5.59573 4.10057C5.54256 4.34988 5.41903 4.57872 5.23979 4.75998L4.39313 5.60665C5.34216 7.27568 6.7241 8.65761 8.39313 9.60665L9.23979 8.75998C9.42105 8.58074 9.64989 8.45722 9.8992 8.40405C10.1485 8.35087 10.4078 8.37029 10.6465 8.45998C11.2513 8.68568 11.8797 8.84223 12.5198 8.92665C12.8436 8.97234 13.1394 9.13545 13.3508 9.38498C13.5622 9.63451 13.6746 9.95303 13.6665 10.28Z" stroke="black" stroke-width="0.666667" stroke-linecap="round" stroke-linejoin="round" />
</svg>