<svg  viewBox="0 0 58 12" fill="none" xmlns="http://www.w3.org/2000/svg">
    <path d="M3.11 11.36C2.47 10.7333 1.97 9.93667 1.61 8.97C1.25667 8.00333 1.08 6.96 1.08 5.84C1.08 4.69333 1.26667 3.62333 1.64 2.63C2.02 1.63 2.56 0.806667 3.26 0.16H4.21V0.249999C3.46333 0.949999 2.9 1.79333 2.52 2.78C2.14667 3.76 1.96 4.78 1.96 5.84C1.96 6.87333 2.13667 7.86 2.49 8.8C2.85 9.74 3.37333 10.5633 4.06 11.27V11.36H3.11Z" fill="#0C9000" />
    <path d="M9.50016 10.5833C9.50016 10.5833 13.1668 8.74996 13.1668 5.99996V2.79163L9.50016 1.41663L5.8335 2.79163V5.99996C5.8335 8.74996 9.50016 10.5833 9.50016 10.5833Z" stroke="#0C9000" stroke-width="0.8" stroke-linecap="round" stroke-linejoin="round" />
    <path d="M23.53 2.53L20.9 9.5H19.85L17.22 2.53H18.19L20.38 8.54L22.57 2.53H23.53ZM29.3278 6.55C29.3278 6.72333 29.3178 6.90667 29.2978 7.1H24.9178C24.9511 7.64 25.1345 8.06333 25.4678 8.37C25.8078 8.67 26.2178 8.82 26.6978 8.82C27.0911 8.82 27.4178 8.73 27.6778 8.55C27.9445 8.36333 28.1311 8.11667 28.2378 7.81H29.2178C29.0711 8.33667 28.7778 8.76667 28.3378 9.1C27.8978 9.42667 27.3511 9.59 26.6978 9.59C26.1778 9.59 25.7111 9.47333 25.2978 9.24C24.8911 9.00667 24.5711 8.67667 24.3378 8.25C24.1045 7.81667 23.9878 7.31667 23.9878 6.75C23.9878 6.18333 24.1011 5.68667 24.3278 5.26C24.5545 4.83333 24.8711 4.50667 25.2778 4.28C25.6911 4.04667 26.1645 3.93 26.6978 3.93C27.2178 3.93 27.6778 4.04333 28.0778 4.27C28.4778 4.49667 28.7845 4.81 28.9978 5.21C29.2178 5.60333 29.3278 6.05 29.3278 6.55ZM28.3878 6.36C28.3878 6.01333 28.3111 5.71667 28.1578 5.47C28.0045 5.21667 27.7945 5.02667 27.5278 4.9C27.2678 4.76667 26.9778 4.7 26.6578 4.7C26.1978 4.7 25.8045 4.84667 25.4778 5.14C25.1578 5.43333 24.9745 5.84 24.9278 6.36H28.3878ZM31.239 4.91C31.399 4.59667 31.6257 4.35333 31.919 4.18C32.219 4.00667 32.5823 3.92 33.009 3.92V4.86H32.769C31.749 4.86 31.239 5.41333 31.239 6.52V9.5H30.329V4.02H31.239V4.91ZM34.3295 3.13C34.1561 3.13 34.0095 3.07 33.8895 2.95C33.7695 2.83 33.7095 2.68333 33.7095 2.51C33.7095 2.33667 33.7695 2.19 33.8895 2.07C34.0095 1.95 34.1561 1.89 34.3295 1.89C34.4961 1.89 34.6361 1.95 34.7495 2.07C34.8695 2.19 34.9295 2.33667 34.9295 2.51C34.9295 2.68333 34.8695 2.83 34.7495 2.95C34.6361 3.07 34.4961 3.13 34.3295 3.13ZM34.7695 4.02V9.5H33.8595V4.02H34.7695ZM38.3504 4.77H37.2004V9.5H36.2904V4.77H35.5804V4.02H36.2904V3.63C36.2904 3.01667 36.4471 2.57 36.7604 2.29C37.0804 2.00333 37.5904 1.86 38.2904 1.86V2.62C37.8904 2.62 37.6071 2.7 37.4404 2.86C37.2804 3.01333 37.2004 3.27 37.2004 3.63V4.02H38.3504V4.77ZM39.6814 3.13C39.5081 3.13 39.3614 3.07 39.2414 2.95C39.1214 2.83 39.0614 2.68333 39.0614 2.51C39.0614 2.33667 39.1214 2.19 39.2414 2.07C39.3614 1.95 39.5081 1.89 39.6814 1.89C39.8481 1.89 39.9881 1.95 40.1014 2.07C40.2214 2.19 40.2814 2.33667 40.2814 2.51C40.2814 2.68333 40.2214 2.83 40.1014 2.95C39.9881 3.07 39.8481 3.13 39.6814 3.13ZM40.1214 4.02V9.5H39.2114V4.02H40.1214ZM46.4723 6.55C46.4723 6.72333 46.4623 6.90667 46.4423 7.1H42.0623C42.0957 7.64 42.279 8.06333 42.6123 8.37C42.9523 8.67 43.3623 8.82 43.8423 8.82C44.2357 8.82 44.5623 8.73 44.8223 8.55C45.089 8.36333 45.2757 8.11667 45.3823 7.81H46.3623C46.2157 8.33667 45.9223 8.76667 45.4823 9.1C45.0423 9.42667 44.4957 9.59 43.8423 9.59C43.3223 9.59 42.8557 9.47333 42.4423 9.24C42.0357 9.00667 41.7157 8.67667 41.4823 8.25C41.249 7.81667 41.1323 7.31667 41.1323 6.75C41.1323 6.18333 41.2457 5.68667 41.4723 5.26C41.699 4.83333 42.0157 4.50667 42.4223 4.28C42.8357 4.04667 43.309 3.93 43.8423 3.93C44.3623 3.93 44.8223 4.04333 45.2223 4.27C45.6223 4.49667 45.929 4.81 46.1423 5.21C46.3623 5.60333 46.4723 6.05 46.4723 6.55ZM45.5323 6.36C45.5323 6.01333 45.4557 5.71667 45.3023 5.47C45.149 5.21667 44.939 5.02667 44.6723 4.9C44.4123 4.76667 44.1223 4.7 43.8023 4.7C43.3423 4.7 42.949 4.84667 42.6223 5.14C42.3023 5.43333 42.119 5.84 42.0723 6.36H45.5323ZM47.1335 6.74C47.1335 6.18 47.2468 5.69 47.4735 5.27C47.7002 4.84333 48.0102 4.51333 48.4035 4.28C48.8035 4.04667 49.2502 3.93 49.7435 3.93C50.1702 3.93 50.5668 4.03 50.9335 4.23C51.3002 4.42333 51.5802 4.68 51.7735 5V2.1H52.6935V9.5H51.7735V8.47C51.5935 8.79667 51.3268 9.06667 50.9735 9.28C50.6202 9.48667 50.2068 9.59 49.7335 9.59C49.2468 9.59 48.8035 9.47 48.4035 9.23C48.0102 8.99 47.7002 8.65333 47.4735 8.22C47.2468 7.78667 47.1335 7.29333 47.1335 6.74ZM51.7735 6.75C51.7735 6.33667 51.6902 5.97667 51.5235 5.67C51.3568 5.36333 51.1302 5.13 50.8435 4.97C50.5635 4.80333 50.2535 4.72 49.9135 4.72C49.5735 4.72 49.2635 4.8 48.9835 4.96C48.7035 5.12 48.4802 5.35333 48.3135 5.66C48.1468 5.96667 48.0635 6.32667 48.0635 6.74C48.0635 7.16 48.1468 7.52667 48.3135 7.84C48.4802 8.14667 48.7035 8.38333 48.9835 8.55C49.2635 8.71 49.5735 8.79 49.9135 8.79C50.2535 8.79 50.5635 8.71 50.8435 8.55C51.1302 8.38333 51.3568 8.14667 51.5235 7.84C51.6902 7.52667 51.7735 7.16333 51.7735 6.75Z" fill="#0C9000" />
    <path d="M54.89 11.36C55.53 10.7333 56.03 9.93667 56.39 8.97C56.7433 8.00333 56.92 6.96 56.92 5.84C56.92 4.69333 56.7333 3.62333 56.36 2.63C55.98 1.63 55.44 0.806667 54.74 0.16H53.79V0.249999C54.5367 0.949999 55.1 1.79333 55.48 2.78C55.8533 3.76 56.04 4.78 56.04 5.84C56.04 6.87333 55.8633 7.86 55.51 8.8C55.15 9.74 54.6267 10.5633 53.94 11.27V11.36H54.89Z" fill="#0C9000" />
</svg>