<svg xmlns="http://www.w3.org/2000/svg" viewBox="0 0 14 15" fill="none">
    <g clip-path="url(#clip0_628_1848)">
        <path d="M12.8338 10.7444V12.4944C12.8345 12.6569 12.8012 12.8177 12.7361 12.9665C12.671 13.1154 12.5756 13.249 12.4559 13.3588C12.3362 13.4687 12.1948 13.5523 12.0409 13.6043C11.887 13.6564 11.724 13.6757 11.5622 13.6611C9.76714 13.466 8.04291 12.8527 6.52799 11.8702C5.11856 10.9746 3.9236 9.77967 3.02799 8.37024C2.04214 6.84844 1.42863 5.11582 1.23716 3.31274C1.22258 3.15143 1.24175 2.98885 1.29345 2.83535C1.34515 2.68186 1.42824 2.54081 1.53744 2.42118C1.64663 2.30156 1.77954 2.20599 1.9277 2.14054C2.07586 2.0751 2.23602 2.04122 2.39799 2.04107H4.14799C4.43109 2.03829 4.70554 2.13853 4.92018 2.32313C5.13483 2.50773 5.27503 2.76408 5.31466 3.04441C5.38852 3.60444 5.5255 4.15433 5.72299 4.68357C5.80147 4.89236 5.81846 5.11927 5.77194 5.33742C5.72541 5.55557 5.61733 5.7558 5.46049 5.91441L4.71966 6.65524C5.55006 8.11564 6.75925 9.32483 8.21966 10.1552L8.96049 9.41441C9.11909 9.25757 9.31933 9.14948 9.53748 9.10296C9.75562 9.05644 9.98253 9.07342 10.1913 9.15191C10.7206 9.34939 11.2705 9.48638 11.8305 9.56024C12.1139 9.60021 12.3726 9.74294 12.5576 9.96128C12.7426 10.1796 12.8409 10.4583 12.8338 10.7444Z" stroke="#9F9F9F" stroke-width="0.7" stroke-linecap="round" stroke-linejoin="round" />
    </g>
    <defs>
        <clipPath id="clip0_628_1848">
            <rect width="14" height="14" fill="white" transform="translate(0 0.874512)" />
        </clipPath>
    </defs>
</svg>