<svg xmlns="http://www.w3.org/2000/svg" width="39" height="39" viewBox="0 0 39 39" fill="none">
  <path d="M32.1328 15.8592L29.5418 13.2685L29.6272 12.91L32.4604 12.0719C32.6756 12.0083 32.8235 11.8104 32.8235 11.586C32.8235 11.3615 32.6756 11.1637 32.4604 11.1001L29.6272 10.2619L29.0097 7.66867C28.9552 7.44029 28.7514 7.2793 28.5168 7.2793C28.2823 7.2793 28.0785 7.44029 28.024 7.66867L27.407 10.2619L26.7344 10.4609L22.6876 6.41467C21.9395 5.66632 20.9445 5.25415 19.8867 5.25415C18.8284 5.25415 17.8338 5.66632 17.0857 6.41467L7.64066 15.8592C6.09596 17.4036 6.09596 19.9172 7.64066 21.4617L8.11363 21.9346L7.55744 23.9086C7.26547 25.4457 5.47985 28.0886 5.46199 28.1151C5.32544 28.3162 5.35065 28.5862 5.52279 28.758L11.1407 34.376C11.2386 34.4739 11.3683 34.5244 11.4989 34.5244C11.5939 34.5244 11.6899 34.4977 11.774 34.443L14.7928 32.489C15.568 31.9871 16.3101 31.433 17.0207 30.8414L17.0856 30.9062C17.8337 31.6545 18.8282 32.0664 19.8865 32.0664C20.9445 32.0664 21.9394 31.6545 22.6875 30.9062L32.1325 21.4617C33.677 19.917 33.677 17.4039 32.1328 15.8592ZM27.9755 11.1505C28.1496 11.0991 28.2828 10.9585 28.3248 10.7819L28.5168 9.97464L28.7094 10.7819C28.7514 10.9586 28.8846 11.0991 29.0587 11.1505L30.5307 11.586L29.0587 12.0214C28.8846 12.0729 28.7514 12.2135 28.7094 12.39L28.5168 13.1973L28.3248 12.39C28.2828 12.2133 28.1496 12.0729 27.9755 12.0214L26.5035 11.586L27.9755 11.1505ZM14.242 31.6386L11.5677 33.3698L6.53118 28.3333C7.05267 27.5232 8.28577 25.5023 8.54303 24.1407L10.7033 16.4729C10.7879 16.0285 11.1823 15.7233 11.6414 15.7684C11.8755 15.7907 12.0863 15.9034 12.2347 16.0861C12.3777 16.2617 12.4455 16.4809 12.4268 16.7056L11.4194 21.0711C11.369 21.2915 11.4698 21.5187 11.6678 21.6282C11.8642 21.7378 12.1111 21.7035 12.2715 21.5434L19.5454 14.2696C19.8289 13.9864 20.3202 13.9873 20.6028 14.2696C20.7438 14.4109 20.822 14.5987 20.822 14.7984C20.822 14.9982 20.7438 15.1861 20.6028 15.3273C20.6028 15.3273 20.6028 15.3274 20.6027 15.3274L15.2512 20.6792C15.0533 20.8771 15.0533 21.1978 15.2512 21.3957C15.449 21.5935 15.7697 21.5935 15.9676 21.3957L22.7977 14.5653C23.0897 14.2738 23.5637 14.2738 23.8556 14.5653C23.9966 14.7065 24.0744 14.8944 24.0744 15.0942C24.0744 15.2939 23.9967 15.4817 23.8556 15.623L22.0704 17.4081C22.0701 17.4083 22.0698 17.4086 22.0694 17.4088L17.025 22.4532C16.8272 22.6511 16.8272 22.9718 17.025 23.1696C17.1239 23.2686 17.2536 23.3181 17.3832 23.3181C17.5128 23.3181 17.6425 23.2686 17.7414 23.1696L22.7864 18.1249C23.0844 17.8275 23.5689 17.8276 23.8675 18.1253C24.1655 18.4234 24.1655 18.9088 23.8675 19.2069L22.4129 20.6615L18.5511 24.5231C18.3532 24.7209 18.3532 25.0416 18.5511 25.2395C18.7489 25.4373 19.0697 25.4373 19.2675 25.2395L19.539 24.968C19.5392 24.9678 19.5395 24.9678 19.5396 24.9675L23.1293 21.3778C23.405 21.1019 23.8864 21.1012 24.1629 21.3781C24.301 21.5159 24.3771 21.6994 24.3771 21.8946C24.3771 22.0898 24.3009 22.2733 24.1629 22.4114L17.8691 28.7053C16.7685 29.8058 15.5483 30.7927 14.242 31.6386ZM31.4162 20.7452L21.9712 30.1897C21.4141 30.7466 20.6739 31.0531 19.8867 31.0531C19.0989 31.0531 18.3588 30.7466 17.8021 30.1895L17.7896 30.177C18.0603 29.9308 18.327 29.6806 18.5854 29.422L24.8792 23.1281C25.2088 22.7985 25.3903 22.3606 25.3903 21.8949C25.3903 21.4287 25.2087 20.9908 24.8792 20.6619C24.6964 20.4787 24.4743 20.3518 24.2369 20.2704L24.5838 19.9234C25.2771 19.2302 25.2771 18.1021 24.5838 17.4086C24.3894 17.2145 24.1594 17.0806 23.9159 16.9954L24.5719 16.3394C24.9044 16.0069 25.0875 15.5646 25.0875 15.0942C25.0875 14.6237 24.9044 14.1814 24.5719 13.8486C23.8836 13.1616 22.7674 13.1628 22.0812 13.8489L21.7259 14.2042C21.641 13.9668 21.509 13.7428 21.3193 13.5532C20.6548 12.888 19.4945 12.887 18.829 13.5532L12.8045 19.5777L13.422 16.9017C13.4264 16.8824 13.4295 16.863 13.4319 16.8438C13.4877 16.3379 13.3423 15.8418 13.0212 15.4468C12.7001 15.0519 12.2444 14.8077 11.7377 14.7595C10.7599 14.6674 9.89064 15.322 9.71799 16.2408L8.4289 20.8167L8.35734 20.7451C7.20796 19.5955 7.20796 17.7251 8.35734 16.5755L17.8024 7.13097C18.3591 6.57414 19.0992 6.26736 19.8869 6.26736C20.6742 6.26736 21.4144 6.57414 21.9715 7.13097L25.6287 10.7878L24.5736 11.0999C24.3584 11.1635 24.2104 11.3614 24.2104 11.5858C24.2104 11.8103 24.3584 12.0081 24.5736 12.0717L27.4072 12.9099L28.0242 15.5031C28.0787 15.7315 28.2825 15.8925 28.5171 15.8925C28.7517 15.8925 28.9555 15.7315 29.01 15.5031L29.2665 14.4257L31.4166 16.5756C32.5652 17.7252 32.5652 19.5956 31.4162 20.7452Z" fill="#350ABC"/>
  <path d="M8.23347 7.00714C8.51353 7.00714 8.74014 6.78028 8.74014 6.50047V5.48714C8.74014 5.20733 8.51353 4.98047 8.23347 4.98047C7.95341 4.98047 7.72681 5.20733 7.72681 5.48714V6.50047C7.72681 6.78028 7.95341 7.00714 8.23347 7.00714Z" fill="#350ABC"/>
  <path d="M8.23347 8.02026C7.95341 8.02026 7.72681 8.24712 7.72681 8.52693V9.54026C7.72681 9.82007 7.95341 10.0469 8.23347 10.0469C8.51353 10.0469 8.74014 9.82007 8.74014 9.54026V8.52693C8.74014 8.24712 8.51353 8.02026 8.23347 8.02026Z" fill="#350ABC"/>
  <path d="M6.20686 8.02041H7.2202C7.50026 8.02041 7.72686 7.79355 7.72686 7.51375C7.72686 7.23394 7.50026 7.00708 7.2202 7.00708H6.20686C5.9268 7.00708 5.7002 7.23394 5.7002 7.51375C5.7002 7.79355 5.9268 8.02041 6.20686 8.02041Z" fill="#350ABC"/>
  <path d="M9.24666 8.02041H10.26C10.5401 8.02041 10.7667 7.79355 10.7667 7.51375C10.7667 7.23394 10.5401 7.00708 10.26 7.00708H9.24666C8.9666 7.00708 8.73999 7.23394 8.73999 7.51375C8.73999 7.79355 8.9666 8.02041 9.24666 8.02041Z" fill="#350ABC"/>
  <path d="M29.7669 29.8071C28.7891 29.8071 27.9935 30.6027 27.9935 31.5805C27.9935 32.5582 28.7891 33.3538 29.7669 33.3538C30.7446 33.3538 31.5402 32.5582 31.5402 31.5805C31.5402 30.6027 30.7446 29.8071 29.7669 29.8071ZM29.7669 32.3405C29.3477 32.3405 29.0069 31.9996 29.0069 31.5805C29.0069 31.1613 29.3477 30.8205 29.7669 30.8205C30.186 30.8205 30.5269 31.1613 30.5269 31.5805C30.5269 31.9996 30.1859 32.3405 29.7669 32.3405Z" fill="#350ABC"/>
  <path d="M33.6082 26.5283C33.309 26.5283 33.0665 26.7709 33.0665 27.0699C33.0665 27.3691 33.309 27.6117 33.6082 27.6117C33.9073 27.6117 34.1498 27.3691 34.1498 27.0699C34.1499 26.7708 33.9073 26.5283 33.6082 26.5283Z" fill="#350ABC"/>
</svg>