<svg xmlns="http://www.w3.org/2000/svg"  viewBox="0 0 36 36" fill="none">
    <g clip-path="url(#clip0_442_1878)">
        <path d="M28.8735 1.12608C27.9658 0.263385 26.531 0.298304 25.6663 1.20402L22.103 4.94484C19.3859 4.5314 16.6274 5.36776 14.5973 7.22043L14.5801 7.20423C14.3209 6.95736 13.9107 6.96732 13.6638 7.22651C13.6638 7.22651 13.6638 7.22651 13.6637 7.22659L12.6388 8.30228C12.3167 8.63851 12.1425 9.08971 12.1551 9.55516C12.1584 9.67653 12.1131 9.79425 12.0291 9.88199L12.0206 9.89099C9.53156 12.505 7.30628 15.3579 5.37697 18.4085L1.88917 23.9268C1.31386 24.8414 1.46131 26.0346 2.24209 26.7816L8.76601 32.9957C9.54995 33.7393 10.7489 33.8287 11.6345 33.2096L16.9767 29.4575C19.9298 27.3825 22.6711 25.0215 25.161 22.4088L25.1696 22.3999C25.2537 22.3121 25.3689 22.2611 25.4903 22.2578C25.9559 22.2476 26.398 22.0518 26.7183 21.7138L27.7432 20.6377C27.9902 20.3785 27.9802 19.9682 27.721 19.7214C27.721 19.7214 27.721 19.7214 27.721 19.7213L27.7038 19.7051C29.4557 17.5873 30.157 14.7914 29.612 12.0974L33.1753 8.35656C34.038 7.44882 34.0032 6.01405 33.0974 5.14925L28.8735 1.12608ZM27.2853 1.79643C27.5434 1.78857 27.7936 1.88523 27.9795 2.06444L32.2033 6.08802C32.5914 6.45869 32.6064 7.07354 32.2367 7.46268L32.0132 7.69763L26.3815 2.33278L26.605 2.09782C26.7823 1.91051 27.0273 1.80194 27.2853 1.79643ZM30.6719 9.10486L25.0403 3.74089L25.4873 3.27163L31.1191 8.63608L30.6719 9.10486ZM28.8839 10.9825L23.2522 5.61803L24.1462 4.67934L29.7784 10.0442L28.8839 10.9825ZM25.7796 20.8198C25.696 20.9081 25.5804 20.9592 25.4588 20.9618C24.9935 20.9718 24.5515 21.1675 24.2314 21.5053L24.2228 21.5143C21.7918 24.0654 19.1152 26.3707 16.2319 28.3967L10.8897 32.1488C10.5102 32.4143 9.99629 32.3759 9.6603 32.0572L3.13614 25.843C2.80169 25.5227 2.73866 25.0115 2.98528 24.6196L6.47349 19.1014C8.35678 16.1232 10.5291 13.3378 12.9588 10.7856L12.9673 10.7766C13.2894 10.4404 13.4635 9.98926 13.4509 9.52381C13.4477 9.4022 13.4932 9.2844 13.5773 9.19657L14.1552 8.58982L26.3576 20.2129L25.7796 20.8198ZM26.7631 18.8089L22.4724 14.722L15.538 8.11666C17.3066 6.54043 19.6949 5.85201 22.0311 6.24512L28.3168 12.2324C28.8229 14.5468 28.2515 16.9657 26.7631 18.8089Z" fill="#350ABC"/>
        <path d="M19.7164 7.21005C19.0108 7.45424 18.3378 7.78407 17.7124 8.192C17.4127 8.38766 17.3283 8.78928 17.5239 9.08905C17.7196 9.38882 18.1212 9.47324 18.421 9.27758C18.9575 8.92749 19.5348 8.64449 20.1402 8.43498C20.4785 8.31791 20.6578 7.94886 20.5408 7.61053C20.4238 7.27219 20.0547 7.09281 19.7164 7.20989V7.21005Z" fill="#350ABC"/>
        <path d="M10.4575 16.711C10.17 16.4978 9.76402 16.5581 9.55086 16.8457C8.74779 17.9293 7.97519 19.0567 7.25461 20.1966C7.06332 20.4992 7.15358 20.8995 7.45618 21.0908C7.75879 21.2821 8.15911 21.1919 8.35039 20.8892C9.05388 19.7763 9.80825 18.6756 10.5924 17.6176C10.8054 17.33 10.7451 16.9242 10.4575 16.711Z" fill="#350ABC"/>
        <path d="M12.504 14.1794C12.2297 13.9494 11.821 13.9852 11.5909 14.2594C11.45 14.4273 11.3101 14.5961 11.1714 14.7657C10.9446 15.0427 10.9853 15.4511 11.2624 15.6778C11.5395 15.9045 11.9478 15.8638 12.1745 15.5867C12.31 15.4211 12.4465 15.2564 12.5841 15.0925C12.8141 14.8183 12.7783 14.4095 12.504 14.1794Z" fill="#350ABC"/>
        <path d="M12.4991 5.50626C12.6765 5.5065 12.8461 5.43383 12.9684 5.30533L13.0453 5.22431C13.7348 4.4966 14.6869 4.07497 15.6892 4.05359C16.0472 4.04484 16.3303 3.74758 16.3216 3.38963C16.3128 3.03169 16.0156 2.74853 15.6576 2.75728C14.3116 2.78636 13.0331 3.35269 12.1071 4.3301L12.0305 4.41056C11.7835 4.66966 11.7933 5.07994 12.0524 5.32688C12.1728 5.44177 12.333 5.50586 12.4995 5.50594L12.4991 5.50626Z" fill="#350ABC"/>
        <path d="M14.8909 1.13211C14.8813 0.774734 14.5847 0.492301 14.2272 0.50016C12.8811 0.529246 11.6025 1.09557 10.6764 2.07307L10.5997 2.1536C10.3529 2.41278 10.3628 2.82306 10.622 3.07001C10.8812 3.31688 11.2915 3.30691 11.5384 3.04773L11.6151 2.9672C12.3045 2.2394 13.2565 1.8177 14.2587 1.79606C14.6166 1.78739 14.8997 1.49022 14.8909 1.13235C14.8909 1.13219 14.8909 1.13219 14.8909 1.13211Z" fill="#350ABC"/>
        <path d="M20.4347 30.5646C20.1629 30.3316 19.7538 30.3629 19.5208 30.6347L19.4484 30.719C18.7977 31.4816 17.869 31.9521 16.8693 32.0258C16.5124 32.0529 16.245 32.3643 16.2721 32.7212C16.2978 33.0589 16.5792 33.3199 16.9179 33.3202C16.9345 33.3202 16.9512 33.3196 16.968 33.3183C18.3109 33.2194 19.5584 32.5873 20.4324 31.563L20.5047 31.4786C20.7378 31.2068 20.7064 30.7977 20.4347 30.5646Z" fill="#350ABC"/>
        <path d="M17.8188 34.9015C17.8445 35.2391 18.1258 35.4999 18.4643 35.5003C18.4809 35.5003 18.4976 35.4997 18.5144 35.4985C19.8572 35.3996 21.1047 34.7675 21.9786 33.7432L22.0511 33.6588C22.2874 33.39 22.2611 32.9805 21.9922 32.7441C21.7234 32.5078 21.3139 32.5341 21.0775 32.803C21.0741 32.8068 21.0707 32.8108 21.0673 32.8148L20.9949 32.8992C20.3441 33.6618 19.4154 34.1322 18.4157 34.2059C18.0588 34.2331 17.7916 34.5445 17.8188 34.9015Z" fill="#350ABC"/>
    </g>
    <defs>
        <clipPath id="clip0_442_1878">
            <rect width="35" height="35" fill="white" transform="translate(0.169922 0.5)"/>
        </clipPath>
    </defs>
</svg>