<svg xmlns="http://www.w3.org/2000/svg"  viewBox="0 0 36 35" fill="none">
  <g clip-path="url(#clip0_442_1914)">
    <path d="M19.7945 18.0461L32.5066 4.06116C32.7865 3.75313 32.8558 3.32534 32.6874 2.94471C32.519 2.56409 32.1558 2.32763 31.7397 2.32763H27.7635L29.1494 0.865902C29.3443 0.660277 29.3357 0.335639 29.1301 0.140678C28.9246 -0.0541465 28.5999 -0.0456016 28.4049 0.160023L26.3497 2.3277H4.09575C3.6795 2.3277 3.31631 2.56415 3.14794 2.94478C2.97957 3.32547 3.04889 3.75327 3.32882 4.06122L16.0409 18.0461C16.1764 18.1951 16.3286 18.3256 16.4927 18.4369V30.7595C16.4927 31.4103 16.0797 31.9912 15.4649 32.2049L11.2057 33.6859C11.1953 33.6895 11.185 33.6934 11.175 33.6976C10.8741 33.8244 10.7092 34.1365 10.7738 34.4565C10.8384 34.7765 11.1116 35 11.4381 35H24.3972C24.7237 35 24.9969 34.7765 25.0616 34.4565C25.1262 34.1365 24.9612 33.8244 24.6604 33.6976C24.6503 33.6934 24.64 33.6894 24.6297 33.6859L20.3704 32.2049C19.7557 31.9912 19.3426 31.4103 19.3426 30.7595V18.437C19.5068 18.3256 19.6591 18.1951 19.7945 18.0461ZM26.7908 3.35364H31.7397C31.7429 3.35364 31.7449 3.35371 31.7454 3.35377C31.7483 3.35664 31.7514 3.36375 31.7516 3.36553C31.7516 3.36553 31.7507 3.36745 31.7474 3.37107L28.5902 6.84441H26.0668C26.2974 6.10551 26.1505 5.24958 25.6461 4.561L26.7908 3.35364ZM20.0335 33.174L22.3344 33.974H13.5009L15.8019 33.174C16.8288 32.8169 17.5187 31.8466 17.5187 30.7595V18.8446C17.5414 18.8482 17.5642 18.8508 17.5869 18.8538C17.599 18.8554 17.611 18.8571 17.623 18.8586C17.6502 18.8618 17.6775 18.8643 17.7048 18.8666C17.713 18.8673 17.7212 18.8679 17.7294 18.8685C17.7919 18.8732 17.8546 18.8764 17.9177 18.8764C17.9809 18.8764 18.0437 18.8732 18.1063 18.8685C18.1143 18.8679 18.1223 18.8673 18.1302 18.8666C18.1577 18.8642 18.1852 18.8617 18.2126 18.8585C18.2241 18.8572 18.2355 18.8554 18.247 18.8539C18.2703 18.8508 18.2936 18.8482 18.3167 18.8446V30.7593C18.3166 31.8466 19.0066 32.8169 20.0335 33.174ZM19.0353 17.356C18.9113 17.4924 18.7676 17.6024 18.61 17.6839C18.6062 17.6857 18.6022 17.6869 18.5985 17.6888C18.1722 17.9039 17.6631 17.904 17.2368 17.6888C17.2331 17.687 17.2292 17.6857 17.2254 17.684C17.0678 17.6025 16.9241 17.4925 16.8 17.356L8.17776 7.87035H10.08C10.3633 7.87035 10.593 7.64066 10.593 7.35738C10.593 7.0741 10.3633 6.84441 10.08 6.84441H7.24513L4.08795 3.37107C4.0857 3.36861 4.08453 3.36697 4.08419 3.36669C4.08433 3.36266 4.08754 3.35562 4.08864 3.35425C4.08864 3.35425 4.09069 3.35364 4.09568 3.35364H25.377L24.9019 3.85464C24.4829 3.57977 24.0037 3.42384 23.5132 3.40812C22.8341 3.38638 22.2136 3.63316 21.7679 4.1034C21.3222 4.57358 21.1085 5.2057 21.1665 5.88328C21.1741 5.9716 21.1865 6.05923 21.2031 6.14598C20.463 6.04618 19.7159 6.2678 19.1954 6.81679C19.1868 6.82582 19.179 6.83525 19.1706 6.84441H12.467C12.1838 6.84441 11.9541 7.0741 11.9541 7.35738C11.9541 7.64066 12.1838 7.87035 12.467 7.87035H18.6417C18.5719 8.19006 18.5696 8.52612 18.6324 8.85739C18.5449 8.84556 18.4567 8.83777 18.3681 8.8349C17.6885 8.81289 17.0686 9.05994 16.6228 9.53018C15.8289 10.3675 15.8223 11.6905 16.5417 12.6726L15.9746 13.2707C15.7797 13.4764 15.7883 13.801 15.9939 13.996C16.0931 14.09 16.22 14.1366 16.3468 14.1366C16.4826 14.1366 16.6183 14.083 16.7191 13.9766L17.2858 13.3789C17.7049 13.6538 18.184 13.8097 18.6746 13.8254C18.7024 13.8263 18.7299 13.8268 18.7575 13.8268C19.4046 13.8268 19.9924 13.5812 20.42 13.1302C20.8657 12.66 21.0794 12.0279 21.0214 11.3503C21.0138 11.2621 21.0014 11.1745 20.9849 11.0877C21.0994 11.1032 21.2141 11.1114 21.3281 11.1114C21.9507 11.1114 22.5526 10.8808 22.9926 10.4167C23.5132 9.86767 23.6947 9.10984 23.5555 8.37614C23.6431 8.38796 23.7313 8.39576 23.8198 8.39863C23.8476 8.39952 23.8751 8.39999 23.9027 8.39999C24.4647 8.39999 24.9819 8.21447 25.3883 7.87028H27.6578L19.0353 17.356ZM19.9398 7.52267C20.1793 7.27008 20.5102 7.14567 20.8597 7.14567C21.2611 7.14567 21.6871 7.3098 22.0272 7.63232C22.6635 8.23573 22.7625 9.16815 22.2479 9.71092C21.7332 10.2536 20.7971 10.2045 20.1607 9.60148L20.1605 9.60121C19.5242 8.99787 19.4252 8.06544 19.9398 7.52267ZM19.6753 12.4244C19.4339 12.679 19.0914 12.8117 18.7074 12.8001C18.3019 12.7871 17.9043 12.6147 17.5879 12.3147C16.9515 11.7113 16.8526 10.7789 17.3672 10.2361C17.5984 9.99229 17.9234 9.8596 18.2867 9.8596C18.3028 9.8596 18.3189 9.85988 18.3351 9.86036C18.7404 9.87334 19.138 10.0457 19.4543 10.3455L19.4546 10.3458C19.771 10.6458 19.9643 11.0336 19.9989 11.4379C20.0315 11.8194 19.9166 12.1697 19.6753 12.4244ZM22.1888 5.79578C22.1561 5.41426 22.271 5.06392 22.5124 4.80928C22.7436 4.56551 23.0685 4.43276 23.4318 4.43276C23.4478 4.43276 23.464 4.43303 23.4802 4.43351C23.8857 4.44657 24.2833 4.6189 24.5997 4.91893C25.2359 5.5222 25.3349 6.45469 24.8203 6.99747C24.5789 7.25204 24.2344 7.38479 23.8525 7.37317C23.4471 7.36025 23.0495 7.18785 22.7331 6.88782C22.4167 6.58786 22.2234 6.19999 22.1888 5.79578Z" fill="#350ABC"/>
  </g>
  <defs>
    <clipPath id="clip0_442_1914">
      <rect width="35" height="35" fill="white" transform="translate(0.41748)"/>
    </clipPath>
  </defs>
</svg>