<svg xmlns="http://www.w3.org/2000/svg"  viewBox="0 0 40 40" fill="none">
  <g clip-path="url(#clip0_442_1949)">
    <path d="M33.0497 40H21.2722C20.9487 40 20.6863 39.7377 20.6863 39.4141C20.6863 39.0905 20.9487 38.8281 21.2722 38.8281H22.3233C22.4401 36.6469 23.2087 34.479 24.5611 32.5295L27.2028 28.7212V28.0901C26.6751 27.5343 25.9814 26.6693 25.6755 25.706C25.0005 26.1615 24.2444 26.4664 23.4299 26.4664C22.7255 26.4664 21.8633 26.1487 21.1373 25.4024C21.4787 26.9516 22.0487 27.4739 22.7342 28.102C22.9728 28.3205 22.989 28.6912 22.7705 28.9298C22.5519 29.1684 22.1812 29.1847 21.9426 28.9661C20.8429 27.9587 20.1484 27.0344 19.8283 24.7338H17.4207L16.0428 26.3515C15.6233 26.8439 15.3923 27.4713 15.3923 28.1182V32.1143C15.3923 33.7817 13.7907 35.1529 12.2418 36.4789C11.3076 37.2787 10.3478 38.1003 9.97248 38.8282H18.9287C19.2522 38.8282 19.5146 39.0905 19.5146 39.4141C19.5146 39.7377 19.2522 40.0001 18.9287 40.0001H5.25373C4.28443 40.0001 3.49592 39.2116 3.49592 38.2423V22.3242C3.49592 22.0006 3.75826 21.7383 4.08186 21.7383C4.40545 21.7383 4.66779 22.0006 4.66779 22.3242V25.2771L11.1691 21.9858C11.4192 21.6832 12.1804 20.8071 12.9903 20.3168C14.0318 19.6863 15.2876 19.5508 16.4358 19.9452C17.2195 20.2144 18.4233 20.4326 19.6204 20.3141V18.9138C18.5483 19.0566 16.8034 19.1379 15.8823 18.367C15.4716 18.0234 15.2545 17.5459 15.2545 16.986V15.4443C14.7502 15.1227 14.0507 14.5582 14.0507 13.9023C12.2688 9.87367 14.46 12.9889 14.7888 12.73C15.0401 12.5322 15.2655 12.3547 15.3962 12.0553C15.2315 11.987 15.0682 11.9191 14.9058 11.8516C13.3142 11.1896 11.7743 10.5491 10.1344 10.1307V11.4256C10.1344 11.7492 9.87201 12.0116 9.54842 12.0116C9.22482 12.0116 8.96248 11.7492 8.96248 11.4256V9.8757C8.15256 9.73086 7.31178 9.6475 6.42342 9.6475C6.09982 9.6475 5.83748 9.38516 5.83748 9.06156C5.83748 8.73797 6.09982 8.47563 6.42342 8.47563H8.96248V9.06156C8.96248 8.73797 9.22482 8.47563 9.54842 8.47563H14.1381C14.4617 8.47563 14.724 8.73797 14.724 9.06156C14.724 9.38516 14.4617 9.6475 14.1381 9.6475H10.1343L8.35235 8.47563H11.5749C11.8984 8.47563 12.1608 8.73797 12.1608 9.06156C12.1608 9.38516 11.8984 9.6475 11.5749 9.6475H8.35235L10.1343 8.47563H15.6258C15.7479 8.01844 15.9976 7.3168 16.4894 6.61633C17.2447 5.5407 18.7283 4.25852 21.5069 4.25852C23.5168 4.25852 25.0975 4.82797 26.2052 5.95109C27.3686 7.13063 27.6804 8.60117 27.7634 9.35172L33.0107 10.4855V1.17188H26.7427C26.4191 1.17188 26.1568 0.909531 26.1568 0.585938C26.1568 0.262344 26.4191 0 26.7427 0H33.0497C33.6744 0 34.1826 0.508203 34.1826 1.13281V1.57578L35.5262 1.7343C35.8268 1.76977 36.0954 1.92008 36.2829 2.15766C36.4702 2.39523 36.554 2.69156 36.5185 2.99203L34.1881 22.725C34.1866 22.7374 34.1848 22.7496 34.1826 22.7617V38.8672C34.1826 39.4918 33.6744 40 33.0497 40ZM31.8483 38.8281H33.0107V14.139C30.8944 14.5343 28.9442 14.7346 27.2073 14.7346C24.7572 14.7346 22.6585 14.4159 20.7921 13.9409C20.7921 13.9409 20.7922 20.828 20.7921 20.835C20.7941 22.6976 21.3189 23.7667 21.7592 24.3359C22.2237 24.9363 22.8481 25.2947 23.4298 25.2947C24.6557 25.2947 25.7918 24.2099 26.529 23.2998C27.0998 22.5952 27.5219 21.8881 27.7371 21.5002C27.4797 21.0653 27.1372 20.227 27.1372 18.8456V16.6342C27.1372 16.3106 27.3996 16.0483 27.7232 16.0483C28.0468 16.0483 28.3091 16.3106 28.3091 16.6342V18.8456C28.3091 19.972 28.5775 20.6077 28.7358 20.8848C30.4784 21.043 31.8483 22.5123 31.8483 24.2953L31.8483 38.8281ZM28.3747 38.8281H30.6765V24.2953C30.6765 23.1685 29.8448 22.2323 28.7632 22.0681C28.4376 22.6567 27.708 23.861 26.6945 24.8609C26.7433 25.5902 27.2869 26.5215 28.203 27.4377C28.3129 27.5476 28.3747 27.6966 28.3747 27.852V38.8281ZM23.4971 38.8281H27.2028V30.7772L25.524 33.1974C24.3094 34.9484 23.6137 36.8854 23.4971 38.8281ZM4.66779 28.2406V38.2422C4.66779 38.5653 4.93061 38.8281 5.25373 38.8281H8.71779C9.0349 37.6815 10.2263 36.6615 11.4795 35.5887C11.5145 35.5588 11.5494 35.5288 11.5844 35.4989C9.82787 34.2198 6.63428 31.1887 4.66779 28.2406ZM4.94811 26.4488C6.71389 29.7172 10.6708 33.4627 12.4904 34.7049C13.2249 34.0344 13.8541 33.3595 14.1046 32.7002H12.0142C11.893 32.7002 11.7748 32.6626 11.6758 32.5927C9.65467 31.1632 8.35943 28.1276 8.30529 27.9991C8.18646 27.7171 8.30467 27.3913 8.57654 27.2509L12.4837 25.2341C13.459 24.7308 14.6115 24.7264 15.4901 25.1929L16.5641 23.932V21.2092C16.3912 21.1625 16.2211 21.1105 16.0551 21.0535C15.2365 20.7724 14.3406 20.8693 13.5972 21.3193C12.9434 21.715 12.2272 22.5322 12.0065 22.8136C11.9536 22.881 11.8865 22.936 11.8101 22.9747L4.94811 26.4488ZM12.2069 31.5283H14.2203V28.1181C14.2203 27.421 14.4079 26.7396 14.7571 26.1448C14.2379 25.9468 13.5804 25.987 13.0212 26.2755L9.61443 28.0339C10.0287 28.8715 10.9748 30.5795 12.2069 31.5283ZM17.736 23.5619H19.7064C19.6612 22.9541 19.634 22.2688 19.6244 21.4902C19.0134 21.5416 18.3697 21.5241 17.7361 21.4415L17.736 23.5619ZM15.2344 13.8935C15.3348 14.0615 15.742 14.3868 16.1237 14.5982C16.3101 14.7014 16.4264 14.898 16.4264 15.1111V16.9861C16.4264 17.1993 16.4905 17.348 16.6344 17.4684C17.1351 17.8874 18.4438 17.9037 19.6204 17.7304V13.6148C18.5018 13.2773 17.4654 12.8916 16.4815 12.4983C16.2347 13.0832 15.8151 13.4134 15.5137 13.6507C15.4198 13.7247 15.284 13.8316 15.2344 13.8935ZM12.5304 9.6475C13.4769 9.98813 14.4076 10.3752 15.3558 10.7696C18.6569 12.1427 22.0704 13.5627 27.2073 13.5627C28.9307 13.5627 30.8818 13.3554 33.0107 12.9463V11.6845L27.0836 10.4037C26.8109 10.3448 26.6176 10.1018 26.6214 9.82289C26.6215 9.80703 26.6191 8.03086 25.3615 6.76453C24.4822 5.87922 23.1854 5.43039 21.5069 5.43039C19.6801 5.43039 18.3147 6.05594 17.4484 7.28969C16.8103 8.19852 16.6826 9.12352 16.6815 9.13258C16.6455 9.42649 16.396 9.64742 16.0998 9.64742L12.5304 9.6475ZM34.1826 2.75578V12.7797L35.3501 2.89359L34.1826 2.75578ZM4.07959 20.5664C3.756 20.5664 3.49365 20.3041 3.49365 19.9805V1.75781C3.49365 0.788516 4.28225 0 5.25146 0H24.3967C24.7203 0 24.9826 0.262344 24.9826 0.585938C24.9826 0.909531 24.7203 1.17188 24.3967 1.17188H5.25146C4.92842 1.17188 4.66553 1.43469 4.66553 1.75781V19.9805C4.66553 20.3041 4.40318 20.5664 4.07959 20.5664Z" fill="#350ABC"/>
  </g>
  <defs>
    <clipPath id="clip0_442_1949">
      <rect width="40" height="40" fill="white" transform="translate(0.00976562)"/>
    </clipPath>
  </defs>
</svg>