<svg xmlns="http://www.w3.org/2000/svg"  viewBox="0 0 36 35" fill="none">
  <path d="M14.4844 10.2625C14.3506 10.3202 14.217 10.3814 14.0874 10.4442C14.0389 10.4677 13.9955 10.5005 13.9597 10.5408C13.9239 10.5811 13.8964 10.628 13.8788 10.6789C13.8611 10.7298 13.8536 10.7836 13.8568 10.8374C13.8599 10.8912 13.8737 10.9438 13.8972 10.9923C13.9207 11.0408 13.9535 11.0841 13.9937 11.1199C14.034 11.1557 14.0809 11.1832 14.1318 11.2009C14.1827 11.2186 14.2366 11.226 14.2903 11.2229C14.3441 11.2197 14.3968 11.206 14.4452 11.1825C14.5641 11.1249 14.6867 11.0688 14.8095 11.0158C14.9094 10.9727 14.9881 10.8916 15.0282 10.7905C15.0683 10.6894 15.0667 10.5765 15.0236 10.4766C14.9804 10.3767 14.8994 10.2981 14.7983 10.2579C14.6972 10.2178 14.5843 10.2195 14.4844 10.2626V10.2625Z" fill="#350ABC"/>
  <path d="M12.9146 11.1158C11.9035 11.7866 11.034 12.6495 10.3555 13.6554C10.3252 13.7001 10.3041 13.7503 10.2932 13.8032C10.2824 13.8561 10.2821 13.9106 10.2924 13.9636C10.3027 14.0166 10.3234 14.0671 10.3532 14.1121C10.3831 14.1571 10.4215 14.1958 10.4663 14.2259C10.5111 14.256 10.5614 14.277 10.6144 14.2876C10.6673 14.2982 10.7218 14.2983 10.7748 14.2878C10.8278 14.2773 10.8781 14.2564 10.923 14.2264C10.9679 14.1964 11.0064 14.1578 11.0364 14.1129C11.6553 13.1958 12.4484 12.4092 13.3705 11.7978C13.4609 11.7373 13.5237 11.6434 13.5448 11.5367C13.566 11.43 13.544 11.3193 13.4835 11.2288C13.423 11.1384 13.3291 11.0757 13.2224 11.0545C13.1157 11.0333 13.005 11.0554 12.9146 11.1158Z" fill="#350ABC"/>
  <path d="M5.43848 32.2519C5.43846 32.4916 5.50953 32.7259 5.6427 32.9253C5.77586 33.1246 5.96514 33.2799 6.1866 33.3717C6.40805 33.4634 6.65174 33.4874 6.88684 33.4406C7.12194 33.3939 7.3379 33.2785 7.50739 33.109C7.67689 32.9395 7.79232 32.7235 7.83908 32.4884C7.88584 32.2533 7.86183 32.0096 7.7701 31.7882C7.67836 31.5667 7.52301 31.3774 7.3237 31.2443C7.12438 31.1111 6.89006 31.04 6.65035 31.04C6.32905 31.0404 6.02102 31.1682 5.79383 31.3954C5.56663 31.6226 5.43884 31.9306 5.43848 32.2519ZM7.04198 32.2519C7.042 32.3294 7.01904 32.4051 6.97601 32.4695C6.93299 32.5339 6.87183 32.5841 6.80027 32.6138C6.72871 32.6434 6.64996 32.6512 6.57399 32.6361C6.49802 32.621 6.42823 32.5837 6.37345 32.5289C6.31867 32.4742 6.28137 32.4044 6.26625 32.3284C6.25113 32.2524 6.25889 32.1737 6.28853 32.1021C6.31816 32.0306 6.36836 31.9694 6.43277 31.9264C6.49717 31.8833 6.57289 31.8604 6.65035 31.8604C6.75418 31.8604 6.85373 31.9017 6.92715 31.9751C7.00058 32.0485 7.04187 32.1481 7.04198 32.2519Z" fill="#350ABC"/>
  <path d="M33.1709 16.543H32.3074C31.0563 11.0834 26.168 7.03525 20.2891 6.44265V5.05933C20.6112 4.81695 20.8731 4.50361 21.0545 4.14362C21.2359 3.78363 21.3319 3.38669 21.335 2.98359C21.335 2.30399 21.065 1.65222 20.5845 1.17167C20.1039 0.691114 19.4522 0.421143 18.7726 0.421143C18.0929 0.421143 17.4412 0.691114 16.9606 1.17167C16.4801 1.65222 16.2101 2.30399 16.2101 2.98359C16.2101 3.83672 16.5976 4.59332 17.2812 5.05933V6.44272C11.334 7.03539 6.45556 11.0838 5.20451 16.543H4.36991C3.53258 16.543 2.82069 17.1966 2.79546 18.0333C2.7894 18.2397 2.82493 18.4454 2.89994 18.6378C2.97494 18.8303 3.08789 19.0058 3.23206 19.1537C3.37624 19.3017 3.54869 19.4191 3.73918 19.4991C3.92966 19.5791 4.13428 19.6199 4.34086 19.6192H4.42105L4.68765 21.0625C4.76186 21.4639 4.9744 21.8265 5.2883 22.0873C5.60219 22.3482 5.99759 22.4908 6.40573 22.4903H11.0698C10.5873 22.6856 10.1323 22.943 9.7163 23.2559C9.70735 23.2627 9.6986 23.2696 9.69026 23.2773L8.86133 24.0152C8.55193 24.29 8.18619 24.4938 7.78973 24.6124L7.77353 24.5517C7.73109 24.4112 7.64488 24.288 7.52749 24.2C7.4101 24.1121 7.26767 24.0639 7.12097 24.0625H2.30642C2.20042 24.0645 2.09627 24.0906 2.00191 24.139C1.90755 24.1873 1.82548 24.2565 1.76196 24.3414C1.69843 24.4263 1.65514 24.5245 1.63537 24.6287C1.61561 24.7329 1.6199 24.8402 1.64791 24.9424L4.19177 34.0821C4.23173 34.2266 4.31753 34.3542 4.43627 34.4458C4.55501 34.5374 4.70027 34.588 4.85021 34.5899H9.94462C10.0518 34.5887 10.1572 34.5625 10.2526 34.5135C10.3479 34.4646 10.4306 34.3941 10.494 34.3077C10.5574 34.2212 10.5999 34.1212 10.618 34.0156C10.6362 33.9099 10.6295 33.8015 10.5985 33.6989L9.92411 31.4856L12.3594 29.9452C12.6802 29.768 13.0564 29.7193 13.4117 29.8091C13.4202 29.8112 13.4288 29.8129 13.4374 29.8145L18.4419 30.7359C18.6691 30.777 18.8983 30.806 19.1285 30.8227C20.5549 30.9151 21.9705 30.5219 23.1449 29.707L31.1728 24.195C31.259 24.1358 31.3193 24.0459 31.3415 23.9438C31.3636 23.8416 31.3459 23.7348 31.292 23.6453C31.1015 23.3277 30.8403 23.0583 30.5287 22.858C30.2172 22.6577 29.8637 22.5319 29.4956 22.4903H31.0644C31.4655 22.4894 31.8541 22.3509 32.1654 22.098C32.4767 21.8451 32.6917 21.493 32.7747 21.1006L33.0827 19.6192H33.142C33.9794 19.6192 34.6913 18.9656 34.7165 18.129C34.7225 17.9224 34.687 17.7168 34.612 17.5243C34.537 17.3318 34.424 17.1564 34.2798 17.0084C34.1356 16.8605 33.9631 16.743 33.7726 16.6631C33.5821 16.5831 33.3775 16.5423 33.1709 16.543ZM17.0137 2.98359C17.0137 2.63898 17.1158 2.30211 17.3073 2.01557C17.4987 1.72904 17.7708 1.50571 18.0892 1.37382C18.4076 1.24194 18.7579 1.20743 19.0959 1.27466C19.4339 1.34188 19.7444 1.50783 19.988 1.7515C20.2317 1.99518 20.3977 2.30564 20.4649 2.64363C20.5321 2.98162 20.4976 3.33195 20.3657 3.65032C20.2338 3.9687 20.0105 4.24081 19.724 4.43226C19.4374 4.62371 19.1005 4.72588 18.7559 4.72587C18.294 4.72534 17.8512 4.54162 17.5245 4.21499C17.1979 3.88836 17.0142 3.44551 17.0137 2.98359ZM19.4688 5.45396V6.38311C19.1954 6.37292 19.013 6.36731 18.7852 6.36731C18.5574 6.36731 18.3067 6.37292 18.1016 6.38311V5.45396C18.3242 5.51589 18.5542 5.54692 18.7852 5.54618C19.0159 5.5424 19.2453 5.51145 19.4688 5.45396ZM18.7559 7.18763C24.8604 7.18763 30.1197 11.0926 31.464 16.543H6.0478C7.39236 11.093 12.6528 7.18763 18.7559 7.18763ZM4.95411 33.7696L2.48634 24.8829H7.02739L9.76176 33.7696H4.95411ZM30.3516 23.7636L22.6804 29.0307C21.6594 29.7402 20.4284 30.0834 19.1876 30.0045C18.987 29.9899 18.7872 29.9647 18.5893 29.9289L13.5981 29.0099C13.0402 28.8723 12.4509 28.9523 11.9499 29.2337C11.9435 29.2372 11.9371 29.241 11.9309 29.2449L9.67324 30.6721L8.03364 25.3971C8.5417 25.2434 9.01025 24.981 9.40677 24.6281L10.2228 23.9016C10.9746 23.3369 11.8676 22.9905 12.8035 22.9006C13.7395 22.8107 14.6821 22.9808 15.5275 23.3922L15.8708 23.5583C16.4641 23.8443 17.114 23.9933 17.7726 23.9942H21.1017C21.5744 23.9948 22.0326 24.1572 22.4001 24.4545C22.7675 24.7517 23.0222 25.1659 23.1215 25.628L20.7557 25.5209C19.8762 25.4812 18.995 25.5219 18.1229 25.6425C18.0696 25.6499 18.0182 25.6677 17.9717 25.6949C17.9253 25.7222 17.8846 25.7583 17.8521 25.8013C17.8196 25.8442 17.7959 25.8932 17.7823 25.9453C17.7687 25.9974 17.7655 26.0517 17.7729 26.1051C17.7803 26.1585 17.7981 26.2098 17.8254 26.2563C17.8526 26.3028 17.8888 26.3434 17.9317 26.3759C17.9747 26.4084 18.0236 26.4321 18.0757 26.4457C18.1279 26.4593 18.1822 26.4625 18.2355 26.4551C19.058 26.3414 19.8892 26.303 20.7187 26.3404L23.5585 26.4689C23.5647 26.4689 23.5709 26.4693 23.5771 26.4693C23.6858 26.4693 23.7902 26.4261 23.8671 26.3492C23.944 26.2723 23.9872 26.168 23.9872 26.0592C23.9872 26.006 23.9855 25.9532 23.9826 25.9007L28.4645 23.4876C28.7668 23.324 29.1138 23.2624 29.4539 23.3122C29.794 23.3619 30.1089 23.5203 30.3516 23.7636ZM15.5152 22.4903H21.5162L20.2592 23.1739H17.7726C17.2377 23.1731 16.7099 23.0521 16.2281 22.8198L15.8847 22.6538C15.7628 22.5949 15.6396 22.5404 15.5152 22.4903ZM22.7783 23.713C22.4874 23.504 22.16 23.3512 21.8129 23.2625L22.5227 22.8766C22.526 22.8748 22.5296 22.873 22.5325 22.8711C23.078 22.5549 23.7709 22.5696 24.3402 22.8711L22.7783 23.713ZM25.8877 22.9693C26.3133 22.7566 26.8448 22.9196 27.2011 23.2368L23.8104 25.0642C23.7106 24.7943 23.5709 24.5409 23.3961 24.3123L25.8877 22.9693ZM27.5908 22.4903H28.9478C28.642 22.5255 28.3457 22.6189 28.075 22.7654L27.9541 22.8306C27.8463 22.7038 27.7244 22.5896 27.5908 22.4903ZM33.1709 18.7989H11.334C11.2252 18.7989 11.1209 18.8421 11.044 18.919C10.9671 18.9959 10.9239 19.1003 10.9239 19.209C10.9239 19.3178 10.9671 19.4221 11.044 19.4991C11.1209 19.576 11.2252 19.6192 11.334 19.6192H32.2452L31.9717 20.9338C31.9277 21.1419 31.8136 21.3285 31.6484 21.4625C31.4832 21.5965 31.2771 21.6698 31.0644 21.67H6.40573C6.18938 21.6704 5.97973 21.595 5.81327 21.4568C5.64681 21.3186 5.53408 21.1264 5.4947 20.9136L5.25537 19.6192H9.00981C9.11859 19.6192 9.22291 19.576 9.29983 19.4991C9.37675 19.4221 9.41996 19.3178 9.41996 19.209C9.41996 19.1003 9.37675 18.9959 9.29983 18.919C9.22291 18.8421 9.11859 18.7989 9.00981 18.7989H4.35645C4.16381 18.8011 3.97803 18.7274 3.83929 18.5937C3.70055 18.4601 3.61998 18.2772 3.61502 18.0846C3.61484 17.9894 3.63352 17.8952 3.66999 17.8073C3.70646 17.7194 3.75999 17.6396 3.82749 17.5725C3.89498 17.5055 3.97511 17.4525 4.06323 17.4165C4.15135 17.3806 4.24571 17.3625 4.34086 17.3633H33.1555C33.3481 17.3611 33.5339 17.4348 33.6726 17.5685C33.8114 17.7021 33.8919 17.885 33.8969 18.0776C33.8971 18.1728 33.8784 18.267 33.8419 18.355C33.8054 18.4429 33.7519 18.5227 33.6844 18.5897C33.6169 18.6568 33.5367 18.7098 33.4486 18.7457C33.3604 18.7816 33.2661 18.7997 33.1709 18.7989Z" fill="#350ABC"/>
</svg>