<svg  viewBox="0 0 127 17" fill="none" xmlns="http://www.w3.org/2000/svg">
    <circle cx="2.59677" cy="8.38706" r="2.59677" fill="#2C2240" />
    <path d="M12.485 4.66793C13.2537 4.66793 13.9254 4.81681 14.5001 5.11458C15.0818 5.40541 15.5285 5.82782 15.8401 6.3818C16.1586 6.92886 16.3179 7.56939 16.3179 8.30341C16.3179 9.03744 16.1586 9.67451 15.8401 10.2146C15.5285 10.7548 15.0818 11.1703 14.5001 11.4611C13.9254 11.745 13.2537 11.887 12.485 11.887H10.1272V4.66793H12.485ZM12.485 10.921C13.3299 10.921 13.9773 10.6924 14.4274 10.2354C14.8775 9.77838 15.1026 9.13438 15.1026 8.30341C15.1026 7.46552 14.8775 6.81113 14.4274 6.34025C13.9773 5.86937 13.3299 5.63393 12.485 5.63393H11.3113V10.921H12.485ZM16.889 8.99935C16.889 8.4246 17.0067 7.91563 17.2422 7.47245C17.4845 7.02926 17.81 6.68649 18.2186 6.44412C18.634 6.19483 19.0911 6.07019 19.5897 6.07019C20.0398 6.07019 20.431 6.16021 20.7634 6.34025C21.1027 6.51337 21.3728 6.7315 21.5736 6.99464V6.16367H22.7681V11.887H21.5736V11.0352C21.3728 11.3053 21.0993 11.5303 20.753 11.7104C20.4068 11.8904 20.0121 11.9804 19.5689 11.9804C19.0772 11.9804 18.6271 11.8558 18.2186 11.6065C17.81 11.3503 17.4845 10.9971 17.2422 10.547C17.0067 10.09 16.889 9.5741 16.889 8.99935ZM21.5736 9.02012C21.5736 8.62541 21.4905 8.28264 21.3243 7.9918C21.165 7.70096 20.9538 7.47937 20.6907 7.32703C20.4276 7.17468 20.1436 7.09851 19.839 7.09851C19.5343 7.09851 19.2503 7.17468 18.9872 7.32703C18.7241 7.47245 18.5094 7.69058 18.3432 7.98141C18.1839 8.26533 18.1043 8.60464 18.1043 8.99935C18.1043 9.39406 18.1839 9.7403 18.3432 10.0381C18.5094 10.3358 18.7241 10.5643 18.9872 10.7236C19.2573 10.876 19.5412 10.9521 19.839 10.9521C20.1436 10.9521 20.4276 10.876 20.6907 10.7236C20.9538 10.5713 21.165 10.3497 21.3243 10.0588C21.4905 9.76107 21.5736 9.41483 21.5736 9.02012ZM25.4972 7.12967V10.2977C25.4972 10.5124 25.5456 10.6682 25.6426 10.7652C25.7464 10.8552 25.9196 10.9002 26.1619 10.9002H26.889V11.887H25.9542C25.421 11.887 25.0124 11.7623 24.7285 11.513C24.4446 11.2637 24.3026 10.8586 24.3026 10.2977V7.12967H23.6275V6.16367H24.3026V4.74064H25.4972V6.16367H26.889V7.12967H25.4972ZM33.0181 8.88509C33.0181 9.09976 33.0043 9.29365 32.9766 9.46677H28.6036C28.6383 9.9238 28.8079 10.2908 29.1126 10.5678C29.4173 10.8448 29.7912 10.9833 30.2344 10.9833C30.8715 10.9833 31.3216 10.7167 31.5847 10.1835H32.8623C32.6892 10.7098 32.3741 11.1426 31.9171 11.4819C31.467 11.8143 30.9061 11.9804 30.2344 11.9804C29.6874 11.9804 29.1957 11.8593 28.7594 11.6169C28.3301 11.3676 27.9908 11.0214 27.7415 10.5782C27.4991 10.1281 27.378 9.60873 27.378 9.02012C27.378 8.43152 27.4957 7.91563 27.7311 7.47245C27.9735 7.02234 28.3093 6.6761 28.7387 6.43374C29.1749 6.19137 29.6735 6.07019 30.2344 6.07019C30.7745 6.07019 31.2558 6.18791 31.6782 6.42335C32.1006 6.65879 32.4295 6.99118 32.665 7.42051C32.9004 7.84292 33.0181 8.33111 33.0181 8.88509ZM31.7821 8.51116C31.7752 8.0749 31.6194 7.7252 31.3147 7.46206C31.01 7.19892 30.6326 7.06735 30.1825 7.06735C29.7739 7.06735 29.4242 7.19892 29.1334 7.46206C28.8425 7.71827 28.6694 8.06797 28.614 8.51116H31.7821ZM36.0531 11.9804C35.603 11.9804 35.1979 11.9008 34.8378 11.7415C34.4847 11.5753 34.2042 11.3538 33.9965 11.0768C33.7887 10.7929 33.6779 10.4778 33.6641 10.1315H34.8898C34.9105 10.3739 35.0248 10.5782 35.2325 10.7444C35.4472 10.9037 35.7138 10.9833 36.0324 10.9833C36.3647 10.9833 36.621 10.921 36.801 10.7963C36.988 10.6647 37.0814 10.4986 37.0814 10.2977C37.0814 10.0831 36.9776 9.9238 36.7698 9.81993C36.569 9.71606 36.247 9.6018 35.8038 9.47716C35.3745 9.35944 35.0248 9.24518 34.7547 9.13438C34.4847 9.02359 34.2492 8.85393 34.0484 8.62541C33.8545 8.3969 33.7576 8.09567 33.7576 7.72174C33.7576 7.41705 33.8476 7.14006 34.0276 6.89077C34.2077 6.63455 34.4639 6.43374 34.7963 6.28832C35.1356 6.1429 35.5234 6.07019 35.9596 6.07019C36.6106 6.07019 37.1334 6.23638 37.5281 6.56877C37.9297 6.89423 38.1444 7.34088 38.1721 7.9087H36.988C36.9672 7.65249 36.8633 7.44821 36.6764 7.29587C36.4894 7.14352 36.2366 7.06735 35.9181 7.06735C35.6065 7.06735 35.3676 7.12621 35.2014 7.24393C35.0352 7.36165 34.9521 7.51746 34.9521 7.71135C34.9521 7.86369 35.0075 7.9918 35.1183 8.09567C35.2291 8.19954 35.3641 8.28264 35.5234 8.34496C35.6827 8.40036 35.9181 8.47307 36.2297 8.56309C36.6452 8.67389 36.9845 8.78815 37.2476 8.90587C37.5177 9.01666 37.7497 9.18286 37.9436 9.40445C38.1375 9.62604 38.2379 9.92034 38.2448 10.2873C38.2448 10.6128 38.1548 10.9037 37.9747 11.1599C37.7947 11.4161 37.5385 11.6169 37.2061 11.7623C36.8806 11.9077 36.4963 11.9804 36.0531 11.9804ZM44.1857 11.9597C43.7009 11.9597 43.2647 11.8766 42.8769 11.7104C42.4891 11.5373 42.1844 11.2949 41.9628 10.9833C41.7412 10.6717 41.6304 10.3081 41.6304 9.89264H42.8977C42.9254 10.2043 43.0465 10.4605 43.2612 10.6613C43.4828 10.8621 43.7909 10.9625 44.1857 10.9625C44.5942 10.9625 44.9128 10.8656 45.1413 10.6717C45.3698 10.4709 45.484 10.2146 45.484 9.90303C45.484 9.66066 45.4113 9.46331 45.2659 9.31096C45.1274 9.15862 44.9508 9.0409 44.7362 8.9578C44.5284 8.8747 44.2376 8.78468 43.8637 8.68774C43.3928 8.56309 43.0085 8.43845 42.7107 8.3138C42.4198 8.18223 42.1706 7.98141 41.9628 7.71135C41.7551 7.44129 41.6512 7.0812 41.6512 6.63109C41.6512 6.21561 41.7551 5.85206 41.9628 5.54045C42.1706 5.22883 42.4614 4.98993 42.8353 4.82374C43.2093 4.65754 43.6421 4.57445 44.1337 4.57445C44.8331 4.57445 45.4044 4.75103 45.8476 5.10419C46.2977 5.45042 46.547 5.92823 46.5955 6.53761H45.2867C45.2659 6.27447 45.1413 6.04941 44.9128 5.86245C44.6842 5.67548 44.383 5.58199 44.0091 5.58199C43.6698 5.58199 43.3928 5.66855 43.1781 5.84167C42.9634 6.01479 42.8561 6.26408 42.8561 6.58954C42.8561 6.81113 42.9219 6.99464 43.0535 7.14006C43.192 7.27855 43.3651 7.38935 43.5728 7.47245C43.7806 7.55554 44.0645 7.64557 44.4246 7.74251C44.9024 7.87408 45.2901 8.00565 45.5879 8.13722C45.8926 8.26879 46.1488 8.47307 46.3566 8.75006C46.5712 9.02012 46.6786 9.38367 46.6786 9.8407C46.6786 10.2077 46.5781 10.554 46.3773 10.8794C46.1834 11.2049 45.8961 11.468 45.5152 11.6688C45.1413 11.8627 44.6981 11.9597 44.1857 11.9597ZM47.4733 8.99935C47.4733 8.4246 47.5911 7.91563 47.8265 7.47245C48.0689 7.02926 48.3943 6.68649 48.8029 6.44412C49.2184 6.19483 49.6754 6.07019 50.174 6.07019C50.6241 6.07019 51.0153 6.16021 51.3477 6.34025C51.687 6.51337 51.9571 6.7315 52.1579 6.99464V6.16367H53.3524V11.887H52.1579V11.0352C51.9571 11.3053 51.6836 11.5303 51.3373 11.7104C50.9911 11.8904 50.5964 11.9804 50.1532 11.9804C49.6615 11.9804 49.2114 11.8558 48.8029 11.6065C48.3943 11.3503 48.0689 10.9971 47.8265 10.547C47.5911 10.09 47.4733 9.5741 47.4733 8.99935ZM52.1579 9.02012C52.1579 8.62541 52.0748 8.28264 51.9086 7.9918C51.7494 7.70096 51.5382 7.47937 51.275 7.32703C51.0119 7.17468 50.728 7.09851 50.4233 7.09851C50.1186 7.09851 49.8347 7.17468 49.5715 7.32703C49.3084 7.47245 49.0937 7.69058 48.9275 7.98141C48.7683 8.26533 48.6886 8.60464 48.6886 8.99935C48.6886 9.39406 48.7683 9.7403 48.9275 10.0381C49.0937 10.3358 49.3084 10.5643 49.5715 10.7236C49.8416 10.876 50.1255 10.9521 50.4233 10.9521C50.728 10.9521 51.0119 10.876 51.275 10.7236C51.5382 10.5713 51.7494 10.3497 51.9086 10.0588C52.0748 9.76107 52.1579 9.41483 52.1579 9.02012ZM55.8841 6.99464C56.0572 6.7038 56.2858 6.47875 56.5697 6.31948C56.8605 6.15329 57.2033 6.07019 57.598 6.07019V7.29587H57.2968C56.8328 7.29587 56.4796 7.41359 56.2373 7.64903C56.0018 7.88447 55.8841 8.29303 55.8841 8.8747V11.887H54.7V6.16367H55.8841V6.99464ZM58.084 8.99935C58.084 8.4246 58.2017 7.91563 58.4372 7.47245C58.6795 7.02926 59.005 6.68649 59.4135 6.44412C59.829 6.19483 60.2861 6.07019 60.7846 6.07019C61.2347 6.07019 61.626 6.16021 61.9584 6.34025C62.2977 6.51337 62.5678 6.7315 62.7686 6.99464V6.16367H63.9631V11.887H62.7686V11.0352C62.5678 11.3053 62.2942 11.5303 61.948 11.7104C61.6018 11.8904 61.207 11.9804 60.7639 11.9804C60.2722 11.9804 59.8221 11.8558 59.4135 11.6065C59.005 11.3503 58.6795 10.9971 58.4372 10.547C58.2017 10.09 58.084 9.5741 58.084 8.99935ZM62.7686 9.02012C62.7686 8.62541 62.6855 8.28264 62.5193 7.9918C62.36 7.70096 62.1488 7.47937 61.8857 7.32703C61.6225 7.17468 61.3386 7.09851 61.0339 7.09851C60.7292 7.09851 60.4453 7.17468 60.1822 7.32703C59.919 7.47245 59.7044 7.69058 59.5382 7.98141C59.3789 8.26533 59.2993 8.60464 59.2993 8.99935C59.2993 9.39406 59.3789 9.7403 59.5382 10.0381C59.7044 10.3358 59.919 10.5643 60.1822 10.7236C60.4523 10.876 60.7362 10.9521 61.0339 10.9521C61.3386 10.9521 61.6225 10.876 61.8857 10.7236C62.1488 10.5713 62.36 10.3497 62.5193 10.0588C62.6855 9.76107 62.7686 9.41483 62.7686 9.02012ZM68.271 6.07019C68.7072 6.07019 69.095 6.16367 69.4343 6.35064C69.7806 6.53761 70.0506 6.8146 70.2445 7.18161C70.4453 7.54862 70.5458 7.9918 70.5458 8.51116V11.887H69.372V8.68774C69.372 8.17531 69.2439 7.78406 68.9877 7.51399C68.7315 7.23701 68.3818 7.09851 67.9386 7.09851C67.4954 7.09851 67.1422 7.23701 66.8791 7.51399C66.6229 7.78406 66.4948 8.17531 66.4948 8.68774V11.887H65.3107V4.20051H66.4948V6.82845C66.6956 6.58608 66.9484 6.39911 67.253 6.26754C67.5647 6.13597 67.904 6.07019 68.271 6.07019ZM72.0354 4.66793H73.3234L72.2328 7.14006H71.4018L72.0354 4.66793ZM76.2337 11.9804C75.7836 11.9804 75.3785 11.9008 75.0185 11.7415C74.6653 11.5753 74.3848 11.3538 74.1771 11.0768C73.9694 10.7929 73.8586 10.4778 73.8447 10.1315H75.0704C75.0912 10.3739 75.2054 10.5782 75.4132 10.7444C75.6278 10.9037 75.8944 10.9833 76.213 10.9833C76.5454 10.9833 76.8016 10.921 76.9816 10.7963C77.1686 10.6647 77.2621 10.4986 77.2621 10.2977C77.2621 10.0831 77.1582 9.9238 76.9505 9.81993C76.7496 9.71606 76.4276 9.6018 75.9845 9.47716C75.5551 9.35944 75.2054 9.24518 74.9354 9.13438C74.6653 9.02359 74.4298 8.85393 74.229 8.62541C74.0351 8.3969 73.9382 8.09567 73.9382 7.72174C73.9382 7.41705 74.0282 7.14006 74.2083 6.89077C74.3883 6.63455 74.6445 6.43374 74.9769 6.28832C75.3162 6.1429 75.704 6.07019 76.1403 6.07019C76.7912 6.07019 77.314 6.23638 77.7087 6.56877C78.1103 6.89423 78.325 7.34088 78.3527 7.9087H77.1686C77.1478 7.65249 77.0439 7.44821 76.857 7.29587C76.67 7.14352 76.4172 7.06735 76.0987 7.06735C75.7871 7.06735 75.5482 7.12621 75.382 7.24393C75.2158 7.36165 75.1327 7.51746 75.1327 7.71135C75.1327 7.86369 75.1881 7.9918 75.2989 8.09567C75.4097 8.19954 75.5447 8.28264 75.704 8.34496C75.8633 8.40036 76.0987 8.47307 76.4103 8.56309C76.8258 8.67389 77.1651 8.78815 77.4283 8.90587C77.6983 9.01666 77.9303 9.18286 78.1242 9.40445C78.3181 9.62604 78.4185 9.92034 78.4254 10.2873C78.4254 10.6128 78.3354 10.9037 78.1554 11.1599C77.9753 11.4161 77.7191 11.6169 77.3867 11.7623C77.0612 11.9077 76.6769 11.9804 76.2337 11.9804ZM86.3398 10.412H83.3172L82.7978 11.887H81.5618L84.1481 4.65754H85.5192L88.1056 11.887H86.8592L86.3398 10.412ZM86.0074 9.446L84.8337 6.09096L83.6496 9.446H86.0074ZM91.2349 10.8275L92.8553 6.16367H94.1121L91.9308 11.887H90.5182L88.3473 6.16367H89.6145L91.2349 10.8275ZM94.4047 8.99935C94.4047 8.4246 94.5225 7.91563 94.7579 7.47245C95.0003 7.02926 95.3257 6.68649 95.7343 6.44412C96.1498 6.19483 96.6068 6.07019 97.1054 6.07019C97.5555 6.07019 97.9467 6.16021 98.2791 6.34025C98.6184 6.51337 98.8885 6.7315 99.0893 6.99464V6.16367H100.284V11.887H99.0893V11.0352C98.8885 11.3053 98.615 11.5303 98.2687 11.7104C97.9225 11.8904 97.5278 11.9804 97.0846 11.9804C96.593 11.9804 96.1429 11.8558 95.7343 11.6065C95.3257 11.3503 95.0003 10.9971 94.7579 10.547C94.5225 10.09 94.4047 9.5741 94.4047 8.99935ZM99.0893 9.02012C99.0893 8.62541 99.0062 8.28264 98.84 7.9918C98.6808 7.70096 98.4696 7.47937 98.2064 7.32703C97.9433 7.17468 97.6594 7.09851 97.3547 7.09851C97.05 7.09851 96.7661 7.17468 96.5029 7.32703C96.2398 7.47245 96.0251 7.69058 95.8589 7.98141C95.6997 8.26533 95.62 8.60464 95.62 8.99935C95.62 9.39406 95.6997 9.7403 95.8589 10.0381C96.0251 10.3358 96.2398 10.5643 96.5029 10.7236C96.773 10.876 97.0569 10.9521 97.3547 10.9521C97.6594 10.9521 97.9433 10.876 98.2064 10.7236C98.4696 10.5713 98.6808 10.3497 98.84 10.0588C99.0062 9.76107 99.0893 9.41483 99.0893 9.02012ZM102.234 5.40541C102.019 5.40541 101.839 5.3327 101.694 5.18729C101.548 5.04187 101.476 4.86182 101.476 4.64716C101.476 4.43249 101.548 4.25245 101.694 4.10703C101.839 3.96161 102.019 3.8889 102.234 3.8889C102.442 3.8889 102.618 3.96161 102.764 4.10703C102.909 4.25245 102.982 4.43249 102.982 4.64716C102.982 4.86182 102.909 5.04187 102.764 5.18729C102.618 5.3327 102.442 5.40541 102.234 5.40541ZM102.816 6.16367V11.887H101.631V6.16367H102.816ZM103.768 8.99935C103.768 8.4246 103.885 7.91563 104.121 7.47245C104.363 7.02926 104.689 6.68649 105.097 6.44412C105.513 6.19483 105.97 6.07019 106.468 6.07019C106.918 6.07019 107.31 6.16021 107.642 6.34025C107.981 6.51337 108.252 6.7315 108.452 6.99464V6.16367H109.647V11.887H108.452V11.0352C108.252 11.3053 107.978 11.5303 107.632 11.7104C107.286 11.8904 106.891 11.9804 106.448 11.9804C105.956 11.9804 105.506 11.8558 105.097 11.6065C104.689 11.3503 104.363 10.9971 104.121 10.547C103.885 10.09 103.768 9.5741 103.768 8.99935ZM108.452 9.02012C108.452 8.62541 108.369 8.28264 108.203 7.9918C108.044 7.70096 107.833 7.47937 107.569 7.32703C107.306 7.17468 107.022 7.09851 106.718 7.09851C106.413 7.09851 106.129 7.17468 105.866 7.32703C105.603 7.47245 105.388 7.69058 105.222 7.98141C105.063 8.26533 104.983 8.60464 104.983 8.99935C104.983 9.39406 105.063 9.7403 105.222 10.0381C105.388 10.3358 105.603 10.5643 105.866 10.7236C106.136 10.876 106.42 10.9521 106.718 10.9521C107.022 10.9521 107.306 10.876 107.569 10.7236C107.833 10.5713 108.044 10.3497 108.203 10.0588C108.369 9.76107 108.452 9.41483 108.452 9.02012ZM112.179 7.01541C112.379 6.73843 112.653 6.51337 112.999 6.34025C113.352 6.16021 113.744 6.07019 114.173 6.07019C114.678 6.07019 115.135 6.19137 115.544 6.43374C115.953 6.6761 116.275 7.02234 116.51 7.47245C116.745 7.91563 116.863 8.4246 116.863 8.99935C116.863 9.5741 116.745 10.09 116.51 10.547C116.275 10.9971 115.949 11.3503 115.534 11.6065C115.125 11.8558 114.671 11.9804 114.173 11.9804C113.73 11.9804 113.335 11.8939 112.989 11.7208C112.649 11.5477 112.379 11.3261 112.179 11.056V11.887H110.994V4.20051H112.179V7.01541ZM115.658 8.99935C115.658 8.60464 115.575 8.26533 115.409 7.98141C115.25 7.69058 115.035 7.47245 114.765 7.32703C114.502 7.17468 114.218 7.09851 113.913 7.09851C113.615 7.09851 113.331 7.17468 113.061 7.32703C112.798 7.47937 112.584 7.70096 112.417 7.9918C112.258 8.28264 112.179 8.62541 112.179 9.02012C112.179 9.41483 112.258 9.76107 112.417 10.0588C112.584 10.3497 112.798 10.5713 113.061 10.7236C113.331 10.876 113.615 10.9521 113.913 10.9521C114.218 10.9521 114.502 10.876 114.765 10.7236C115.035 10.5643 115.25 10.3358 115.409 10.0381C115.575 9.7403 115.658 9.39406 115.658 8.99935ZM119.01 4.20051V11.887H117.826V4.20051H119.01ZM125.603 8.88509C125.603 9.09976 125.589 9.29365 125.561 9.46677H121.188C121.223 9.9238 121.393 10.2908 121.697 10.5678C122.002 10.8448 122.376 10.9833 122.819 10.9833C123.456 10.9833 123.906 10.7167 124.169 10.1835H125.447C125.274 10.7098 124.959 11.1426 124.502 11.4819C124.052 11.8143 123.491 11.9804 122.819 11.9804C122.272 11.9804 121.78 11.8593 121.344 11.6169C120.915 11.3676 120.576 11.0214 120.326 10.5782C120.084 10.1281 119.963 9.60873 119.963 9.02012C119.963 8.43152 120.08 7.91563 120.316 7.47245C120.558 7.02234 120.894 6.6761 121.323 6.43374C121.76 6.19137 122.258 6.07019 122.819 6.07019C123.359 6.07019 123.841 6.18791 124.263 6.42335C124.685 6.65879 125.014 6.99118 125.25 7.42051C125.485 7.84292 125.603 8.33111 125.603 8.88509ZM124.367 8.51116C124.36 8.0749 124.204 7.7252 123.899 7.46206C123.595 7.19892 123.217 7.06735 122.767 7.06735C122.359 7.06735 122.009 7.19892 121.718 7.46206C121.427 7.71827 121.254 8.06797 121.199 8.51116H124.367Z" fill="#6B6B6B" />
</svg>