<svg width="10" height="10" viewBox="0 0 10 10" fill="none" xmlns="http://www.w3.org/2000/svg">
    <g clip-path="url(#clip0_464_1282)">
        <mask id="path-1-inside-1_464_1282" fill="white">
            <path d="M4.9281 5.0614C6.22801 5.0614 7.28515 4.0546 7.28515 2.81659C7.28515 1.57857 6.22801 0.571777 4.9281 0.571777C3.62818 0.571777 2.57104 1.57857 2.57104 2.81659C2.57104 4.0546 3.62818 5.0614 4.9281 5.0614ZM4.9281 0.945912C6.01116 0.945912 6.8923 1.7851 6.8923 2.81659C6.8923 3.84808 6.01116 4.68726 4.9281 4.68726C3.84503 4.68726 2.96389 3.84808 2.96389 2.81659C2.96389 1.7851 3.84503 0.945912 4.9281 0.945912Z"/>
        </mask>
        <path d="M4.9281 6.12666C6.76676 6.12666 8.35041 4.69131 8.35041 2.81659H6.21988C6.21988 3.41789 5.68925 3.99613 4.9281 3.99613V6.12666ZM8.35041 2.81659C8.35041 0.941865 6.76676 -0.493487 4.9281 -0.493487V1.63704C5.68925 1.63704 6.21988 2.21528 6.21988 2.81659H8.35041ZM4.9281 -0.493487C3.08943 -0.493487 1.50578 0.941865 1.50578 2.81659H3.63631C3.63631 2.21528 4.16694 1.63704 4.9281 1.63704V-0.493487ZM1.50578 2.81659C1.50578 4.69131 3.08943 6.12666 4.9281 6.12666V3.99613C4.16694 3.99613 3.63631 3.41789 3.63631 2.81659H1.50578ZM4.9281 2.01118C5.47241 2.01118 5.82704 2.42181 5.82704 2.81659H7.95757C7.95757 1.14839 6.54991 -0.119352 4.9281 -0.119352V2.01118ZM5.82704 2.81659C5.82704 3.21137 5.47241 3.622 4.9281 3.622V5.75253C6.54991 5.75253 7.95757 4.48479 7.95757 2.81659H5.82704ZM4.9281 3.622C4.38379 3.622 4.02915 3.21137 4.02915 2.81659H1.89862C1.89862 4.48479 3.30628 5.75253 4.9281 5.75253V3.622ZM4.02915 2.81659C4.02915 2.42181 4.38379 2.01118 4.9281 2.01118V-0.119352C3.30628 -0.119352 1.89862 1.14839 1.89862 2.81659H4.02915Z" fill="#2C2240" mask="url(#path-1-inside-1_464_1282)"/>
        <path d="M4.69226 5.95934C4.56215 5.95934 4.45656 5.85877 4.45656 5.73486C4.45656 5.61094 4.56215 5.51038 4.69226 5.51038H4.92797C7.39721 5.51038 9.40636 7.42385 9.40636 9.77551C9.40636 9.89943 9.30077 10 9.17066 10C9.04055 10 8.93495 9.89943 8.93495 9.77551C8.93495 7.67123 7.13747 5.95934 4.92797 5.95934H4.69226Z" fill="#2C2240"/>
        <path d="M4.92797 5.95934C5.05808 5.95934 5.16367 5.85877 5.16367 5.73486C5.16367 5.61094 5.05808 5.51038 4.92797 5.51038H4.69226C2.22302 5.51038 0.213867 7.42385 0.213867 9.77551C0.213867 9.89943 0.319463 10 0.449572 10C0.579681 10 0.685277 9.89943 0.685277 9.77551C0.685277 7.67123 2.48276 5.95934 4.69226 5.95934H4.92797Z" fill="#2C2240"/>
    </g>
    <defs>
        <clipPath id="clip0_464_1282">
            <rect width="9.4282" height="9.4282" fill="white" transform="translate(0.213867 0.571777)"/>
        </clipPath>
    </defs>
</svg>