<svg xmlns="http://www.w3.org/2000/svg" viewBox="0 0 14 14" fill="none">
    <g clip-path="url(#clip0_1047_4664)">
        <path d="M9.66061 6.6451C7.79502 6.6451 6.27714 8.16297 6.27714 10.0286C6.27714 11.8832 7.79502 13.3917 9.66061 13.3917C11.5262 13.3917 13.0441 11.8739 13.0441 10.0083C13.0441 8.1536 11.5262 6.6451 9.66061 6.6451ZM9.66061 12.8712C8.08235 12.8712 6.79767 11.5959 6.79767 10.0286C6.79767 8.44979 8.08235 7.16563 9.66061 7.16563C11.2389 7.16563 12.5235 8.44094 12.5235 10.0083C12.5235 11.587 11.2389 12.8712 9.66061 12.8712ZM10.3654 10.3445C10.4669 10.446 10.4669 10.611 10.3654 10.7125C10.3144 10.7636 10.2478 10.7885 10.1811 10.7885C10.1145 10.7885 10.0479 10.763 9.99687 10.7125L9.47634 10.192C9.42741 10.1431 9.40034 10.077 9.40034 10.0077V8.96668C9.40034 8.82301 9.51694 8.70641 9.66061 8.70641C9.80428 8.70641 9.92088 8.82301 9.92088 8.96668V9.89999L10.3654 10.3445ZM10.7017 1.93999H9.92088V1.15919C9.92088 1.01553 9.80428 0.898926 9.66061 0.898926C9.51694 0.898926 9.40034 1.01553 9.40034 1.15919V1.93999H4.19501V1.15919C4.19501 1.01553 4.07841 0.898926 3.93474 0.898926C3.79107 0.898926 3.67447 1.01553 3.67447 1.15919V1.93999H2.89367C1.60223 1.93999 0.55127 2.99095 0.55127 4.2824V11.0493C0.55127 12.3408 1.60223 13.3917 2.89367 13.3917H6.01687C6.16054 13.3917 6.27714 13.2751 6.27714 13.1315C6.27714 12.9878 6.16054 12.8712 6.01687 12.8712H2.89367C1.88904 12.8712 1.0718 12.054 1.0718 11.0493V5.58373H12.5235V6.36453C12.5235 6.5082 12.6401 6.6248 12.7838 6.6248C12.9275 6.6248 13.0441 6.5082 13.0441 6.36453V4.2824C13.0441 2.99095 11.9931 1.93999 10.7017 1.93999ZM1.0718 5.0632V4.2824C1.0718 3.27777 1.88904 2.46053 2.89367 2.46053H10.7017C11.7063 2.46053 12.5235 3.27777 12.5235 4.2824V5.0632H1.0718Z" fill="#2C2240"/>
    </g>
    <defs>
        <clipPath id="clip0_1047_4664">
            <rect width="12.4928" height="12.4928" fill="white" transform="translate(0.55127 0.898926)"/>
        </clipPath>
    </defs>
</svg>