<svg viewBox="0 0 12 15" fill="none" xmlns="http://www.w3.org/2000/svg">
    <path d="M11.1286 1.55696H8.949V0.866111C8.94851 0.634999 8.85649 0.413492 8.69307 0.250071C8.52964 0.0866496 8.30814 -0.00537435 8.07703 -0.00585938H4.59496C4.36372 -0.0055765 4.14201 0.0863581 3.97843 0.249801C3.81484 0.413244 3.72271 0.634867 3.72222 0.866111V1.55696H1.54261C1.32282 1.5572 1.11211 1.64462 0.956695 1.80003C0.801283 1.95544 0.713866 2.16615 0.713623 2.38594V3.28193C0.713906 3.5017 0.801336 3.71239 0.956739 3.86779C1.11214 4.0232 1.32283 4.11063 1.54261 4.11091H1.55347V13.1428C1.55379 13.4487 1.67545 13.742 1.89174 13.9584C2.10804 14.1747 2.40131 14.2964 2.70722 14.2967H9.964C10.2699 14.2964 10.5632 14.1747 10.7795 13.9584C10.9958 13.742 11.1174 13.4487 11.1178 13.1428V4.11091H11.1286C11.3484 4.11063 11.559 4.02319 11.7144 3.86778C11.8698 3.71238 11.9572 3.50169 11.9574 3.28193V2.38594C11.9572 2.16617 11.8699 1.95545 11.7145 1.80004C11.5591 1.64462 11.3484 1.5572 11.1286 1.55696ZM4.25765 0.866111C4.25793 0.776807 4.29358 0.691253 4.3568 0.628177C4.42002 0.565101 4.50566 0.529641 4.59496 0.529561H8.07626C8.16543 0.529843 8.25087 0.565392 8.31393 0.628446C8.37698 0.6915 8.41253 0.776939 8.41281 0.866111V1.55696H4.25765V0.866111ZM10.5823 13.1428C10.5822 13.3068 10.517 13.464 10.4011 13.5799C10.2851 13.6959 10.128 13.7611 9.964 13.7613H2.70722C2.54326 13.7611 2.38608 13.6959 2.27016 13.5799C2.15424 13.464 2.08905 13.3068 2.08889 13.1428V4.11091H10.5823V13.1428ZM11.422 3.28193C11.422 3.35975 11.3911 3.43437 11.3361 3.48941C11.281 3.54445 11.2064 3.57541 11.1286 3.57549H1.54261C1.46477 3.57541 1.39015 3.54445 1.33512 3.48942C1.28008 3.43438 1.24912 3.35976 1.24904 3.28193V2.38594C1.24912 2.30811 1.28008 2.23348 1.33512 2.17845C1.39015 2.12341 1.46477 2.09246 1.54261 2.09238H11.1286C11.2064 2.09246 11.281 2.12342 11.3361 2.17846C11.3911 2.2335 11.422 2.30812 11.422 2.38594V3.28193Z" fill="#C20000"/>
    <path d="M6.33558 11.9703C6.37074 11.9704 6.40556 11.9634 6.43805 11.95C6.47054 11.9366 6.50006 11.9168 6.52493 11.892C6.54979 11.8671 6.56951 11.8376 6.58295 11.8051C6.5964 11.7726 6.60331 11.7378 6.60329 11.7026V6.17005C6.60329 6.09905 6.57509 6.03096 6.52488 5.98075C6.47468 5.93055 6.40658 5.90234 6.33558 5.90234C6.26458 5.90234 6.19649 5.93055 6.14628 5.98075C6.09608 6.03096 6.06787 6.09905 6.06787 6.17005V11.7026C6.06787 11.7736 6.09608 11.8417 6.14628 11.8919C6.19649 11.9421 6.26458 11.9703 6.33558 11.9703Z" fill="#C20000"/>
    <path d="M8.68128 11.9703C8.75229 11.9703 8.82038 11.9421 8.87058 11.8919C8.92079 11.8417 8.94899 11.7736 8.94899 11.7026V6.17005C8.94899 6.09905 8.92079 6.03096 8.87058 5.98075C8.82038 5.93055 8.75229 5.90234 8.68128 5.90234C8.61028 5.90234 8.54219 5.93055 8.49199 5.98075C8.44178 6.03096 8.41357 6.09905 8.41357 6.17005V11.7026C8.41357 11.7736 8.44178 11.8417 8.49199 11.8919C8.54219 11.9421 8.61028 11.9703 8.68128 11.9703Z" fill="#C20000"/>
    <path d="M3.99012 11.9703C4.06112 11.9703 4.12922 11.9421 4.17942 11.8919C4.22963 11.8417 4.25783 11.7736 4.25783 11.7026V6.17005C4.25783 6.09905 4.22963 6.03096 4.17942 5.98075C4.12922 5.93055 4.06112 5.90234 3.99012 5.90234C3.91912 5.90234 3.85103 5.93055 3.80082 5.98075C3.75062 6.03096 3.72241 6.09905 3.72241 6.17005V11.7026C3.72241 11.7736 3.75062 11.8417 3.80082 11.8919C3.85103 11.9421 3.91912 11.9703 3.99012 11.9703Z" fill="#C20000"/>
</svg>