<svg xmlns="http://www.w3.org/2000/svg" width="12" height="12" viewBox="0 0 16 16" fill="none">
    <path d="M1.57576 14.4242C1.6193 14.4678 1.67099 14.5023 1.7279 14.5259C1.7848 14.5495 1.8458 14.5617 1.9074 14.5617C1.969 14.5617 2.03 14.5495 2.08691 14.5259C2.14381 14.5023 2.19551 14.4678 2.23904 14.4242L7.99998 8.66325L13.7633 14.4242C13.8512 14.5121 13.9705 14.5616 14.0949 14.5616C14.2193 14.5616 14.3386 14.5121 14.4265 14.4242C14.5145 14.3362 14.5639 14.2169 14.5639 14.0925C14.5639 13.9682 14.5145 13.8489 14.4265 13.7609L8.66326 7.99997L14.4242 2.23669C14.5122 2.14873 14.5616 2.02944 14.5616 1.90505C14.5616 1.78066 14.5122 1.66136 14.4242 1.57341C14.3362 1.48545 14.2169 1.43604 14.0926 1.43604C13.9682 1.43604 13.8489 1.48545 13.7609 1.57341L7.99998 7.33669L2.2367 1.57575C2.14703 1.49896 2.03168 1.45883 1.91371 1.46338C1.79573 1.46794 1.68382 1.51685 1.60034 1.60033C1.51686 1.68381 1.46795 1.79572 1.4634 1.91369C1.45884 2.03167 1.49897 2.14701 1.57576 2.23669L7.3367 7.99997L1.57576 13.7632C1.48846 13.8511 1.43945 13.9699 1.43945 14.0937C1.43945 14.2176 1.48846 14.3364 1.57576 14.4242Z" fill="#BCB4D9" />
</svg>