<svg xmlns="http://www.w3.org/2000/svg"  viewBox="0 0 18 18" fill="none">
  <g clip-path="url(#clip0_530_2440)">
    <path d="M5.71811 6.54011C6.14163 7.14893 6.56516 7.70481 7.04163 8.28716C7.7034 9.13422 8.4181 9.95481 9.47693 10.2195V15.0636C8.47105 15.646 7.41222 16.2019 6.48575 16.6783C6.43281 16.7048 6.37987 16.7842 6.37987 16.8372C6.37987 16.943 6.48575 17.0754 6.59163 17.1283C7.54458 17.7901 8.6034 18.0813 9.74163 18.1078C10.9858 18.1342 12.2299 18.1607 13.4475 17.8695C14.2946 17.6578 13.7387 16.9695 13.1299 16.8901C13.1299 16.8901 13.1563 16.8901 13.1563 16.8636C13.2887 16.7842 13.2622 16.5989 13.1299 16.5195C12.3622 16.1489 11.224 15.593 10.0063 15.0107V10.246C11.0122 10.2195 11.8063 9.47834 12.4681 8.71069C13.3681 7.67834 14.1887 6.54011 14.9034 5.3754C15.0887 5.11069 15.274 4.81952 15.4593 4.52834C15.724 4.42246 15.7769 4.29011 15.7769 4.18422C15.7769 3.97246 15.6446 3.76069 14.2152 3.5754C14.9034 2.91364 15.4858 2.33128 15.9093 1.93422C16.0152 1.96069 16.121 1.98716 16.2269 1.98716C16.3328 1.98716 16.4387 1.90775 16.4387 1.80187C16.4387 1.69599 16.3593 1.59011 16.2534 1.59011H16.2269C16.3063 1.40481 16.2269 1.14011 16.0152 1.03422C15.671 0.8754 15.274 1.29893 15.5652 1.69599C15.1152 2.14599 14.4269 2.78128 13.6858 3.52246C11.7269 3.33716 9.00046 3.31069 7.01516 3.44305C6.82987 2.2254 5.9034 1.43128 5.02987 1.29893C4.1034 1.16658 2.83281 1.48422 2.14458 2.33128C1.53575 3.09893 1.32399 4.36952 1.69458 5.34893C2.32987 6.99011 4.47399 7.44011 5.71811 6.54011ZM16.0681 1.40481L15.8828 1.43128V1.40481H16.0681ZM6.64458 4.4754C5.79752 4.39599 5.18869 4.31658 4.84458 4.21069L4.79164 4.13128C5.10928 4.0254 5.77105 3.91952 6.69752 3.86658C6.69752 4.07834 6.67105 4.29011 6.64458 4.4754ZM9.60928 8.10187C9.74163 8.10187 9.66222 8.12834 10.8534 6.91069C11.5681 7.1754 12.0975 6.46069 12.5475 6.24893C12.8916 6.09011 13.3416 6.14305 13.6593 6.38128C13.1828 6.99011 12.6799 7.59893 11.9916 8.41952C11.6475 8.84305 11.2505 9.31952 10.721 9.53128C9.87399 9.8754 9.15928 9.55775 8.68281 9.21363C7.62399 8.44599 6.75046 6.96363 6.30046 6.35481C6.43281 6.14305 6.75046 6.09011 7.01516 6.16952C7.59752 6.32834 8.25928 7.06952 9.0534 6.83128C9.23869 6.77834 9.37105 6.69893 9.52987 6.61952C10.0328 6.32834 10.0858 6.40775 10.5093 6.7254C10.0858 7.14893 9.74163 7.51952 9.47693 7.78422C9.34458 7.8901 9.42399 8.10187 9.60928 8.10187ZM13.8975 6.06363C13.474 5.74599 12.8652 5.66658 12.3622 5.90481C11.9122 6.11658 11.5946 6.56658 11.171 6.59305C11.7005 6.06363 12.2563 5.50775 12.8387 4.9254C13.4475 4.87246 14.2681 4.81952 14.8769 4.68716C14.5858 5.16364 14.2681 5.61363 13.8975 6.06363ZM10.774 6.40775C10.6416 6.32834 10.5622 6.24893 10.4563 6.16952C9.82105 5.74599 9.37105 6.30187 8.94752 6.43422C8.36516 6.61952 7.80928 5.93128 7.14752 5.77246C6.8034 5.69305 6.3534 5.71952 6.08869 6.01069L5.18869 4.68716C6.98869 5.00481 10.2975 5.03128 12.2828 4.9254C11.7534 5.45481 11.2505 5.95775 10.774 6.40775ZM12.6269 16.7578C11.7799 17.2872 10.9593 17.5254 9.82105 17.5519C8.68281 17.5783 7.80928 17.3666 6.96222 16.8636C7.86222 16.3872 8.84163 15.8842 9.71516 15.3548C10.7475 15.8313 11.8328 16.3872 12.6269 16.7578ZM15.221 4.15775C15.221 4.18422 15.1946 4.18422 15.1946 4.21069C14.8769 4.31658 14.2152 4.42246 13.2887 4.50187C13.474 4.31658 13.6593 4.13128 13.8446 3.94599C14.5328 3.99893 14.9828 4.07834 15.221 4.15775ZM13.3416 3.86658C13.1299 4.07834 12.8916 4.29011 12.6799 4.52834C10.9328 4.63422 8.76222 4.63422 7.04163 4.50187C7.09458 4.29011 7.09458 4.05187 7.09458 3.84011C8.97399 3.70775 11.4887 3.70775 13.3416 3.86658ZM2.48869 2.56952C2.99163 1.93422 4.07693 1.56364 5.0034 1.69599C5.69163 1.80187 6.45928 2.43716 6.64458 3.46952C6.11516 3.52246 5.34752 3.60187 4.81811 3.70775C5.10928 3.49599 5.50634 3.23128 5.58575 3.09893C5.74458 2.88716 5.66516 2.56952 5.4534 2.43716C5.24164 2.30481 4.92399 2.35775 4.79164 2.56952C4.68575 2.75481 4.52693 3.52246 4.47399 3.84011C4.39458 3.86658 4.34164 3.89305 4.28869 3.94599C4.28869 3.62834 4.26222 2.83422 4.15634 2.64893C4.05046 2.41069 3.75928 2.30481 3.52105 2.41069C3.28281 2.51658 3.17693 2.80775 3.28281 3.04599C3.38869 3.25775 4.02399 3.81364 4.23575 3.99893C4.18281 4.05187 4.18281 4.13128 4.18281 4.18422V4.26364C3.94458 4.15775 3.12399 3.81364 2.88575 3.81364C2.62105 3.81364 2.40928 4.0254 2.40928 4.31658C2.40928 4.58128 2.62105 4.79305 2.91222 4.79305C3.15046 4.79305 3.99752 4.42246 4.20928 4.31658C4.23575 4.34305 4.26222 4.39599 4.28869 4.42246C4.15634 4.55481 3.46811 5.26952 3.38869 5.48128C3.28281 5.74599 3.41516 6.01069 3.67987 6.11658C3.94458 6.22246 4.20928 6.09011 4.31516 5.8254C4.39458 5.61363 4.34163 4.68716 4.34163 4.44893C4.39458 4.4754 4.44752 4.50187 4.52693 4.55481C4.60634 4.71364 4.73869 4.87246 4.79164 5.00481C5.0034 5.42834 5.24163 5.79893 5.50634 6.22246C4.47399 6.99011 2.62105 6.61952 2.11811 5.21658C1.80046 4.36952 1.95928 3.23128 2.48869 2.56952Z" fill="#350ABC"/>
  </g>
  <defs>
    <clipPath id="clip0_530_2440">
      <rect width="18" height="18" fill="white"/>
    </clipPath>
  </defs>
</svg>