<svg  viewBox="0 0 19 20" fill="none" xmlns="http://www.w3.org/2000/svg">
    <g clip-path="url(#clip0_530_2045)">
        <path d="M13.8542 9.23921C11.0168 9.23921 8.70833 11.5477 8.70833 14.385C8.70833 17.2058 11.0168 19.5 13.8542 19.5C16.6915 19.5 19 17.1915 19 14.3542C19 11.5335 16.6915 9.23921 13.8542 9.23921ZM13.8542 18.7083C11.4538 18.7083 9.5 16.7687 9.5 14.385C9.5 11.9839 11.4538 10.0309 13.8542 10.0309C16.2545 10.0309 18.2083 11.9705 18.2083 14.3542C18.2083 16.7553 16.2545 18.7083 13.8542 18.7083ZM14.9261 14.8656C15.0805 15.02 15.0805 15.2709 14.9261 15.4253C14.8485 15.5029 14.7472 15.5409 14.6458 15.5409C14.5445 15.5409 14.4432 15.5021 14.3656 15.4253L13.5739 14.6336C13.4995 14.5592 13.4583 14.4587 13.4583 14.3534V12.77C13.4583 12.5515 13.6357 12.3742 13.8542 12.3742C14.0727 12.3742 14.25 12.5515 14.25 12.77V14.1895L14.9261 14.8656ZM15.4375 2.08333H14.25V0.895833C14.25 0.677333 14.0727 0.5 13.8542 0.5C13.6357 0.5 13.4583 0.677333 13.4583 0.895833V2.08333H5.54167V0.895833C5.54167 0.677333 5.36433 0.5 5.14583 0.5C4.92733 0.5 4.75 0.677333 4.75 0.895833V2.08333H3.5625C1.59838 2.08333 0 3.68171 0 5.64583V15.9375C0 17.9016 1.59838 19.5 3.5625 19.5H8.3125C8.531 19.5 8.70833 19.3227 8.70833 19.1042C8.70833 18.8857 8.531 18.7083 8.3125 18.7083H3.5625C2.03458 18.7083 0.791667 17.4654 0.791667 15.9375V7.625H18.2083V8.8125C18.2083 9.031 18.3857 9.20833 18.6042 9.20833C18.8227 9.20833 19 9.031 19 8.8125V5.64583C19 3.68171 17.4016 2.08333 15.4375 2.08333ZM0.791667 6.83333V5.64583C0.791667 4.11792 2.03458 2.875 3.5625 2.875H15.4375C16.9654 2.875 18.2083 4.11792 18.2083 5.64583V6.83333H0.791667Z" fill="#350ABC"/>
    </g>
    <defs>
        <clipPath id="clip0_530_2045">
            <rect width="19" height="19" fill="white" transform="translate(0 0.5)"/>
        </clipPath>
    </defs>
</svg>