<svg xmlns="http://www.w3.org/2000/svg" viewBox="0 0 24 25" fill="none">
    <path fill-rule="evenodd" clip-rule="evenodd" d="M12.2438 1.85938H11.6766V3.07344H12.2438V1.85938ZM11.0484 3.125L10.9219 1.91563L10.7766 1.92969L10.9031 3.13906L11.0484 3.125ZM10.0734 3.275L9.82031 2.08437L9.675 2.11719L9.92813 3.30781L10.0734 3.275ZM9.11719 3.52812L8.74219 2.37031L8.60156 2.41719L8.97656 3.575L9.11719 3.52812ZM8.19375 3.875L7.69687 2.76406L7.56094 2.825L8.0625 3.93594L8.19375 3.875ZM6.4875 4.85469L5.77031 3.87031L5.65312 3.95469L6.37031 4.93906L6.4875 4.85469ZM5.71406 5.47344L4.89844 4.56875L4.79062 4.66719L5.60625 5.57187L5.71406 5.47344ZM5.01562 6.16719L4.11094 5.35156L4.0125 5.45938L4.91719 6.275L5.01562 6.16719ZM4.39219 6.93594L3.40781 6.21875L3.32344 6.33594L4.30781 7.05313L4.39219 6.93594ZM3.39844 8.6375L2.2875 8.14062L2.22656 8.27656L3.3375 8.77344L3.39844 8.6375ZM3.04219 9.55625L1.88438 9.18125L1.8375 9.32187L2.99531 9.69687L3.04219 9.55625ZM2.78438 10.5078L1.59375 10.2547L1.56094 10.4L2.75156 10.6531L2.78438 10.5078ZM2.625 11.4828L1.41563 11.3563L1.40156 11.5016L2.61094 11.6281L2.625 11.4828ZM2.61562 13.4562L1.40625 13.5828L1.42031 13.7281L2.62969 13.6016L2.61562 13.4562ZM2.77031 14.4313L1.57969 14.6844L1.6125 14.8297L2.80312 14.5766L2.77031 14.4313ZM3.01875 15.3828L1.86094 15.7578L1.90781 15.8984L3.06563 15.5234L3.01875 15.3828ZM3.37031 16.3063L2.25938 16.7984L2.32031 16.9344L3.43125 16.4422L3.37031 16.3063ZM4.35 18.0172L3.36563 18.7344L3.45 18.8516L4.43437 18.1344L4.35 18.0172ZM4.96875 18.7859L4.06406 19.6016L4.1625 19.7094L5.06719 18.8937L4.96875 18.7859ZM5.6625 19.4844L4.85156 20.3891L4.95938 20.4875L5.77031 19.5828L5.6625 19.4844ZM6.43125 20.1078L5.71406 21.0922L5.83125 21.1813L6.54844 20.1969L6.43125 20.1078ZM7.63594 22.2125L7.77188 22.2734L8.26875 21.1625L8.13281 21.1016L7.63594 22.2125ZM9.75 22.9062L9.89531 22.9344L10.1484 21.7438L10.0031 21.7156L9.75 22.9062ZM10.8516 23.0844L10.9969 23.0984L11.1234 21.8891L10.9781 21.875L10.8516 23.0844ZM12.9469 21.8844L13.0781 23.0938L13.2234 23.0797L13.0969 21.8703L12.9469 21.8844ZM13.9266 21.7344L14.1797 22.925L14.325 22.8922L14.0719 21.7016L13.9266 21.7344ZM14.8781 21.4813L15.2531 22.6391L15.3937 22.5922L15.0187 21.4344L14.8781 21.4813ZM15.8016 21.1344L16.2938 22.2453L16.4297 22.1844L15.9375 21.0687L15.8016 21.1344ZM18.2812 19.5312L19.0969 20.4359L19.2047 20.3375L18.3891 19.4328L18.2812 19.5312ZM18.9844 18.8375L19.8891 19.6531L19.9875 19.5453L19.0828 18.7297L18.9844 18.8375ZM19.6078 18.0734L20.5922 18.7859L20.6766 18.6688L19.6922 17.9516L19.6078 18.0734ZM20.6016 16.3719L21.7125 16.8641L21.7734 16.7281L20.6625 16.2359L20.6016 16.3719ZM20.9531 15.4484L22.1109 15.8234L22.1578 15.6828L21 15.3078L20.9531 15.4484ZM21.2109 14.4969L22.4016 14.75L22.4344 14.6047L21.2438 14.3516L21.2109 14.4969ZM21.3703 13.5219L22.5797 13.6484L22.5938 13.5031L21.3844 13.3766L21.3703 13.5219ZM21.375 11.5531L22.5844 11.4266L22.5703 11.2812L21.3609 11.4078L21.375 11.5531ZM21.2297 10.5781L22.4203 10.325L22.3922 10.1797L21.2016 10.4328L21.2297 10.5781ZM20.9766 9.62188L22.1344 9.24688L22.0875 9.10625L20.9297 9.48125L20.9766 9.62188ZM20.625 8.69844L21.7359 8.20156L21.675 8.06562L20.5641 8.5625L20.625 8.69844ZM19.6453 6.9875L20.6297 6.275L20.5406 6.15781L19.5563 6.87031L19.6453 6.9875ZM19.0266 6.21875L19.9313 5.40781L19.8328 5.3L18.9281 6.11563L19.0266 6.21875ZM18.3328 5.52031L19.1484 4.61563L19.0406 4.51719L18.225 5.42188L18.3328 5.52031ZM17.5687 4.89688L18.2812 3.9125L18.1641 3.82812L17.4469 4.8125L17.5687 4.89688ZM16.3594 2.79219L16.2234 2.73125L15.7266 3.84219L15.8625 3.90312L16.3594 2.79219ZM15.3187 2.38906L15.1781 2.34219L14.8031 3.5L14.9437 3.54688L15.3187 2.38906ZM14.2453 2.09844L14.1 2.06563L13.8469 3.25625L13.9922 3.28906L14.2453 2.09844ZM13.1437 1.92031L12.9984 1.90625L12.8719 3.11562L13.0172 3.12969L13.1437 1.92031ZM6.46875 21.5938L6.96094 21.875L7.57031 20.8203L7.07812 20.5391L6.46875 21.5938ZM2.57344 12.2563H1.35938V12.8234H2.57344V12.2563ZM20.0391 17.4219L21.0938 18.0312L21.375 17.5391L20.3203 16.9297L20.0391 17.4219ZM7.5 4.21719L6.89062 3.1625L6.39844 3.44375L7.00781 4.49844L7.5 4.21719ZM11.7563 23.1406H12.3234V21.9266H11.7563V23.1406ZM17.5312 3.40625L17.0391 3.125L16.4297 4.17969L16.9219 4.46094L17.5312 3.40625ZM3.71719 17L2.6625 17.6094L2.94375 18.1016L3.99844 17.4922L3.71719 17ZM21.4266 12.1719V12.7391H22.6406V12.1719H21.4266ZM3.96094 7.57812L2.90625 6.96875L2.625 7.46094L3.67969 8.07031L3.96094 7.57812ZM16.5 20.7828L17.1094 21.8375L17.6016 21.5563L16.9922 20.5016L16.5 20.7828ZM8.67656 22.6156L8.81719 22.6625L9.19219 21.5047L9.05156 21.4578L8.67656 22.6156ZM17.5125 20.15L18.225 21.1344L18.3422 21.05L17.6297 20.0656L17.5125 20.15ZM20.2828 8L21.3375 7.39062L21.0516 6.89844L19.9969 7.50781L20.2828 8Z" fill="#350ABC"/>
    <path d="M18.2492 8.91507C18.3101 8.8635 18.3148 8.77444 18.268 8.71819C18.2305 8.67132 18.1648 8.65725 18.1086 8.676C16.9742 9.06507 13.5898 10.5182 12.0055 11.451C11.5976 11.6901 11.4617 12.2104 11.6914 12.6182C11.9305 13.0213 12.4461 13.1573 12.8539 12.9182C14.4195 11.9948 17.3492 9.726 18.2492 8.91507Z" fill="#350ABC"/>
    <path d="M12.0602 7.24453C12.0461 7.13203 11.957 7.13203 11.943 7.24453C11.8398 8.10703 11.6336 10.793 11.6289 12.143C11.6289 12.4852 11.7883 12.7758 11.9852 12.7758C12.182 12.7758 12.3461 12.4992 12.3461 12.1523C12.3461 10.8164 12.1586 8.11172 12.0602 7.24453Z" fill="#350ABC"/>
    <path fill-rule="evenodd" clip-rule="evenodd" d="M12.0008 14.0289C11.157 14.0289 10.4727 13.3445 10.4727 12.5008C10.4727 11.657 11.157 10.9727 12.0008 10.9727C12.8445 10.9727 13.5289 11.657 13.5289 12.5008C13.5289 13.3445 12.8445 14.0289 12.0008 14.0289Z" fill="white"/>
    <path d="M12.0008 13.7945C12.7153 13.7945 13.2945 13.2153 13.2945 12.5008C13.2945 11.7863 12.7153 11.207 12.0008 11.207C11.2863 11.207 10.707 11.7863 10.707 12.5008C10.707 13.2153 11.2863 13.7945 12.0008 13.7945Z" fill="#350ABC"/>
</svg>