<svg xmlns="http://www.w3.org/2000/svg"  viewBox="0 0 14 14" fill="none">
  <g clip-path="url(#clip0_530_2596)">
    <path d="M13.1326 13.5281H12.7393V1.17977C12.7393 1.04943 12.6337 0.943824 12.5034 0.943824H8.09888C7.96856 0.943824 7.86293 1.04943 7.86293 1.17977V2.20224H7.39103V1.17977C7.39103 1.04943 7.28538 0.943824 7.15508 0.943824H6.13259V0.235949C6.13259 0.105602 6.02693 0 5.89664 0C5.76635 0 5.66069 0.105602 5.66069 0.235949V0.943824H4.63823C4.50791 0.943824 4.40228 1.04943 4.40228 1.17977V2.20224H3.6944C3.56408 2.20224 3.45845 2.30784 3.45845 2.43819V4.40448H1.49216C1.36184 4.40448 1.25621 4.51008 1.25621 4.64043V13.5281H0.862902C0.732582 13.5281 0.626953 13.6337 0.626953 13.764C0.626953 13.8944 0.732609 14 0.862902 14H13.1326C13.2629 14 13.3685 13.8944 13.3685 13.7641C13.3685 13.6337 13.2629 13.5281 13.1326 13.5281ZM4.87415 1.41572H6.91908V2.20224H4.87415V1.41572ZM4.08763 13.5281H3.93032V13.1348C3.93032 13.0045 3.82467 12.8989 3.69438 12.8989C3.56408 12.8989 3.45843 13.0045 3.45843 13.1348V13.5281H3.30112V12.7416H4.08763V13.5281ZM5.66066 7.4719V7.87782V13.5281H4.55953V12.5056C4.55953 12.3753 4.45388 12.2697 4.32358 12.2697H3.06517C2.93485 12.2697 2.82922 12.3753 2.82922 12.5056V13.5281H1.72809V4.8764H5.66066V7.4719ZM5.89661 4.4045H3.93032V2.67416H7.8629V7.23595H6.13259V6.44943H6.84047C6.97079 6.44943 7.07642 6.34383 7.07642 6.21348C7.07642 6.08314 6.97076 5.97754 6.84047 5.97754H6.13259V5.19102H6.84047C6.97079 5.19102 7.07642 5.08542 7.07642 4.95507C7.07642 4.82472 6.97076 4.71912 6.84047 4.71912H6.13259V4.64048C6.13259 4.51011 6.02693 4.4045 5.89661 4.4045ZM10.0652 13.5281H6.13259V7.87782V7.70788H10.0652V13.5281ZM12.2674 13.5281H10.5371V7.4719V7.15728C10.5371 7.02693 10.4314 6.92133 10.3011 6.92133C10.1708 6.92133 10.0652 7.02693 10.0652 7.15728V7.23592H9.59327V7.15728C9.59327 7.02693 9.48761 6.92133 9.35732 6.92133C9.22703 6.92133 9.12137 7.02693 9.12137 7.15728V7.23592H8.33486V2.43821V1.41572H12.2674V13.5281H12.2674Z" fill="#9F9F9F"/>
    <path d="M7.15489 13.0562C7.28521 13.0562 7.39084 12.9505 7.39084 12.8202V8.41576C7.39084 8.28541 7.28519 8.17981 7.15489 8.17981C7.0246 8.17981 6.91895 8.28541 6.91895 8.41576V12.8203C6.91895 12.9506 7.02457 13.0562 7.15489 13.0562Z" fill="#9F9F9F"/>
    <path d="M8.09874 13.0563C8.22906 13.0563 8.33469 12.9507 8.33469 12.8204V8.41588C8.33469 8.28553 8.22904 8.17993 8.09874 8.17993C7.96845 8.17993 7.86279 8.28553 7.86279 8.41588V12.8204C7.86277 12.9507 7.96842 13.0563 8.09874 13.0563Z" fill="#9F9F9F"/>
    <path d="M9.04259 13.0563C9.17291 13.0563 9.27854 12.9507 9.27854 12.8204V8.41588C9.27854 8.28553 9.17288 8.17993 9.04259 8.17993C8.9123 8.17993 8.80664 8.28553 8.80664 8.41588V12.8204C8.80664 12.9507 8.9123 13.0563 9.04259 13.0563Z" fill="#9F9F9F"/>
    <path d="M9.35753 2.98876C9.48785 2.98876 9.59348 2.88316 9.59348 2.75281V2.43822C9.59348 2.30787 9.48782 2.20227 9.35753 2.20227C9.22724 2.20227 9.12158 2.30787 9.12158 2.43822V2.75284C9.12158 2.88316 9.22721 2.98876 9.35753 2.98876Z" fill="#9F9F9F"/>
    <path d="M10.3009 2.98876C10.4312 2.98876 10.5368 2.88316 10.5368 2.75281V2.43822C10.5368 2.30787 10.4312 2.20227 10.3009 2.20227C10.1706 2.20227 10.0649 2.30787 10.0649 2.43822V2.75284C10.0649 2.88316 10.1706 2.98876 10.3009 2.98876Z" fill="#9F9F9F"/>
    <path d="M11.2447 2.98876C11.3751 2.98876 11.4807 2.88316 11.4807 2.75281V2.43822C11.4807 2.30787 11.375 2.20227 11.2447 2.20227C11.1144 2.20227 11.0088 2.30787 11.0088 2.43822V2.75284C11.0088 2.88316 11.1144 2.98876 11.2447 2.98876Z" fill="#9F9F9F"/>
    <path d="M9.35753 4.56178C9.48785 4.56178 9.59348 4.45618 9.59348 4.32583V4.01122C9.59348 3.88087 9.48782 3.77527 9.35753 3.77527C9.22724 3.77527 9.12158 3.88087 9.12158 4.01122V4.32583C9.12158 4.45618 9.22721 4.56178 9.35753 4.56178Z" fill="#9F9F9F"/>
    <path d="M10.3009 4.56178C10.4312 4.56178 10.5368 4.45618 10.5368 4.32583V4.01122C10.5368 3.88087 10.4312 3.77527 10.3009 3.77527C10.1706 3.77527 10.0649 3.88087 10.0649 4.01122V4.32583C10.0649 4.45618 10.1706 4.56178 10.3009 4.56178Z" fill="#9F9F9F"/>
    <path d="M11.2447 4.56178C11.3751 4.56178 11.4807 4.45618 11.4807 4.32583V4.01122C11.4807 3.88087 11.375 3.77527 11.2447 3.77527C11.1144 3.77527 11.0088 3.88087 11.0088 4.01122V4.32583C11.0088 4.45618 11.1144 4.56178 11.2447 4.56178Z" fill="#9F9F9F"/>
    <path d="M9.35753 6.13478C9.48785 6.13478 9.59348 6.02918 9.59348 5.89883V5.58422C9.59348 5.45387 9.48782 5.34827 9.35753 5.34827C9.22724 5.34827 9.12158 5.45387 9.12158 5.58422V5.89883C9.12158 6.02915 9.22721 6.13478 9.35753 6.13478Z" fill="#9F9F9F"/>
    <path d="M10.3009 6.13478C10.4312 6.13478 10.5368 6.02918 10.5368 5.89883V5.58422C10.5368 5.45387 10.4312 5.34827 10.3009 5.34827C10.1706 5.34827 10.0649 5.45387 10.0649 5.58422V5.89883C10.0649 6.02915 10.1706 6.13478 10.3009 6.13478Z" fill="#9F9F9F"/>
    <path d="M11.2447 6.13478C11.3751 6.13478 11.4807 6.02918 11.4807 5.89883V5.58422C11.4807 5.45387 11.375 5.34827 11.2447 5.34827C11.1144 5.34827 11.0088 5.45387 11.0088 5.58422V5.89883C11.0088 6.02915 11.1144 6.13478 11.2447 6.13478Z" fill="#9F9F9F"/>
    <path d="M2.7506 6.76405C2.88092 6.76405 2.98655 6.65845 2.98655 6.52811V6.21349C2.98655 6.08314 2.88089 5.97754 2.7506 5.97754C2.6203 5.97754 2.51465 6.08314 2.51465 6.21349V6.52811C2.51465 6.65843 2.6203 6.76405 2.7506 6.76405Z" fill="#9F9F9F"/>
    <path d="M3.69445 6.76405C3.82477 6.76405 3.93039 6.65845 3.93039 6.52811V6.21349C3.93039 6.08314 3.82474 5.97754 3.69445 5.97754C3.56415 5.97754 3.4585 6.08314 3.4585 6.21349V6.52811C3.4585 6.65843 3.56412 6.76405 3.69445 6.76405Z" fill="#9F9F9F"/>
    <path d="M4.6378 6.76405C4.76812 6.76405 4.87375 6.65845 4.87375 6.52811V6.21349C4.87375 6.08314 4.7681 5.97754 4.6378 5.97754C4.50751 5.97754 4.40186 6.08314 4.40186 6.21349V6.52811C4.40186 6.65843 4.50748 6.76405 4.6378 6.76405Z" fill="#9F9F9F"/>
    <path d="M2.7506 8.33705C2.88092 8.33705 2.98655 8.23145 2.98655 8.1011V7.78649C2.98655 7.65614 2.88089 7.55054 2.7506 7.55054C2.6203 7.55054 2.51465 7.65614 2.51465 7.78649V8.1011C2.51465 8.23142 2.6203 8.33705 2.7506 8.33705Z" fill="#9F9F9F"/>
    <path d="M3.69445 8.33705C3.82477 8.33705 3.93039 8.23145 3.93039 8.1011V7.78649C3.93039 7.65614 3.82474 7.55054 3.69445 7.55054C3.56415 7.55054 3.4585 7.65614 3.4585 7.78649V8.1011C3.4585 8.23142 3.56412 8.33705 3.69445 8.33705Z" fill="#9F9F9F"/>
    <path d="M4.6378 8.33705C4.76812 8.33705 4.87375 8.23145 4.87375 8.1011V7.78649C4.87375 7.65614 4.7681 7.55054 4.6378 7.55054C4.50751 7.55054 4.40186 7.65614 4.40186 7.78649V8.1011C4.40186 8.23142 4.50748 8.33705 4.6378 8.33705Z" fill="#9F9F9F"/>
    <path d="M2.7506 9.91017C2.88092 9.91017 2.98655 9.80457 2.98655 9.67422V9.35961C2.98655 9.22926 2.88089 9.12366 2.7506 9.12366C2.6203 9.12366 2.51465 9.22926 2.51465 9.35961V9.67422C2.51465 9.80457 2.6203 9.91017 2.7506 9.91017Z" fill="#9F9F9F"/>
    <path d="M3.69445 9.91017C3.82477 9.91017 3.93039 9.80457 3.93039 9.67422V9.35961C3.93039 9.22926 3.82474 9.12366 3.69445 9.12366C3.56415 9.12366 3.4585 9.22926 3.4585 9.35961V9.67422C3.4585 9.80457 3.56412 9.91017 3.69445 9.91017Z" fill="#9F9F9F"/>
    <path d="M4.6378 9.91017C4.76812 9.91017 4.87375 9.80457 4.87375 9.67422V9.35961C4.87375 9.22926 4.7681 9.12366 4.6378 9.12366C4.50751 9.12366 4.40186 9.22926 4.40186 9.35961V9.67422C4.40186 9.80457 4.50748 9.91017 4.6378 9.91017Z" fill="#9F9F9F"/>
    <path d="M2.7506 11.4832C2.88092 11.4832 2.98655 11.3776 2.98655 11.2472V10.9326C2.98655 10.8023 2.88089 10.6967 2.7506 10.6967C2.6203 10.6967 2.51465 10.8023 2.51465 10.9326V11.2472C2.51465 11.3776 2.6203 11.4832 2.7506 11.4832Z" fill="#9F9F9F"/>
    <path d="M3.69445 11.4832C3.82477 11.4832 3.93039 11.3776 3.93039 11.2472V10.9326C3.93039 10.8023 3.82474 10.6967 3.69445 10.6967C3.56415 10.6967 3.4585 10.8023 3.4585 10.9326V11.2472C3.4585 11.3776 3.56412 11.4832 3.69445 11.4832Z" fill="#9F9F9F"/>
    <path d="M4.6378 11.4832C4.76812 11.4832 4.87375 11.3776 4.87375 11.2472V10.9326C4.87375 10.8023 4.7681 10.6967 4.6378 10.6967C4.50751 10.6967 4.40186 10.8023 4.40186 10.9326V11.2472C4.40186 11.3776 4.50748 11.4832 4.6378 11.4832Z" fill="#9F9F9F"/>
    <path d="M11.2447 7.7079C11.3751 7.7079 11.4807 7.6023 11.4807 7.47195V7.15734C11.4807 7.02699 11.375 6.92139 11.2447 6.92139C11.1144 6.92139 11.0088 7.02699 11.0088 7.15734V7.47195C11.0088 7.60227 11.1144 7.7079 11.2447 7.7079Z" fill="#9F9F9F"/>
    <path d="M11.2447 9.2809C11.3751 9.2809 11.4807 9.1753 11.4807 9.04495V8.73033C11.4807 8.59999 11.375 8.49438 11.2447 8.49438C11.1144 8.49438 11.0088 8.59999 11.0088 8.73033V9.04495C11.0088 9.17527 11.1144 9.2809 11.2447 9.2809Z" fill="#9F9F9F"/>
    <path d="M11.2447 10.8539C11.3751 10.8539 11.4807 10.7483 11.4807 10.6179V10.3033C11.4807 10.173 11.375 10.0674 11.2447 10.0674C11.1144 10.0674 11.0088 10.173 11.0088 10.3033V10.6179C11.0088 10.7483 11.1144 10.8539 11.2447 10.8539Z" fill="#9F9F9F"/>
    <path d="M11.2447 12.427C11.3751 12.427 11.4807 12.3214 11.4807 12.1911V11.8765C11.4807 11.7461 11.375 11.6405 11.2447 11.6405C11.1144 11.6405 11.0088 11.7461 11.0088 11.8765V12.1911C11.0088 12.3214 11.1144 12.427 11.2447 12.427Z" fill="#9F9F9F"/>
    <path d="M7.07634 3.69664C7.07634 3.56629 6.97069 3.46069 6.84039 3.46069H4.95275C4.82243 3.46069 4.7168 3.56629 4.7168 3.69664C4.7168 3.82699 4.82245 3.93259 4.95275 3.93259H6.84039C6.97071 3.93259 7.07634 3.82699 7.07634 3.69664Z" fill="#9F9F9F"/>
  </g>
  <defs>
    <clipPath id="clip0_530_2596">
      <rect width="14" height="14" fill="white"/>
    </clipPath>
  </defs>
</svg>