<svg xmlns="http://www.w3.org/2000/svg" width="24" height="25" viewBox="0 0 24 25" fill="none">
  <g clip-path="url(#clip0_1854_23309)">
    <path d="M5.06208 15.875H15.1871C15.5186 15.8757 15.838 15.7506 16.0808 15.525C16.3237 15.2994 16.472 14.9901 16.4958 14.6595C16.5196 14.3289 16.4171 14.0015 16.209 13.7435C16.0009 13.4855 15.7027 13.3159 15.3746 13.2691V12.5C15.3781 11.3525 15.0036 10.2357 14.3091 9.32221C13.6146 8.40871 12.6386 7.74927 11.532 7.44575L11.6246 6.5375C11.6298 6.4852 11.624 6.43238 11.6076 6.38246C11.5911 6.33254 11.5643 6.28664 11.5289 6.24775C11.4936 6.20885 11.4504 6.17782 11.4023 6.15668C11.3542 6.13553 11.3021 6.12474 11.2496 6.125H8.99958C8.94702 6.12474 8.89498 6.13553 8.84685 6.15668C8.79873 6.17782 8.75559 6.20885 8.72022 6.24775C8.68486 6.28664 8.65808 6.33254 8.6416 6.38246C8.62512 6.43238 8.61932 6.4852 8.62458 6.5375L8.71533 7.44575C7.60904 7.74968 6.63354 8.40927 5.93939 9.32273C5.24525 10.2362 4.87106 11.3527 4.87458 12.5V13.2691C4.54643 13.3159 4.24823 13.4855 4.04015 13.7435C3.83207 14.0015 3.72959 14.3289 3.75338 14.6595C3.77717 14.9901 3.92546 15.2994 4.16834 15.525C4.41121 15.7506 4.7306 15.8757 5.06208 15.875ZM13.4996 9.51988V11C13.4996 11.0995 13.4601 11.1948 13.3897 11.2652C13.3194 11.3355 13.224 11.375 13.1246 11.375C13.0251 11.375 12.9297 11.3355 12.8594 11.2652C12.7891 11.1948 12.7496 11.0995 12.7496 11V8.843C13.0243 9.03957 13.276 9.26665 13.4996 9.51988ZM10.8371 6.875L10.5746 9.46625C10.5634 9.57823 10.511 9.68204 10.4276 9.75755C10.3441 9.83306 10.2356 9.87487 10.1231 9.87487C10.0106 9.87487 9.90204 9.83306 9.81861 9.75755C9.73517 9.68204 9.68277 9.57823 9.67158 9.46625L9.41208 6.875H10.8371ZM7.49958 8.843V11C7.49958 11.0995 7.46007 11.1948 7.38975 11.2652C7.31942 11.3355 7.22404 11.375 7.12458 11.375C7.02513 11.375 6.92974 11.3355 6.85942 11.2652C6.78909 11.1948 6.74958 11.0995 6.74958 11V9.51988C6.97321 9.26665 7.22482 9.03957 7.49958 8.843ZM5.99958 10.6955V11C5.99958 11.2984 6.11811 11.5845 6.32909 11.7955C6.54007 12.0065 6.82621 12.125 7.12458 12.125C7.42295 12.125 7.7091 12.0065 7.92008 11.7955C8.13106 11.5845 8.24958 11.2984 8.24958 11V8.4095C8.42613 8.32914 8.60762 8.26013 8.79296 8.20288L8.92683 9.54088C8.9566 9.83786 9.09563 10.1132 9.31696 10.3135C9.53828 10.5137 9.82611 10.6246 10.1246 10.6246C10.4231 10.6246 10.7109 10.5137 10.9322 10.3135C11.1535 10.1132 11.2926 9.83786 11.3223 9.54088L11.4562 8.20288C11.6417 8.2598 11.8232 8.32882 11.9996 8.4095V11C11.9996 11.2984 12.1181 11.5845 12.3291 11.7955C12.5401 12.0065 12.8262 12.125 13.1246 12.125C13.423 12.125 13.7091 12.0065 13.9201 11.7955C14.1311 11.5845 14.2496 11.2984 14.2496 11V10.6955C14.4974 11.2648 14.6251 11.8791 14.6246 12.5V13.25H11.6246V12.125C11.6246 12.0255 11.5851 11.9302 11.5147 11.8598C11.4444 11.7895 11.349 11.75 11.2496 11.75H8.99958C8.90013 11.75 8.80474 11.7895 8.73442 11.8598C8.66409 11.9302 8.62458 12.0255 8.62458 12.125V13.25H5.62458V12.5C5.62411 11.8791 5.75178 11.2648 5.99958 10.6955ZM10.8746 13.25H9.37458V12.5H10.8746V13.25ZM5.06208 14H15.1871C15.3363 14 15.4793 14.0593 15.5848 14.1648C15.6903 14.2702 15.7496 14.4133 15.7496 14.5625C15.7496 14.7117 15.6903 14.8548 15.5848 14.9603C15.4793 15.0657 15.3363 15.125 15.1871 15.125H5.06208C4.9129 15.125 4.76982 15.0657 4.66433 14.9603C4.55885 14.8548 4.49958 14.7117 4.49958 14.5625C4.49958 14.4133 4.55885 14.2702 4.66433 14.1648C4.76982 14.0593 4.9129 14 5.06208 14Z" fill="#350ABC"/>
    <path d="M2.9995 17.9692L2.51462 17.4844L1.98438 18.0146L2.73438 18.7646C2.8047 18.8349 2.90006 18.8744 2.9995 18.8744C3.09894 18.8744 3.1943 18.8349 3.26462 18.7646L4.76462 17.2646L4.23438 16.7344L2.9995 17.9692Z" fill="#350ABC"/>
    <path d="M2.9995 20.9692L2.51462 20.4844L1.98438 21.0146L2.73438 21.7646C2.8047 21.8349 2.90006 21.8744 2.9995 21.8744C3.09894 21.8744 3.1943 21.8349 3.26462 21.7646L4.76462 20.2646L4.23438 19.7344L2.9995 20.9692Z" fill="#350ABC"/>
    <path d="M12.375 18.125H4.875V18.875H12.375V18.125Z" fill="#350ABC"/>
    <path d="M12.375 21.125H4.875V21.875H12.375V21.125Z" fill="#350ABC"/>
    <path d="M22.1895 10.9996C22.0009 10.9991 21.814 11.036 21.6397 11.1082C21.4655 11.1805 21.3073 11.2866 21.1744 11.4204L19.875 12.7194V2.37465C19.875 2.27519 19.8355 2.17981 19.7652 2.10948C19.6948 2.03916 19.5995 1.99965 19.5 1.99965H18.3218C18.2399 1.67806 18.0532 1.3929 17.7912 1.18923C17.5292 0.985567 17.2068 0.875 16.875 0.875C16.5432 0.875 16.2208 0.985567 15.9588 1.18923C15.6968 1.3929 15.5101 1.67806 15.4282 1.99965H13.8218C13.7399 1.67806 13.5532 1.3929 13.2912 1.18923C13.0292 0.985567 12.7068 0.875 12.375 0.875C12.0432 0.875 11.7208 0.985567 11.4588 1.18923C11.1968 1.3929 11.0101 1.67806 10.9283 1.99965H9.32175C9.2399 1.67806 9.05323 1.3929 8.79123 1.18923C8.52923 0.985567 8.20685 0.875 7.875 0.875C7.54315 0.875 7.22077 0.985567 6.95877 1.18923C6.69677 1.3929 6.5101 1.67806 6.42825 1.99965H4.82175C4.7399 1.67806 4.55323 1.3929 4.29123 1.18923C4.02923 0.985567 3.70685 0.875 3.375 0.875C3.04315 0.875 2.72077 0.985567 2.45877 1.18923C2.19677 1.3929 2.0101 1.67806 1.92825 1.99965H0.75C0.650544 1.99965 0.555161 2.03916 0.484835 2.10948C0.414509 2.17981 0.375 2.27519 0.375 2.37465V23.7496C0.375 23.8491 0.414509 23.9445 0.484835 24.0148C0.555161 24.0851 0.650544 24.1246 0.75 24.1246H19.5C19.5995 24.1246 19.6948 24.0851 19.7652 24.0148C19.8355 23.9445 19.875 23.8491 19.875 23.7496V16.7799L23.2046 13.4503C23.4054 13.2495 23.5422 12.9937 23.5976 12.7152C23.653 12.4368 23.6245 12.1481 23.5159 11.8858C23.4072 11.6235 23.2232 11.3993 22.9871 11.2415C22.751 11.0838 22.4734 10.9996 22.1895 10.9996ZM14.4139 19.5688L15.0559 20.2108L14.0929 20.5318L14.4139 19.5688ZM15.75 19.8444L14.7803 18.8746L20.625 13.0299L21.5947 13.9996L15.75 19.8444ZM16.875 1.62465C17.0061 1.62504 17.1347 1.6599 17.2481 1.72572C17.3614 1.79154 17.4554 1.88601 17.5208 1.99965H16.2292C16.2946 1.88601 16.3886 1.79154 16.5019 1.72572C16.6153 1.6599 16.7439 1.62504 16.875 1.62465ZM12.375 1.62465C12.5061 1.62504 12.6347 1.6599 12.7481 1.72572C12.8614 1.79154 12.9554 1.88601 13.0208 1.99965H11.7292C11.7946 1.88601 11.8886 1.79154 12.0019 1.72572C12.1153 1.6599 12.2439 1.62504 12.375 1.62465ZM7.875 1.62465C8.00607 1.62504 8.13472 1.6599 8.24807 1.72572C8.36141 1.79154 8.45545 1.88601 8.52075 1.99965H7.22925C7.29455 1.88601 7.38859 1.79154 7.50193 1.72572C7.61528 1.6599 7.74393 1.62504 7.875 1.62465ZM3.375 1.62465C3.50607 1.62504 3.63472 1.6599 3.74807 1.72572C3.86141 1.79154 3.95545 1.88601 4.02075 1.99965H2.72925C2.79455 1.88601 2.88859 1.79154 3.00193 1.72572C3.11528 1.6599 3.24393 1.62504 3.375 1.62465ZM4.02075 2.74965C3.95545 2.86329 3.86141 2.95776 3.74807 3.02358C3.63472 3.0894 3.50607 3.12425 3.375 3.12465V3.87465C3.70658 3.87341 4.0284 3.76233 4.29016 3.55879C4.55192 3.35524 4.73886 3.0707 4.82175 2.74965H8.52075C8.45545 2.86329 8.36141 2.95776 8.24807 3.02358C8.13472 3.0894 8.00607 3.12425 7.875 3.12465V3.87465C8.20658 3.87341 8.5284 3.76233 8.79016 3.55879C9.05192 3.35524 9.23886 3.0707 9.32175 2.74965H13.0208C12.9554 2.86329 12.8614 2.95776 12.7481 3.02358C12.6347 3.0894 12.5061 3.12425 12.375 3.12465V3.87465C12.7066 3.87341 13.0284 3.76233 13.2902 3.55879C13.5519 3.35524 13.7389 3.0707 13.8218 2.74965H17.5208C17.4554 2.86329 17.3614 2.95776 17.2481 3.02358C17.1347 3.0894 17.0061 3.12425 16.875 3.12465V3.87465C17.2066 3.87341 17.5284 3.76233 17.7902 3.55879C18.0519 3.35524 18.2389 3.0707 18.3218 2.74965H19.125V4.62465H1.125V2.74965H4.02075ZM19.125 23.3746H1.125V5.37465H19.125V13.4694L13.9849 18.6095C13.9438 18.6507 13.9128 18.7009 13.8945 18.7561L13.1445 21.0061C13.1257 21.0625 13.1206 21.1225 13.1296 21.1812C13.1385 21.2399 13.1613 21.2957 13.196 21.3438C13.2307 21.392 13.2764 21.4313 13.3292 21.4584C13.3821 21.4855 13.4406 21.4996 13.5 21.4996C13.5403 21.4996 13.5803 21.4931 13.6185 21.4802L15.8685 20.7302C15.9237 20.7118 15.9739 20.6809 16.0151 20.6398L19.125 17.5299V23.3746ZM22.6744 12.92L22.125 13.4694L21.1553 12.4996L21.7046 11.9503C21.8006 11.8545 21.9228 11.7893 22.0558 11.763C22.1888 11.7366 22.3266 11.7502 22.4518 11.8022C22.5771 11.8541 22.6841 11.942 22.7594 12.0547C22.8347 12.1674 22.875 12.2999 22.875 12.4355C22.8753 12.5255 22.8577 12.6147 22.8232 12.6979C22.7888 12.781 22.7382 12.8565 22.6744 12.92Z" fill="#350ABC"/>
  </g>
  <defs>
    <clipPath id="clip0_1854_23309">
      <rect width="24" height="24" fill="white" transform="translate(0 0.5)"/>
    </clipPath>
  </defs>
</svg>