<svg  viewBox="0 0 25 24" fill="none" xmlns="http://www.w3.org/2000/svg">
    <g clip-path="url(#clip0_1_1247)">
        <path d="M18.479 23.359C18.557 23.624 18.406 23.901 18.14 23.979C18.093 23.993 18.046 24 17.999 24C17.782 24 17.583 23.859 17.52 23.641C16.889 21.497 14.825 20 12.499 20C10.173 20 8.10902 21.497 7.47802 23.641C7.40102 23.907 7.12102 24.057 6.85802 23.98C6.59202 23.902 6.44102 23.625 6.51902 23.36C7.27302 20.793 9.73202 19.001 12.498 19.001C15.264 19.001 17.724 20.793 18.477 23.36L18.479 23.359ZM24.479 14.359C23.725 11.792 21.266 10 18.5 10C18.224 10 18 10.224 18 10.5C18 10.776 18.224 11 18.5 11C20.825 11 22.89 12.497 23.521 14.641C23.584 14.86 23.784 15 24 15C24.047 15 24.094 14.993 24.141 14.979C24.407 14.901 24.557 14.624 24.479 14.359ZM7.00002 10.5C7.00002 10.224 6.77602 10 6.50002 10C3.73302 10 1.27402 11.792 0.521016 14.359C0.443016 14.624 0.594016 14.901 0.860016 14.979C0.907016 14.993 0.954016 15 1.00102 15C1.21802 15 1.41702 14.859 1.48002 14.641C2.11102 12.497 4.17502 11 6.50102 11C6.77702 11 7.00002 10.776 7.00002 10.5ZM12.5 9C14.706 9 16.5 10.794 16.5 13C16.5 15.206 14.706 17 12.5 17C10.294 17 8.50002 15.206 8.50002 13C8.50002 10.794 10.294 9 12.5 9ZM9.50002 13C9.50002 14.654 10.846 16 12.5 16C14.154 16 15.5 14.654 15.5 13C15.5 11.346 14.154 10 12.5 10C10.846 10 9.50002 11.346 9.50002 13ZM14.5 4C14.5 1.794 16.294 0 18.5 0C20.706 0 22.5 1.794 22.5 4C22.5 6.206 20.706 8 18.5 8C16.294 8 14.5 6.206 14.5 4ZM15.5 4C15.5 5.654 16.846 7 18.5 7C20.154 7 21.5 5.654 21.5 4C21.5 2.346 20.154 1 18.5 1C16.846 1 15.5 2.346 15.5 4ZM2.50002 4C2.50002 1.794 4.29402 0 6.50002 0C8.70602 0 10.5 1.794 10.5 4C10.5 6.206 8.70602 8 6.50002 8C4.29402 8 2.50002 6.206 2.50002 4ZM3.50002 4C3.50002 5.654 4.84602 7 6.50002 7C8.15402 7 9.50002 5.654 9.50002 4C9.50002 2.346 8.15402 1 6.50002 1C4.84602 1 3.50002 2.346 3.50002 4Z" fill="#6B6B6B"/>
    </g>
    <defs>
        <clipPath id="clip0_1_1247">
            <rect width="24" height="24" fill="white" transform="translate(0.5)"/>
        </clipPath>
    </defs>
</svg>