<svg xmlns="http://www.w3.org/2000/svg"  viewBox="0 0 11 11" fill="none">
    <mask id="path-1-inside-1_2006_11187" fill="white">
        <path d="M8.81294 2.56934H3.40771C3.32277 2.56934 3.25391 2.50047 3.25391 2.41553C3.25391 2.33058 3.32277 2.26172 3.40771 2.26172H8.81294C8.89788 2.26172 8.96675 2.33058 8.96675 2.41553C8.96675 2.50047 8.89788 2.56934 8.81294 2.56934Z"/>
    </mask>
    <path d="M8.81294 2.56934H3.40771C3.32277 2.56934 3.25391 2.50047 3.25391 2.41553C3.25391 2.33058 3.32277 2.26172 3.40771 2.26172H8.81294C8.89788 2.26172 8.96675 2.33058 8.96675 2.41553C8.96675 2.50047 8.89788 2.56934 8.81294 2.56934Z" fill="#9F9F9F"/>
    <path d="M8.81294 1.86934H3.40771V3.26934H8.81294V1.86934ZM3.40771 1.86934C3.70937 1.86934 3.95391 2.11387 3.95391 2.41553H2.55391C2.55391 2.88707 2.93617 3.26934 3.40771 3.26934V1.86934ZM3.95391 2.41553C3.95391 2.71718 3.70937 2.96172 3.40771 2.96172V1.56172C2.93617 1.56172 2.55391 1.94398 2.55391 2.41553H3.95391ZM3.40771 2.96172H8.81294V1.56172H3.40771V2.96172ZM8.81294 2.96172C8.51128 2.96172 8.26675 2.71718 8.26675 2.41553H9.66675C9.66675 1.94398 9.28448 1.56172 8.81294 1.56172V2.96172ZM8.26675 2.41553C8.26675 2.11387 8.51128 1.86934 8.81294 1.86934V3.26934C9.28448 3.26934 9.66675 2.88707 9.66675 2.41553H8.26675Z" fill="#9F9F9F" mask="url(#path-1-inside-1_2006_11187)"/>
    <mask id="path-3-inside-2_2006_11187" fill="white">
        <path d="M8.81267 4.20215H1.69092C1.60597 4.20215 1.53711 4.13328 1.53711 4.04834C1.53711 3.9634 1.60597 3.89453 1.69092 3.89453H8.81269C8.89763 3.89453 8.96649 3.9634 8.96649 4.04834C8.96649 4.13328 8.89761 4.20215 8.81267 4.20215Z"/>
    </mask>
    <path d="M8.81267 4.20215H1.69092C1.60597 4.20215 1.53711 4.13328 1.53711 4.04834C1.53711 3.9634 1.60597 3.89453 1.69092 3.89453H8.81269C8.89763 3.89453 8.96649 3.9634 8.96649 4.04834C8.96649 4.13328 8.89761 4.20215 8.81267 4.20215Z" fill="#9F9F9F"/>
    <path d="M8.81267 3.50215H1.69092V4.90215H8.81267V3.50215ZM1.69092 3.50215C1.99257 3.50215 2.23711 3.74668 2.23711 4.04834H0.837109C0.837109 4.51988 1.21938 4.90215 1.69092 4.90215V3.50215ZM2.23711 4.04834C2.23711 4.35 1.99257 4.59453 1.69092 4.59453V3.19453C1.21938 3.19453 0.837109 3.5768 0.837109 4.04834H2.23711ZM1.69092 4.59453H8.81269V3.19453H1.69092V4.59453ZM8.81269 4.59453C8.51103 4.59453 8.26649 4.35 8.26649 4.04834H9.66649C9.66649 3.5768 9.28423 3.19453 8.81269 3.19453V4.59453ZM8.26649 4.04834C8.26649 3.74657 8.51113 3.50215 8.81267 3.50215V4.90215C9.28409 4.90215 9.66649 4.52 9.66649 4.04834H8.26649Z" fill="#9F9F9F" mask="url(#path-3-inside-2_2006_11187)"/>
    <path d="M8.81267 5.83105H1.69092C1.60597 5.83105 1.53711 5.76219 1.53711 5.67725C1.53711 5.5923 1.60597 5.52344 1.69092 5.52344H8.81269C8.89763 5.52344 8.96649 5.5923 8.96649 5.67725C8.96649 5.76219 8.89761 5.83105 8.81267 5.83105Z" fill="#9F9F9F"/>
    <path d="M10.3462 5.47539C10.2612 5.47539 10.1924 5.40653 10.1924 5.32158V1.467C10.1924 0.893413 9.72575 0.426758 9.15214 0.426758H1.34786C0.774272 0.426758 0.307617 0.893413 0.307617 1.467V2.0583C0.307617 2.14324 0.238752 2.21211 0.153809 2.21211C0.0688652 2.21211 0 2.14324 0 2.0583V1.467C0 0.723793 0.604652 0.119141 1.34786 0.119141H9.15214C9.89537 0.119141 10.5 0.723793 10.5 1.467V5.32158C10.5 5.40653 10.4311 5.47539 10.3462 5.47539Z" fill="#9F9F9F"/>
    <path d="M1.56579 10.3602C1.44371 10.3082 1.36484 10.1888 1.36484 10.0561V8.3969C1.36484 8.38753 1.35721 8.37992 1.34786 8.37992C0.604632 8.37992 0 7.77529 0 7.03207V2.77881C0 2.69387 0.0688652 2.625 0.153809 2.625C0.238752 2.625 0.307617 2.69387 0.307617 2.77881V7.03207C0.307617 7.60565 0.774252 8.07231 1.34786 8.07231C1.52685 8.07231 1.67245 8.21793 1.67245 8.3969V10.0561C1.67245 10.0767 1.69657 10.087 1.71146 10.0727L3.63874 8.22431C3.74093 8.1263 3.87518 8.07233 4.01678 8.07233H9.15217C9.72575 8.07233 10.1924 7.60569 10.1924 7.03209V6.04211C10.1924 5.95717 10.2613 5.88831 10.3462 5.88831C10.4312 5.88831 10.5 5.95717 10.5 6.04211V7.03209C10.5 7.77529 9.89539 8.37994 9.15217 8.37994H4.01676C3.95491 8.37994 3.89628 8.40351 3.85165 8.44633L1.92439 10.2947C1.82831 10.3869 1.68744 10.4121 1.56579 10.3602Z" fill="#9F9F9F"/>
</svg>