<svg xmlns="http://www.w3.org/2000/svg"  viewBox="0 0 18 18" fill="none">
  <path d="M8.57136 8.57143C10.9349 8.57143 12.8571 6.64929 12.8571 4.28571C12.8571 1.92214 10.9349 0 8.57136 0C6.20779 0 4.28564 1.92214 4.28564 4.28571C4.28564 6.64929 6.20779 8.57143 8.57136 8.57143ZM8.57136 0.714286C10.5406 0.714286 12.1428 2.31643 12.1428 4.28571C12.1428 6.255 10.5406 7.85714 8.57136 7.85714C6.60207 7.85714 4.99993 6.255 4.99993 4.28571C4.99993 2.31643 6.60207 0.714286 8.57136 0.714286Z" fill="#350ABC"/>
  <path d="M8.14286 10.2857C7.90629 10.2857 7.71429 10.0937 7.71429 9.85716C7.71429 9.62059 7.90629 9.42859 8.14286 9.42859H8.57143C13.0611 9.42859 16.7143 13.0817 16.7143 17.5714C16.7143 17.808 16.5223 18 16.2857 18C16.0491 18 15.8571 17.808 15.8571 17.5714C15.8571 13.554 12.5889 10.2857 8.57143 10.2857H8.14286Z" fill="#350ABC"/>
  <path d="M8.57143 10.2857C8.808 10.2857 9 10.0937 9 9.85716C9 9.62059 8.808 9.42859 8.57143 9.42859H8.14286C3.65314 9.42859 0 13.0817 0 17.5714C0 17.808 0.192 18 0.428571 18C0.665143 18 0.857143 17.808 0.857143 17.5714C0.857143 13.554 4.12543 10.2857 8.14286 10.2857H8.57143Z" fill="#350ABC"/>
</svg>