<svg viewBox="0 0 66 19" fill="none" xmlns="http://www.w3.org/2000/svg">
<rect width="66" height="19" rx="2" fill="#E7FFE5"/>
<path d="M17.1668 6.75L12.1252 11.7917L9.8335 9.5" stroke="#0C9000" stroke-width="0.8" stroke-linecap="round" stroke-linejoin="round"/>
<path d="M27.53 6.03L24.9 13H23.85L21.22 6.03H22.19L24.38 12.04L26.57 6.03H27.53ZM33.3278 10.05C33.3278 10.2233 33.3178 10.4067 33.2978 10.6H28.9178C28.9511 11.14 29.1345 11.5633 29.4678 11.87C29.8078 12.17 30.2178 12.32 30.6978 12.32C31.0911 12.32 31.4178 12.23 31.6778 12.05C31.9445 11.8633 32.1311 11.6167 32.2378 11.31H33.2178C33.0711 11.8367 32.7778 12.2667 32.3378 12.6C31.8978 12.9267 31.3511 13.09 30.6978 13.09C30.1778 13.09 29.7111 12.9733 29.2978 12.74C28.8911 12.5067 28.5711 12.1767 28.3378 11.75C28.1045 11.3167 27.9878 10.8167 27.9878 10.25C27.9878 9.68333 28.1011 9.18667 28.3278 8.76C28.5545 8.33333 28.8711 8.00667 29.2778 7.78C29.6911 7.54667 30.1645 7.43 30.6978 7.43C31.2178 7.43 31.6778 7.54333 32.0778 7.77C32.4778 7.99667 32.7845 8.31 32.9978 8.71C33.2178 9.10333 33.3278 9.55 33.3278 10.05ZM32.3878 9.86C32.3878 9.51333 32.3111 9.21667 32.1578 8.97C32.0045 8.71667 31.7945 8.52667 31.5278 8.4C31.2678 8.26667 30.9778 8.2 30.6578 8.2C30.1978 8.2 29.8045 8.34667 29.4778 8.64C29.1578 8.93333 28.9745 9.34 28.9278 9.86H32.3878ZM35.239 8.41C35.399 8.09667 35.6257 7.85333 35.919 7.68C36.219 7.50667 36.5823 7.42 37.009 7.42V8.36H36.769C35.749 8.36 35.239 8.91333 35.239 10.02V13H34.329V7.52H35.239V8.41ZM38.3295 6.63C38.1561 6.63 38.0095 6.57 37.8895 6.45C37.7695 6.33 37.7095 6.18333 37.7095 6.01C37.7095 5.83667 37.7695 5.69 37.8895 5.57C38.0095 5.45 38.1561 5.39 38.3295 5.39C38.4961 5.39 38.6361 5.45 38.7495 5.57C38.8695 5.69 38.9295 5.83667 38.9295 6.01C38.9295 6.18333 38.8695 6.33 38.7495 6.45C38.6361 6.57 38.4961 6.63 38.3295 6.63ZM38.7695 7.52V13H37.8595V7.52H38.7695ZM42.3504 8.27H41.2004V13H40.2904V8.27H39.5804V7.52H40.2904V7.13C40.2904 6.51667 40.4471 6.07 40.7604 5.79C41.0804 5.50333 41.5904 5.36 42.2904 5.36V6.12C41.8904 6.12 41.6071 6.2 41.4404 6.36C41.2804 6.51333 41.2004 6.77 41.2004 7.13V7.52H42.3504V8.27ZM43.6814 6.63C43.5081 6.63 43.3614 6.57 43.2414 6.45C43.1214 6.33 43.0614 6.18333 43.0614 6.01C43.0614 5.83667 43.1214 5.69 43.2414 5.57C43.3614 5.45 43.5081 5.39 43.6814 5.39C43.8481 5.39 43.9881 5.45 44.1014 5.57C44.2214 5.69 44.2814 5.83667 44.2814 6.01C44.2814 6.18333 44.2214 6.33 44.1014 6.45C43.9881 6.57 43.8481 6.63 43.6814 6.63ZM44.1214 7.52V13H43.2114V7.52H44.1214ZM50.4723 10.05C50.4723 10.2233 50.4623 10.4067 50.4423 10.6H46.0623C46.0957 11.14 46.279 11.5633 46.6123 11.87C46.9523 12.17 47.3623 12.32 47.8423 12.32C48.2357 12.32 48.5623 12.23 48.8223 12.05C49.089 11.8633 49.2757 11.6167 49.3823 11.31H50.3623C50.2157 11.8367 49.9223 12.2667 49.4823 12.6C49.0423 12.9267 48.4957 13.09 47.8423 13.09C47.3223 13.09 46.8557 12.9733 46.4423 12.74C46.0357 12.5067 45.7157 12.1767 45.4823 11.75C45.249 11.3167 45.1323 10.8167 45.1323 10.25C45.1323 9.68333 45.2457 9.18667 45.4723 8.76C45.699 8.33333 46.0157 8.00667 46.4223 7.78C46.8357 7.54667 47.309 7.43 47.8423 7.43C48.3623 7.43 48.8223 7.54333 49.2223 7.77C49.6223 7.99667 49.929 8.31 50.1423 8.71C50.3623 9.10333 50.4723 9.55 50.4723 10.05ZM49.5323 9.86C49.5323 9.51333 49.4557 9.21667 49.3023 8.97C49.149 8.71667 48.939 8.52667 48.6723 8.4C48.4123 8.26667 48.1223 8.2 47.8023 8.2C47.3423 8.2 46.949 8.34667 46.6223 8.64C46.3023 8.93333 46.119 9.34 46.0723 9.86H49.5323ZM51.1335 10.24C51.1335 9.68 51.2468 9.19 51.4735 8.77C51.7002 8.34333 52.0102 8.01333 52.4035 7.78C52.8035 7.54667 53.2502 7.43 53.7435 7.43C54.1702 7.43 54.5668 7.53 54.9335 7.73C55.3002 7.92333 55.5802 8.18 55.7735 8.5V5.6H56.6935V13H55.7735V11.97C55.5935 12.2967 55.3268 12.5667 54.9735 12.78C54.6202 12.9867 54.2068 13.09 53.7335 13.09C53.2468 13.09 52.8035 12.97 52.4035 12.73C52.0102 12.49 51.7002 12.1533 51.4735 11.72C51.2468 11.2867 51.1335 10.7933 51.1335 10.24ZM55.7735 10.25C55.7735 9.83667 55.6902 9.47667 55.5235 9.17C55.3568 8.86333 55.1302 8.63 54.8435 8.47C54.5635 8.30333 54.2535 8.22 53.9135 8.22C53.5735 8.22 53.2635 8.3 52.9835 8.46C52.7035 8.62 52.4802 8.85333 52.3135 9.16C52.1468 9.46667 52.0635 9.82667 52.0635 10.24C52.0635 10.66 52.1468 11.0267 52.3135 11.34C52.4802 11.6467 52.7035 11.8833 52.9835 12.05C53.2635 12.21 53.5735 12.29 53.9135 12.29C54.2535 12.29 54.5635 12.21 54.8435 12.05C55.1302 11.8833 55.3568 11.6467 55.5235 11.34C55.6902 11.0267 55.7735 10.6633 55.7735 10.25Z" fill="#0C9000"/>
</svg>