<svg  viewBox="0 0 463 425" fill="none" xmlns="http://www.w3.org/2000/svg">
    <g filter="url(#filter0_i_2171_13800)">
        <path d="M0 0H463V420.151C463 422.829 460.829 425 458.151 425C455.473 425 453.37 422.787 452.631 420.213C450.445 412.595 443.17 407 434.532 407C425.516 407 417.985 413.095 416.175 421.223C415.718 423.275 414.057 425 411.955 425C409.853 425 408.192 423.275 407.735 421.223C405.926 413.095 398.394 407 389.379 407C380.363 407 372.832 413.095 371.022 421.223C370.566 423.275 368.904 425 366.802 425C364.7 425 363.039 423.275 362.582 421.223C360.773 413.095 353.242 407 344.226 407C335.21 407 327.679 413.095 325.869 421.223C325.413 423.275 323.752 425 321.649 425C319.547 425 317.886 423.275 317.429 421.223C315.62 413.095 308.089 407 299.073 407C290.057 407 282.526 413.095 280.717 421.223C280.26 423.275 278.599 425 276.497 425C274.394 425 272.733 423.275 272.276 421.223C270.467 413.095 262.936 407 253.92 407C244.904 407 237.373 413.095 235.564 421.223C235.107 423.275 233.446 425 231.344 425C229.241 425 227.58 423.275 227.124 421.223C225.314 413.095 217.783 407 208.767 407C199.751 407 192.22 413.095 190.411 421.223C189.954 423.275 188.293 425 186.191 425C184.089 425 182.427 423.275 181.971 421.223C180.161 413.095 172.63 407 163.614 407C154.599 407 147.067 413.095 145.258 421.223C144.801 423.275 143.14 425 141.038 425C138.936 425 137.275 423.275 136.818 421.223C135.008 413.095 127.477 407 118.461 407C109.446 407 101.915 413.095 100.105 421.223C99.648 423.275 97.9869 425 95.8848 425C93.7827 425 92.1216 423.275 91.6647 421.223C89.8551 413.095 82.324 407 73.3083 407C64.2927 407 56.7616 413.095 54.9519 421.223C54.4951 423.275 52.834 425 50.7319 425C48.6298 425 46.9687 423.275 46.5118 421.223C44.7021 413.095 37.1711 407 28.1554 407C19.4606 407 12.1466 412.669 10.0138 420.363C9.32145 422.861 7.2842 425 4.69257 425C2.10093 425 0 422.899 0 420.307V0Z" fill="#F7F5FF"/>
    </g>
    <path d="M0.5 0.5H462.5V420.151C462.5 422.553 460.553 424.5 458.151 424.5C455.772 424.5 453.812 422.517 453.111 420.075C450.862 412.237 443.386 406.5 434.532 406.5C425.291 406.5 417.55 412.749 415.687 421.115C415.267 423.004 413.761 424.5 411.955 424.5C410.149 424.5 408.644 423.004 408.223 421.115C406.361 412.749 398.62 406.5 389.379 406.5C380.138 406.5 372.397 412.749 370.534 421.115C370.114 423.004 368.608 424.5 366.802 424.5C364.996 424.5 363.491 423.004 363.07 421.115C361.208 412.749 353.467 406.5 344.226 406.5C334.985 406.5 327.244 412.749 325.381 421.115C324.961 423.004 323.455 424.5 321.649 424.5C319.844 424.5 318.338 423.004 317.917 421.115C316.055 412.749 308.314 406.5 299.073 406.5C289.832 406.5 282.091 412.749 280.229 421.115C279.808 423.004 278.302 424.5 276.497 424.5C274.691 424.5 273.185 423.004 272.764 421.115C270.902 412.749 263.161 406.5 253.92 406.5C244.679 406.5 236.938 412.749 235.076 421.115C234.655 423.004 233.149 424.5 231.344 424.5C229.538 424.5 228.032 423.004 227.612 421.115C225.749 412.749 218.008 406.5 208.767 406.5C199.526 406.5 191.785 412.749 189.923 421.115C189.502 423.004 187.997 424.5 186.191 424.5C184.385 424.5 182.879 423.004 182.459 421.115C180.596 412.749 172.855 406.5 163.614 406.5C154.373 406.5 146.632 412.749 144.77 421.115C144.349 423.004 142.844 424.5 141.038 424.5C139.232 424.5 137.726 423.004 137.306 421.115C135.443 412.749 127.702 406.5 118.461 406.5C109.22 406.5 101.479 412.749 99.6168 421.115C99.1961 423.004 97.6907 424.5 95.8848 424.5C94.0789 424.5 92.5735 423.004 92.1528 421.115C90.2903 412.749 82.5493 406.5 73.3083 406.5C64.0674 406.5 56.3264 412.749 54.4639 421.115C54.0431 423.004 52.5377 424.5 50.7319 424.5C48.926 424.5 47.4206 423.004 46.9999 421.115C45.1373 412.749 37.3964 406.5 28.1554 406.5C19.2428 406.5 11.7266 412.313 9.53193 420.23C8.87735 422.591 6.98573 424.5 4.69257 424.5C2.37708 424.5 0.5 422.623 0.5 420.307V0.5Z" stroke="#F7F7F7"/>
    <defs>
        <filter id="filter0_i_2171_13800" x="0" y="-7" width="463" height="432" filterUnits="userSpaceOnUse" color-interpolation-filters="sRGB">
            <feFlood flood-opacity="0" result="BackgroundImageFix"/>
            <feBlend mode="normal" in="SourceGraphic" in2="BackgroundImageFix" result="shape"/>
            <feColorMatrix in="SourceAlpha" type="matrix" values="0 0 0 0 0 0 0 0 0 0 0 0 0 0 0 0 0 0 127 0" result="hardAlpha"/>
            <feOffset dy="-8"/>
            <feGaussianBlur stdDeviation="3.5"/>
            <feComposite in2="hardAlpha" operator="arithmetic" k2="-1" k3="1"/>
            <feColorMatrix type="matrix" values="0 0 0 0 0 0 0 0 0 0 0 0 0 0 0 0 0 0 0.06 0"/>
            <feBlend mode="normal" in2="shape" result="effect1_innerShadow_2171_13800"/>
        </filter>
    </defs>
</svg>