<svg width="124" height="109" viewBox="0 0 124 109" fill="none" xmlns="http://www.w3.org/2000/svg">
    <g clip-path="url(#clip0_944_1901)">
        <path d="M2.88871 45.8914C4.73808 47.7404 7.24656 48.7795 9.8623 48.7795C11.8274 48.7795 13.7315 48.193 15.3416 47.1172L8.32104 54.1364C6.47167 55.9854 5.43233 58.4933 5.43233 61.1085C5.43233 63.7237 6.4713 66.2317 8.32104 68.0807C10.1704 69.9297 12.6789 70.9688 15.2946 70.9688C17.2594 70.9688 19.1639 70.3823 20.7739 69.3069L17.0893 72.9909C15.2399 74.8399 14.2005 77.3478 14.2005 79.963C14.2005 82.5782 15.2395 85.0862 17.0893 86.9352C18.9386 88.7842 21.4471 89.8233 24.0628 89.8233C26.0276 89.8233 27.9321 89.2368 29.5421 88.1614L28.6419 89.0615C26.7925 90.9105 25.7532 93.4185 25.7532 96.0337C25.7532 98.6489 26.7921 101.157 28.6419 103.006C30.4912 104.855 32.9997 105.894 35.6155 105.894C38.2312 105.894 40.7397 104.855 42.5891 103.006L51.9346 93.6622C50.8587 95.2719 50.2724 97.176 50.2724 99.1403C50.2724 101.756 51.3114 104.264 53.1611 106.113C55.0105 107.961 57.519 109.001 60.1347 109.001C62.7505 109.001 65.259 107.962 67.1083 106.113L81.3081 91.9156C80.2322 93.5253 79.6459 95.4294 79.6459 97.3938C79.6459 100.009 80.6849 102.517 82.5346 104.366C84.384 106.215 86.8925 107.254 89.5082 107.254C92.124 107.254 94.6324 106.215 96.4818 104.366L118.588 82.2643C120.437 80.4153 121.477 77.9073 121.477 75.2921C121.477 72.6769 120.438 70.1689 118.588 68.3199C116.739 66.471 114.23 65.4318 111.614 65.4318C109.65 65.4318 107.745 66.0183 106.135 67.0937L110.763 62.4672C112.612 60.6182 113.651 58.1102 113.651 55.495C113.651 52.8798 112.612 50.3718 110.763 48.5228C108.913 46.6739 106.405 45.6347 103.789 45.6347C101.824 45.6347 99.9198 46.2212 98.3097 47.2966L107.655 37.9529C109.505 36.1039 110.544 33.596 110.544 30.9808C110.544 28.3656 109.505 25.8576 107.655 24.0086C105.806 22.1596 103.297 21.1205 100.682 21.1205C98.7169 21.1205 96.8125 21.707 95.2024 22.7824L101.154 16.8319C103.003 14.983 104.043 12.475 104.043 9.85979C104.043 7.24458 103.004 4.73662 101.154 2.88763C99.3047 1.03864 96.7962 -0.000488281 94.1805 -0.000488281C91.5647 -0.000488281 89.0562 1.03827 87.2069 2.88763L73.9499 16.1419C75.0258 14.5322 75.6121 12.6281 75.6121 10.6637C75.6121 8.04852 74.5731 5.54056 72.7234 3.69157C70.874 1.84258 68.3655 0.803451 65.7498 0.803451C63.134 0.803451 60.6255 1.84221 58.7762 3.69157L40.1682 22.2957C41.2442 20.686 41.8308 18.7819 41.8308 16.8172C41.8308 14.202 40.7918 11.694 38.9421 9.845C37.0927 7.99601 34.5843 6.95688 31.9685 6.95688C29.3528 6.95688 26.8443 7.99564 24.9949 9.845L2.88871 31.947C1.03897 33.7964 0 36.3044 0 38.9192C0 41.534 1.03897 44.0424 2.88871 45.8914Z" fill="white"/>
        <path d="M121.186 87.9193L120.503 88.6016C120.237 88.8682 120.237 89.3005 120.503 89.5671C120.77 89.8337 121.203 89.8337 121.469 89.5671L122.152 88.8848L122.834 89.5671C123.101 89.8337 123.533 89.8337 123.8 89.5671C124.066 89.3005 124.066 88.8682 123.8 88.6016L123.117 87.9193L123.8 87.237C124.066 86.9704 124.066 86.5381 123.8 86.2715C123.666 86.138 123.492 86.0714 123.317 86.0714C123.142 86.0714 122.967 86.138 122.834 86.2715L122.151 86.9537L121.469 86.2715C121.335 86.138 121.161 86.0714 120.986 86.0714C120.811 86.0714 120.636 86.138 120.503 86.2715C120.236 86.5381 120.236 86.9704 120.503 87.237L121.185 87.9193H121.186Z" fill="white"/>
        <path d="M23.6781 102.618L22.9957 103.301C22.729 103.567 22.729 104 22.9957 104.266C23.2623 104.533 23.6947 104.533 23.9614 104.266L24.6438 103.584L25.3262 104.266C25.5929 104.533 26.0253 104.533 26.292 104.266C26.5587 104 26.5587 103.567 26.292 103.301L25.6096 102.618L26.292 101.936C26.5587 101.669 26.5587 101.237 26.292 100.971C26.1585 100.837 25.9839 100.771 25.8089 100.771C25.634 100.771 25.4594 100.837 25.3259 100.971L24.6435 101.653L23.961 100.971C23.8275 100.837 23.6529 100.771 23.478 100.771C23.303 100.771 23.1285 100.837 22.9949 100.971C22.7283 101.237 22.7283 101.669 22.9949 101.936L23.6773 102.618H23.6781Z" fill="white"/>
        <path d="M6.21715 42.1439L5.53473 42.8262C5.26805 43.0928 5.26805 43.5251 5.53473 43.7917C5.80141 44.0583 6.23379 44.0583 6.50047 43.7917L7.18289 43.1094L7.8653 43.7917C8.13198 44.0583 8.56436 44.0583 8.83104 43.7917C9.09772 43.5251 9.09772 43.0928 8.83104 42.8262L8.14863 42.1439L8.83104 41.4616C9.09772 41.195 9.09772 40.7627 8.83104 40.4961C8.69752 40.3626 8.52294 40.296 8.34799 40.296C8.17304 40.296 7.99846 40.3626 7.86493 40.4961L7.18252 41.1784L6.5001 40.4961C6.36658 40.3626 6.192 40.296 6.01705 40.296C5.8421 40.296 5.66752 40.3626 5.53399 40.4961C5.26731 40.7627 5.26731 41.195 5.53399 41.4616L6.21641 42.1439H6.21715Z" fill="white"/>
        <path d="M88.3509 7.08079L87.6685 7.76306C87.4018 8.02969 87.4018 8.46198 87.6685 8.7286C87.9352 8.99523 88.3676 8.99523 88.6343 8.7286L89.3167 8.04633L89.9991 8.7286C90.2658 8.99523 90.6982 8.99523 90.9648 8.7286C91.2315 8.46198 91.2315 8.02969 90.9648 7.76306L90.2824 7.08079L90.9648 6.39851C91.2315 6.13189 91.2315 5.69959 90.9648 5.43297C90.8313 5.29947 90.6567 5.23291 90.4818 5.23291C90.3068 5.23291 90.1322 5.29947 89.9987 5.43297L89.3163 6.11525L88.6339 5.43297C88.5004 5.29947 88.3258 5.23291 88.1508 5.23291C87.9759 5.23291 87.8013 5.29947 87.6678 5.43297C87.4011 5.69959 87.4011 6.13189 87.6678 6.39851L88.3502 7.08079H88.3509Z" fill="white"/>
        <path d="M75.8574 103.569C76.9574 103.569 77.8525 104.464 77.8525 105.564C77.8525 106.664 76.9574 107.559 75.8574 107.559C74.7574 107.559 73.8623 106.664 73.8623 105.564C73.8623 104.464 74.7574 103.569 75.8574 103.569ZM75.8574 106.193C76.2043 106.193 76.4866 105.911 76.4866 105.564C76.4866 105.217 76.2043 104.935 75.8574 104.935C75.5105 104.935 75.2282 105.217 75.2282 105.564C75.2282 105.911 75.5105 106.193 75.8574 106.193Z" fill="white"/>
        <path d="M113.458 40.0098C114.558 40.0098 115.453 40.9047 115.453 42.0045C115.453 43.1042 114.558 43.9991 113.458 43.9991C112.358 43.9991 111.463 43.1042 111.463 42.0045C111.463 40.9047 112.358 40.0098 113.458 40.0098ZM113.458 42.6335C113.805 42.6335 114.087 42.3513 114.087 42.0045C114.087 41.6576 113.805 41.3754 113.458 41.3754C113.111 41.3754 112.829 41.6576 112.829 42.0045C112.829 42.3513 113.111 42.6335 113.458 42.6335Z" fill="white"/>
        <path d="M29.9394 7.99719C31.0394 7.99719 31.9345 8.8921 31.9345 9.99188C31.9345 11.0917 31.0394 11.9866 29.9394 11.9866C28.8394 11.9866 27.9443 11.0917 27.9443 9.99188C27.9443 8.8921 28.8394 7.99719 29.9394 7.99719ZM29.9394 10.6205C30.2864 10.6205 30.5686 10.3384 30.5686 9.99151C30.5686 9.64464 30.2864 9.36248 29.9394 9.36248C29.5925 9.36248 29.3103 9.64464 29.3103 9.99151C29.3103 10.3384 29.5925 10.6205 29.9394 10.6205Z" fill="white"/>
        <path d="M6.69627 70.2762C7.79627 70.2762 8.69136 71.1712 8.69136 72.2709C8.69136 73.3707 7.79627 74.2656 6.69627 74.2656C5.59627 74.2656 4.70117 73.3707 4.70117 72.2709C4.70117 71.1712 5.59627 70.2762 6.69627 70.2762ZM6.69627 72.9C7.04321 72.9 7.32542 72.6178 7.32542 72.2709C7.32542 71.9241 7.04321 71.6419 6.69627 71.6419C6.34933 71.6419 6.06711 71.9241 6.06711 72.2709C6.06711 72.6178 6.34933 72.9 6.69627 72.9Z" fill="white"/>
        <path d="M2.88871 45.8914C4.73808 47.7404 7.24656 48.7795 9.8623 48.7795C11.8274 48.7795 13.7315 48.193 15.3416 47.1172L8.32104 54.1364C6.47167 55.9854 5.43233 58.4933 5.43233 61.1085C5.43233 63.7237 6.4713 66.2317 8.32104 68.0807C10.1704 69.9297 12.6789 70.9688 15.2946 70.9688C17.2594 70.9688 19.1639 70.3823 20.7739 69.3069L17.0893 72.9909C15.2399 74.8399 14.2005 77.3478 14.2005 79.963C14.2005 82.5782 15.2395 85.0862 17.0893 86.9352C18.9386 88.7842 21.4471 89.8233 24.0628 89.8233C26.0276 89.8233 27.9321 89.2368 29.5421 88.1614L28.6419 89.0615C26.7925 90.9105 25.7532 93.4185 25.7532 96.0337C25.7532 98.6489 26.7921 101.157 28.6419 103.006C30.4912 104.855 32.9997 105.894 35.6155 105.894C38.2312 105.894 40.7397 104.855 42.5891 103.006L51.9346 93.6622C50.8587 95.2719 50.2724 97.176 50.2724 99.1403C50.2724 101.756 51.3114 104.264 53.1611 106.113C55.0105 107.961 57.519 109.001 60.1347 109.001C62.7505 109.001 65.259 107.962 67.1083 106.113L81.3081 91.9156C80.2322 93.5253 79.6459 95.4294 79.6459 97.3938C79.6459 100.009 80.6849 102.517 82.5346 104.366C84.384 106.215 86.8925 107.254 89.5082 107.254C92.124 107.254 94.6324 106.215 96.4818 104.366L118.588 82.2643C120.437 80.4153 121.477 77.9073 121.477 75.2921C121.477 72.6769 120.438 70.1689 118.588 68.3199C116.739 66.471 114.23 65.4318 111.614 65.4318C109.65 65.4318 107.745 66.0183 106.135 67.0937L110.763 62.4672C112.612 60.6182 113.651 58.1102 113.651 55.495C113.651 52.8798 112.612 50.3718 110.763 48.5228C108.913 46.6739 106.405 45.6347 103.789 45.6347C101.824 45.6347 99.9198 46.2212 98.3097 47.2966L107.655 37.9529C109.505 36.1039 110.544 33.596 110.544 30.9808C110.544 28.3656 109.505 25.8576 107.655 24.0086C105.806 22.1596 103.297 21.1205 100.682 21.1205C98.7169 21.1205 96.8125 21.707 95.2024 22.7824L101.154 16.8319C103.003 14.983 104.043 12.475 104.043 9.85979C104.043 7.24458 103.004 4.73662 101.154 2.88763C99.3047 1.03864 96.7962 -0.000488281 94.1805 -0.000488281C91.5647 -0.000488281 89.0562 1.03827 87.2069 2.88763L73.9499 16.1419C75.0258 14.5322 75.6121 12.6281 75.6121 10.6637C75.6121 8.04852 74.5731 5.54056 72.7234 3.69157C70.874 1.84258 68.3655 0.803451 65.7498 0.803451C63.134 0.803451 60.6255 1.84221 58.7762 3.69157L40.1682 22.2957C41.2442 20.686 41.8308 18.7819 41.8308 16.8172C41.8308 14.202 40.7918 11.694 38.9421 9.845C37.0927 7.99601 34.5843 6.95688 31.9685 6.95688C29.3528 6.95688 26.8443 7.99564 24.9949 9.845L2.88871 31.947C1.03897 33.7964 0 36.3044 0 38.9192C0 41.534 1.03897 44.0424 2.88871 45.8914Z" fill="#F3EDFF"/>
        <path d="M121.186 87.9193L120.503 88.6016C120.237 88.8682 120.237 89.3005 120.503 89.5671C120.77 89.8337 121.203 89.8337 121.469 89.5671L122.152 88.8848L122.834 89.5671C123.101 89.8337 123.533 89.8337 123.8 89.5671C124.066 89.3005 124.066 88.8682 123.8 88.6016L123.117 87.9193L123.8 87.237C124.066 86.9704 124.066 86.5381 123.8 86.2715C123.666 86.138 123.492 86.0714 123.317 86.0714C123.142 86.0714 122.967 86.138 122.834 86.2715L122.151 86.9537L121.469 86.2715C121.335 86.138 121.161 86.0714 120.986 86.0714C120.811 86.0714 120.636 86.138 120.503 86.2715C120.236 86.5381 120.236 86.9704 120.503 87.237L121.185 87.9193H121.186Z" fill="#C5A8FF"/>
        <path d="M23.6781 102.618L22.9957 103.301C22.729 103.567 22.729 104 22.9957 104.266C23.2623 104.533 23.6947 104.533 23.9614 104.266L24.6438 103.584L25.3262 104.266C25.5929 104.533 26.0253 104.533 26.292 104.266C26.5587 104 26.5587 103.567 26.292 103.301L25.6096 102.618L26.292 101.936C26.5587 101.669 26.5587 101.237 26.292 100.971C26.1585 100.837 25.9839 100.771 25.8089 100.771C25.634 100.771 25.4594 100.837 25.3259 100.971L24.6435 101.653L23.961 100.971C23.8275 100.837 23.6529 100.771 23.478 100.771C23.303 100.771 23.1285 100.837 22.9949 100.971C22.7283 101.237 22.7283 101.669 22.9949 101.936L23.6773 102.618H23.6781Z" fill="#C5A8FF"/>
        <path d="M6.21715 42.1439L5.53473 42.8262C5.26805 43.0928 5.26805 43.5251 5.53473 43.7917C5.80141 44.0583 6.23379 44.0583 6.50047 43.7917L7.18289 43.1094L7.8653 43.7917C8.13198 44.0583 8.56436 44.0583 8.83104 43.7917C9.09772 43.5251 9.09772 43.0928 8.83104 42.8262L8.14863 42.1439L8.83104 41.4616C9.09772 41.195 9.09772 40.7627 8.83104 40.4961C8.69752 40.3626 8.52294 40.296 8.34799 40.296C8.17304 40.296 7.99846 40.3626 7.86493 40.4961L7.18252 41.1784L6.5001 40.4961C6.36658 40.3626 6.192 40.296 6.01705 40.296C5.8421 40.296 5.66752 40.3626 5.53399 40.4961C5.26731 40.7627 5.26731 41.195 5.53399 41.4616L6.21641 42.1439H6.21715Z" fill="#C5A8FF"/>
        <path d="M88.3509 7.08079L87.6685 7.76306C87.4018 8.02969 87.4018 8.46198 87.6685 8.7286C87.9352 8.99523 88.3676 8.99523 88.6343 8.7286L89.3167 8.04633L89.9991 8.7286C90.2658 8.99523 90.6982 8.99523 90.9648 8.7286C91.2315 8.46198 91.2315 8.02969 90.9648 7.76306L90.2824 7.08079L90.9648 6.39851C91.2315 6.13189 91.2315 5.69959 90.9648 5.43297C90.8313 5.29947 90.6567 5.23291 90.4818 5.23291C90.3068 5.23291 90.1322 5.29947 89.9987 5.43297L89.3163 6.11525L88.6339 5.43297C88.5004 5.29947 88.3258 5.23291 88.1508 5.23291C87.9759 5.23291 87.8013 5.29947 87.6678 5.43297C87.4011 5.69959 87.4011 6.13189 87.6678 6.39851L88.3502 7.08079H88.3509Z" fill="#C5A8FF"/>
        <path d="M75.8574 103.569C76.9574 103.569 77.8525 104.464 77.8525 105.564C77.8525 106.664 76.9574 107.559 75.8574 107.559C74.7574 107.559 73.8623 106.664 73.8623 105.564C73.8623 104.464 74.7574 103.569 75.8574 103.569ZM75.8574 106.193C76.2043 106.193 76.4866 105.911 76.4866 105.564C76.4866 105.217 76.2043 104.935 75.8574 104.935C75.5105 104.935 75.2282 105.217 75.2282 105.564C75.2282 105.911 75.5105 106.193 75.8574 106.193Z" fill="#C5A8FF"/>
        <path d="M113.458 40.0098C114.558 40.0098 115.453 40.9047 115.453 42.0045C115.453 43.1042 114.558 43.9991 113.458 43.9991C112.358 43.9991 111.463 43.1042 111.463 42.0045C111.463 40.9047 112.358 40.0098 113.458 40.0098ZM113.458 42.6335C113.805 42.6335 114.087 42.3513 114.087 42.0045C114.087 41.6576 113.805 41.3754 113.458 41.3754C113.111 41.3754 112.829 41.6576 112.829 42.0045C112.829 42.3513 113.111 42.6335 113.458 42.6335Z" fill="#C5A8FF"/>
        <path d="M29.9394 7.99719C31.0394 7.99719 31.9345 8.8921 31.9345 9.99188C31.9345 11.0917 31.0394 11.9866 29.9394 11.9866C28.8394 11.9866 27.9443 11.0917 27.9443 9.99188C27.9443 8.8921 28.8394 7.99719 29.9394 7.99719ZM29.9394 10.6205C30.2864 10.6205 30.5686 10.3384 30.5686 9.99151C30.5686 9.64464 30.2864 9.36248 29.9394 9.36248C29.5925 9.36248 29.3103 9.64464 29.3103 9.99151C29.3103 10.3384 29.5925 10.6205 29.9394 10.6205Z" fill="#C5A8FF"/>
        <path d="M6.69627 70.2762C7.79627 70.2762 8.69136 71.1712 8.69136 72.2709C8.69136 73.3707 7.79627 74.2656 6.69627 74.2656C5.59627 74.2656 4.70117 73.3707 4.70117 72.2709C4.70117 71.1712 5.59627 70.2762 6.69627 70.2762ZM6.69627 72.9C7.04321 72.9 7.32542 72.6178 7.32542 72.2709C7.32542 71.9241 7.04321 71.6419 6.69627 71.6419C6.34933 71.6419 6.06711 71.9241 6.06711 72.2709C6.06711 72.6178 6.34933 72.9 6.69627 72.9Z" fill="#C5A8FF"/>
        <path d="M59.7112 89.5685C54.9776 89.5685 50.3837 88.6407 46.0569 86.8113C41.8796 85.0448 38.1291 82.5169 34.909 79.2974C31.6889 76.0779 29.16 72.3278 27.3935 68.1517C25.5634 63.8262 24.6357 59.2329 24.6357 54.5003C24.6357 49.7676 25.5638 45.1747 27.3935 40.8488C29.1604 36.6727 31.6889 32.9226 34.909 29.7031C38.1291 26.4837 41.88 23.9554 46.0573 22.1892C50.3837 20.3595 54.9779 19.432 59.7116 19.432C66.6345 19.432 73.3266 21.443 79.0648 25.2478C79.9895 25.8609 80.5617 26.8483 80.6342 27.9566C80.707 29.0682 80.2669 30.1251 79.4269 30.8565L79.3707 30.9053C78.7253 31.4671 77.8993 31.7766 77.0449 31.7766C76.3514 31.7766 75.6801 31.5743 75.1031 31.1919C70.5344 28.1633 65.2123 26.5624 59.7112 26.5624H59.6938C52.2372 26.5676 45.2225 29.4846 39.9411 34.7767C34.6593 40.0686 31.7565 47.088 31.7676 54.5417C31.7898 69.9241 44.3256 82.4385 59.7116 82.4385C68.7061 82.4385 76.9229 78.259 82.255 70.9714C86.3221 65.413 88.2062 58.6509 87.5608 51.9305C87.4687 50.9728 87.7798 50.0054 88.4141 49.2772L88.4633 49.2207C89.1468 48.4356 90.0867 48.0033 91.109 48.0033C91.9641 48.0033 92.7923 48.3076 93.441 48.8605C94.1334 49.4507 94.5629 50.2861 94.6505 51.2128C95.2279 57.3303 94.1641 63.5355 91.5747 69.1564C87.9018 77.1289 81.435 83.3988 73.3651 86.8113C69.0387 88.6411 64.4445 89.5685 59.7108 89.5685H59.7112Z" fill="#8C52FF"/>
        <path d="M59.2897 70.9485C57.9189 70.9485 56.5878 70.5472 55.4404 69.788C54.6811 69.2855 54.0057 68.6128 53.486 67.8418L40.4676 51.1525C39.9224 50.4536 39.6091 49.6866 39.537 48.8734C39.4715 48.1368 39.6143 47.3842 39.9494 46.6975C40.303 45.9731 40.8493 45.3533 41.5284 44.9048C42.2352 44.4381 43.0382 44.1914 43.8501 44.1914C44.7792 44.1914 45.6895 44.5187 46.4832 45.1374L59.3174 55.1444C63.0879 51.8621 90.5773 27.9296 90.7777 27.7554C91.4798 27.1441 92.3016 26.8209 93.1538 26.8209C94.5597 26.8209 95.9127 27.7181 96.5208 29.053C97.1059 30.3384 96.8766 31.7703 95.9071 32.8834L65.1244 68.2271C63.9967 69.6749 62.3748 70.5994 60.5532 70.8331C60.1371 70.9093 59.7117 70.9477 59.2893 70.9477L59.2897 70.9485Z" fill="white"/>
        <g style="mix-blend-mode:multiply">
            <path d="M96.2967 52.1133C96.1924 51.0084 95.6787 50.0106 94.8498 49.3047C94.7592 49.2274 94.6656 49.1538 94.5691 49.085C93.9799 48.6624 93.2908 48.3965 92.5703 48.3125C92.406 48.2933 92.2403 48.2837 92.0739 48.2837C90.8507 48.2837 89.7278 48.7996 88.9122 49.7359L88.863 49.7925C88.1055 50.6619 87.7342 51.8167 87.844 52.9605C88.4736 59.5137 86.6349 66.1094 82.6673 71.5321C77.4654 78.6415 69.4499 82.7189 60.6761 82.7189C58.0518 82.7189 55.513 82.3457 53.1092 81.6498C48.4074 80.2882 44.2234 77.6918 40.9349 74.2361C36.2874 69.3533 33.4272 62.7561 33.4164 55.5051C33.4061 48.2341 36.2378 41.387 41.3902 36.2242C46.5425 31.0619 53.3852 28.2159 60.6576 28.2111H60.6761C66.0418 28.2111 71.2334 29.7724 75.6896 32.7263C76.3791 33.1834 77.1813 33.4249 78.0095 33.4249C79.0292 33.4249 80.0149 33.0562 80.7843 32.3861L80.8368 32.3402L80.8412 32.3365C81.3509 31.8928 81.7359 31.3529 81.986 30.732C82.2205 30.1488 82.3229 29.5069 82.2815 28.8764C82.1987 27.6079 81.5677 26.4727 80.5431 25.7357C80.4987 25.7039 80.4536 25.6724 80.4077 25.6421C76.9971 23.3804 73.2559 21.7407 69.3304 20.766C66.5219 20.0689 63.6195 19.7124 60.6761 19.7124C55.8504 19.7124 51.1667 20.6583 46.7552 22.5236C42.4965 24.3245 38.6727 26.902 35.3897 30.184C32.1071 33.4663 29.5291 37.2892 27.7278 41.5471C25.8621 45.9577 24.916 50.6404 24.916 55.4652C24.916 58.4054 25.2674 61.2924 25.9642 64.0973C25.9642 64.0992 25.965 64.101 25.9657 64.1029C26.4118 65.899 26.9999 67.6614 27.7278 69.3828C29.441 73.4314 31.8556 77.0872 34.9111 80.2582C35.069 80.422 35.2285 80.5847 35.3897 80.746C38.6727 84.0279 42.4965 86.6054 46.7552 88.4063C47.1495 88.5731 47.546 88.7325 47.9447 88.8845C49.3979 89.4392 50.8785 89.8951 52.3828 90.2527H68.9694C70.4733 89.8951 71.9539 89.4392 73.4071 88.8845C73.8059 88.7325 74.2024 88.5731 74.5966 88.4063C82.8241 84.9273 89.4171 78.5353 93.161 70.4076C94.4821 67.5398 95.4198 64.5167 95.9472 61.4222C96.4717 58.3466 96.5893 55.2148 96.2967 52.1133ZM52.5463 88.8845C52.1139 88.7798 51.6837 88.6663 51.2554 88.5443C49.9109 88.1615 48.5875 87.6952 47.2885 87.1461C43.1929 85.4143 39.5153 82.9356 36.3577 79.7786C36.1964 79.6174 36.0374 79.455 35.8798 79.2912C32.9489 76.2452 30.6324 72.7358 28.9883 68.85C27.1944 64.6091 26.2845 60.1057 26.2845 55.4652C26.2845 50.8246 27.1944 46.3212 28.9883 42.0803C30.7208 37.9852 33.2001 34.3083 36.3577 31.1513C39.5153 27.9948 43.1929 25.5156 47.2885 23.7839C51.5302 21.99 56.0346 21.0807 60.6761 21.0807C67.4562 21.0807 73.9819 23.0517 79.5489 26.7149C79.5833 26.7371 79.6173 26.7596 79.6513 26.7822C80.0896 27.0728 80.4166 27.4582 80.6285 27.8894C81.1759 28.9999 80.9636 30.4154 79.9421 31.3048C79.9232 31.3215 79.9047 31.3377 79.8855 31.354C79.3517 31.8188 78.6819 32.0566 78.0095 32.0566C77.5808 32.0566 77.151 31.9601 76.7545 31.7637C76.6487 31.712 76.5459 31.6524 76.4456 31.5862C73.7008 29.7665 70.6764 28.4426 67.494 27.6634C65.284 27.1217 62.9974 26.8428 60.6761 26.8428H60.6565C53.0186 26.848 45.8323 29.8363 40.4215 35.2579C35.0106 40.6792 32.0368 47.8706 32.0479 55.5073C32.0512 57.8256 32.3323 60.0806 32.859 62.2402C34.0652 67.187 36.5622 71.6353 39.9706 75.2068C45.1888 80.6746 52.5437 84.0871 60.6761 84.0871C69.8911 84.0871 78.3091 79.8056 83.7717 72.3401C87.9942 66.5694 89.8661 59.6975 89.2066 52.83C89.1319 52.053 89.3823 51.2794 89.895 50.6911L89.9442 50.6345C90.5334 49.9581 91.3094 49.6519 92.0739 49.6519C92.6043 49.6519 93.1288 49.7991 93.5819 50.0724C94.0302 50.3424 94.4082 50.7351 94.6515 51.2306C94.8002 51.5312 94.899 51.87 94.9341 52.2416C95.4978 58.2139 94.4803 64.2734 91.9182 69.8351C88.3171 77.6523 81.976 83.8001 74.0637 87.1461C72.3512 87.8701 70.5957 88.4503 68.8059 88.8845C66.1624 89.5261 63.4435 89.8493 60.6761 89.8493C57.9087 89.8493 55.1898 89.5261 52.5463 88.8845Z" fill="#DDDDDD"/>
        </g>
        <g style="mix-blend-mode:multiply">
            <path d="M98.1083 29.7354C97.7891 29.0346 97.2935 28.4256 96.6691 27.964C96.6218 27.9289 96.5741 27.8949 96.5252 27.8616C95.9275 27.4537 95.2595 27.2037 94.5712 27.1279C94.421 27.1109 94.2701 27.1024 94.1188 27.1024C93.0987 27.1024 92.1219 27.4837 91.2934 28.2052C91.1617 28.3198 79.2189 38.7174 69.9891 46.7527C65.6308 50.5468 61.8777 53.814 60.2584 55.224L59.714 54.7995L47.8688 45.5634C47.1257 44.984 46.2894 44.6264 45.4213 44.5125H45.421C45.2205 44.4862 45.0185 44.4729 44.8155 44.4729H44.8147C43.8686 44.4729 42.9354 44.7584 42.1165 45.299C41.335 45.8149 40.7066 46.5286 40.2993 47.3625C39.9091 48.1613 39.7434 49.0384 39.82 49.8989C39.8259 49.9659 39.8333 50.0321 39.8418 50.0983C39.9561 50.9706 40.3093 51.7905 40.8926 52.5386L53.8966 69.2094C54.0468 69.4305 54.2084 69.6443 54.3811 69.8491C54.8598 70.4194 55.419 70.9208 56.0275 71.3235C57.2872 72.1571 58.749 72.5979 60.2544 72.5979C60.7119 72.5979 61.1724 72.5564 61.6233 72.4751C62.589 72.349 63.5074 72.0446 64.3544 71.5702C65.2321 71.0787 65.9933 70.4253 66.6173 69.6284C67.5978 68.5023 96.6787 35.1126 97.3878 34.2987C98.5385 32.9774 98.8077 31.2715 98.1083 29.7354ZM61.4128 71.1227C61.0315 71.1934 60.6438 71.2296 60.2544 71.2296C59.5265 71.2296 58.7934 71.1035 58.0895 70.8446C57.639 70.679 57.2003 70.4589 56.7827 70.1827C56.2346 69.8199 55.7519 69.3703 55.3535 68.8781C55.2289 68.7242 55.1128 68.5663 55.0051 68.4055L41.9715 51.6969C39.921 49.0684 42.1446 45.8408 44.8155 45.8412C45.5452 45.8412 46.3087 46.0823 47.0273 46.6425L60.3061 56.9965C60.5155 56.8145 91.9777 29.4236 92.1922 29.2369C92.8095 28.6992 93.4786 28.4707 94.1188 28.4707C94.6803 28.4707 95.22 28.6467 95.6827 28.9447C96.1713 29.2587 96.5748 29.7087 96.8285 30.2305C97.2905 31.1776 97.2602 32.3617 96.3558 33.4001C95.6368 34.2255 65.7503 68.5401 65.5606 68.7582C64.5057 70.1202 62.9973 70.9238 61.4128 71.1227Z" fill="#DDDDDD"/>
        </g>
        <path d="M95.3319 51.1481C95.2605 50.39 94.9961 49.6826 94.5696 49.085C94.3743 48.8117 94.1453 48.5614 93.8853 48.3395C93.113 47.6812 92.1269 47.3188 91.1094 47.3188C89.8859 47.3188 88.7629 47.8343 87.9474 48.771L87.8982 48.8276C87.1411 49.697 86.7697 50.8515 86.8795 51.9957C87.5087 58.5489 85.6704 65.1442 81.7024 70.5673C76.5005 77.6766 68.485 81.754 59.7113 81.754C52.444 81.754 45.8288 78.8921 40.9354 74.236C35.722 69.2763 32.4631 62.2805 32.452 54.5402C32.4412 47.2693 35.273 40.4218 40.4257 35.2594C45.578 30.0966 52.4207 27.2507 59.6928 27.2459H59.7113C65.077 27.2459 70.2689 28.8072 74.7248 31.7615C75.4142 32.2185 76.2165 32.46 77.0446 32.46C78.0647 32.46 79.0501 32.091 79.8198 31.4209L79.8723 31.375L79.8764 31.3717C80.3861 30.9279 80.7715 30.388 81.0211 29.7672C81.256 29.1836 81.3581 28.542 81.317 27.9111C81.2645 27.1109 80.9938 26.3635 80.5436 25.7356C80.2499 25.3255 79.8793 24.9661 79.4429 24.6769C73.5922 20.7977 66.7692 18.7472 59.7113 18.7472C54.8855 18.7472 50.2022 19.6931 45.7907 21.5588C41.532 23.3597 37.7079 25.9368 34.4252 29.2191C31.1422 32.5011 28.5646 36.3244 26.7633 40.5823C24.8973 44.9925 23.9512 49.6752 23.9512 54.4999C23.9512 59.3247 24.8973 64.0074 26.7633 68.418C28.5646 72.6758 31.1426 76.4988 34.4252 79.7808C34.5861 79.9416 34.7481 80.1006 34.9116 80.2582C38.0837 83.3138 41.7406 85.7286 45.7907 87.4411C47.1289 88.0073 48.4926 88.4888 49.8774 88.8844C53.0569 89.7938 56.3498 90.2527 59.7113 90.2527C63.0727 90.2527 66.3653 89.7938 69.5451 88.8844C70.9302 88.4888 72.2936 88.0073 73.6322 87.4411C81.8593 83.9621 88.4522 77.5701 92.1965 69.4423C93.5177 66.5746 94.4549 63.5518 94.9827 60.4574C95.5072 57.3818 95.6245 54.2496 95.3319 51.1481ZM28.0238 41.1151C29.756 37.0204 32.2352 33.3435 35.3928 30.1865C38.5504 27.0295 42.2281 24.5508 46.3237 22.8187C50.5654 21.0251 55.0697 20.1154 59.7113 20.1154C66.5328 20.1154 73.097 22.1112 78.6865 25.8173C79.0523 26.0599 79.3408 26.3687 79.5494 26.7148C80.2348 27.8512 80.0646 29.3937 78.9776 30.34C78.9587 30.3562 78.9399 30.3725 78.921 30.3892C78.3869 30.854 77.7174 31.0918 77.0446 31.0918C76.502 31.0918 75.9572 30.9368 75.4812 30.621C70.83 27.5376 65.3751 25.8776 59.7113 25.8776H59.692C52.0538 25.8828 44.8675 28.8715 39.4566 34.2927C34.0461 39.7143 31.0723 46.9054 31.0834 54.5421C31.0949 62.6606 34.5088 69.9989 39.9711 75.2067C45.1127 80.1084 52.0689 83.1223 59.7113 83.1223C68.9266 83.1223 77.3446 78.8404 82.8069 71.3749C87.0294 65.6042 88.9013 58.7323 88.2418 51.8648C88.1671 51.0878 88.4175 50.3146 88.9301 49.7262L88.9793 49.6693C89.5685 48.9929 90.3445 48.6871 91.1094 48.6871C92.0937 48.6871 93.059 49.1945 93.5824 50.0724C93.7892 50.4189 93.9268 50.823 93.9693 51.2768C94.533 57.2486 93.5154 63.3085 90.9533 68.8699C87.3523 76.6874 81.0115 82.8353 73.0988 86.1812C68.8571 87.9747 64.3532 88.8844 59.7113 88.8844C55.0693 88.8844 50.5654 87.9747 46.3237 86.1812C42.4371 84.5375 38.927 82.2214 35.8803 79.2912C35.7165 79.1336 35.5541 78.9746 35.3928 78.8134C32.2352 75.6564 29.756 71.9795 28.0238 67.8848C26.2296 63.6439 25.3197 59.1405 25.3197 54.4999C25.3197 49.8594 26.2296 45.356 28.0238 41.1151Z" fill="white"/>
        <path d="M97.1434 28.7702C97.0136 28.485 96.8546 28.2151 96.6696 27.964C96.3652 27.5517 95.9909 27.19 95.5607 26.8964C94.8325 26.4001 94.0006 26.1376 93.154 26.1376C92.1342 26.1376 91.157 26.5188 90.3285 27.2399C90.1968 27.3549 78.254 37.7522 69.0242 45.7875C64.6663 49.5816 60.9132 52.8491 59.2936 54.2588L46.9043 44.5986C45.9892 43.8853 44.9336 43.5081 43.851 43.5077H43.8502C42.9037 43.5077 41.9709 43.7935 41.1517 44.3342C40.3705 44.8501 39.7421 45.5634 39.3345 46.3973C38.9446 47.1961 38.7785 48.0732 38.8551 48.9341C38.9391 49.8808 39.3001 50.7687 39.9277 51.5733L52.9321 68.2442C53.3382 68.8432 53.8309 69.3876 54.3816 69.8491C54.5999 70.0329 54.8277 70.203 55.0626 70.3587C56.3224 71.1922 57.7841 71.6326 59.2895 71.6326C59.7474 71.6326 60.2075 71.5916 60.6588 71.5099C61.6241 71.3838 62.5429 71.0794 63.3895 70.6053C64.2673 70.1135 65.0285 69.4604 65.6528 68.6635C66.6333 67.5375 95.7142 34.1478 96.4233 33.3335C97.5736 32.0125 97.8429 30.3067 97.1434 28.7702ZM55.8179 69.2175C55.6573 69.1114 55.5027 68.9978 55.354 68.878C54.8355 68.4601 54.3913 67.965 54.0403 67.4402L41.007 50.7321C38.9565 48.1032 41.1798 44.8756 43.8506 44.8759C44.5804 44.8763 45.3442 45.1174 46.0625 45.6773L59.3416 56.0316C59.5506 55.8493 91.0128 28.4588 91.2273 28.272C91.845 27.7344 92.5137 27.5058 93.154 27.5058C94.183 27.5058 95.1376 28.0968 95.6832 28.9447C96.3208 29.935 96.4011 31.2755 95.3913 32.4349C94.6719 33.2606 64.7858 67.5752 64.5961 67.793C63.5412 69.155 62.0325 69.9589 60.4483 70.1575C60.067 70.2285 59.679 70.2644 59.2895 70.2644C58.0955 70.2644 56.8883 69.9256 55.8179 69.2175Z" fill="#C0A1FD"/>
        <path d="M99.7124 89.5685C99.7124 89.9465 99.4058 90.2526 99.0281 90.2526H20.4108C20.0332 90.2526 19.7266 89.9465 19.7266 89.5685C19.7266 89.1906 20.0332 88.8844 20.4108 88.8844H99.0281C99.4058 88.8844 99.7124 89.1906 99.7124 89.5685Z" fill="#A688E0"/>
        <path d="M17.5879 90.2526H14.4714C14.0934 90.2526 13.7871 89.9465 13.7871 89.5685C13.7871 89.1906 14.0934 88.8844 14.4714 88.8844H17.5879C17.9659 88.8844 18.2722 89.1906 18.2722 89.5685C18.2722 89.9465 17.9659 90.2526 17.5879 90.2526Z" fill="#A688E0"/>
        <path d="M32.9268 86.8997H29.8102C29.4322 86.8997 29.126 86.5936 29.126 86.2156C29.126 85.8377 29.4322 85.5315 29.8102 85.5315H32.9268C33.3048 85.5315 33.6111 85.8377 33.6111 86.2156C33.6111 86.5936 33.3048 86.8997 32.9268 86.8997Z" fill="#A688E0"/>
        <path d="M26.9873 86.8997H23.8708C23.4928 86.8997 23.1865 86.5936 23.1865 86.2156C23.1865 85.8377 23.4928 85.5315 23.8708 85.5315H26.9873C27.3654 85.5315 27.6716 85.8377 27.6716 86.2156C27.6716 86.5936 27.3654 86.8997 26.9873 86.8997Z" fill="#A688E0"/>
        <path d="M89.6289 86.8997H86.5124C86.1344 86.8997 85.8281 86.5936 85.8281 86.2156C85.8281 85.8377 86.1344 85.5315 86.5124 85.5315H89.6289C90.007 85.5315 90.3132 85.8377 90.3132 86.2156C90.3132 86.5936 90.007 86.8997 89.6289 86.8997Z" fill="#A688E0"/>
        <path d="M95.568 86.8997H92.4518C92.0738 86.8997 91.7676 86.5936 91.7676 86.2156C91.7676 85.8377 92.0738 85.5315 92.4518 85.5315H95.568C95.946 85.5315 96.2523 85.8377 96.2523 86.2156C96.2523 86.5936 95.946 86.8997 95.568 86.8997Z" fill="#A688E0"/>
        <path d="M104.967 90.2526H101.851C101.473 90.2526 101.167 89.9465 101.167 89.5685C101.167 89.1906 101.473 88.8844 101.851 88.8844H104.967C105.345 88.8844 105.652 89.1906 105.652 89.5685C105.652 89.9465 105.345 90.2526 104.967 90.2526Z" fill="#A688E0"/>
    </g>
    <defs>
        <clipPath id="clip0_944_1901">
            <rect width="124" height="109" fill="white"/>
        </clipPath>
    </defs>
</svg>